  0
SECTION
  2
HEADER
  9
$ACADVER
  1
AC1009
  9
$INSBASE
 10
0
 20
0
 30
0
  9
$EXTMIN
 10
0
 20
0
  9
$EXTMAX
 10
210.25
 20
148.5
  9
$LIMMIN
 10
0
 20
0
  9
$LIMMAX
 10
210.25
 20
148.5
  9
$LTSCALE
 40
0.25
  0
ENDSEC
  0
SECTION
  2
TABLES
  0
TABLE
  2
LTYPE
 70
     9
  0
LTYPE
  2
CONTINUOUS
 70
    64
  3
実線
 72
    65
 73
     0
 40
0.0
  0
LTYPE
  2
DASHED1
 70
    64
  3
--  --  --  --  --  --  --  --  
 72
    65
 73
     2
 40
2.5
 49
1.25
 49
-1.25
  0
LTYPE
  2
DASHED2
 70
    64
  3
----    ----    ----    ----    
 72
    65
 73
     2
 40
5.0
 49
2.5
 49
-2.5
  0
LTYPE
  2
DASHED3
 70
    64
  3
------  ------  ------  ------  
 72
    65
 73
     2
 40
5.0
 49
3.75
 49
-1.25
  0
LTYPE
  2
CENTER1
 70
    64
  3
----- - ----- - ----- - ----- - 
 72
    65
 73
     4
 40
10.0
 49
6.25
 49
-1.25
 49
1.25
 49
-1.25
  0
LTYPE
  2
CENTER2
 70
    64
  3
----------  --  ----------  --  
 72
    65
 73
     4
 40
20.0
 49
12.5
 49
-2.5
 49
2.5
 49
-2.5
  0
LTYPE
  2
PHANTOM1
 70
    64
  3
--- - - --- - - --- - - --- - - 
 72
    65
 73
     6
 40
10.0
 49
3.25
 49
-1.25
 49
1.25
 49
-1.25
 49
1.25
 49
-1.25
  0
LTYPE
  2
PHANTOM2
 70
    64
  3
--------  -  -  --------  -  -  
 72
    65
 73
     6
 40
20.0
 49
10.0
 49
-2.5
 49
1.25
 49
-2.5
 49
1.25
 49
-2.5
  0
LTYPE
  2
DOT
 70
    64
  3
-   -   -   -   -   -   -   -   
 72
    65
 73
     2
 40
2.5
 49
0.625
 49
-1.875
  0
LTYPE
  2
DUMMY
 70
    64
  3
ダミー
 72
    65
 73
     0
 40
0.0
  0
LTYPE
  2
RAND1
 70
    64
  3
ランダム線1
 72
    65
 73
     4
 40
10.0
 49
1.0
 49
-2.0
 49
3.0
 49
-4.0
  0
LTYPE
  2
RAND2
 70
    64
  3
ランダム線2
 72
    65
 73
     4
 40
14.0
 49
2.0
 49
-3.0
 49
4.0
 49
-5.0
  0
LTYPE
  2
RAND3
 70
    64
  3
ランダム線3
 72
    65
 73
     4
 40
18.0
 49
3.0
 49
-4.0
 49
5.0
 49
-6.0
  0
LTYPE
  2
RAND4
 70
    64
  3
ランダム線4
 72
    65
 73
     4
 40
22.0
 49
4.0
 49
-5.0
 49
6.0
 49
-7.0
  0
LTYPE
  2
RAND5
 70
    64
  3
ランダム線5
 72
    65
 73
     4
 40
26.0
 49
5.0
 49
-6.0
 49
7.0
 49
-8.0
  0
LTYPE
  2
LONG1
 70
    64
  3
----------  --  ----------  --  
 72
    65
 73
     4
 40
40.0
 49
32.5
 49
-2.5
 49
2.5
 49
-2.5
  0
LTYPE
  2
LONG2
 70
    64
  3
--------  -  -  --------  -  -  
 72
    65
 73
     6
 40
40.0
 49
30.0
 49
-2.5
 49
1.25
 49
-2.5
 49
1.25
 49
-2.5
  0
LTYPE
  2
LONG3
 70
    64
  3
+++++++++++++++..+++++++++++++++
 72
    65
 73
     2
 40
40.0
 49
37.5
 49
-2.5
  0
LTYPE
  2
LONG4
 70
    64
  3
+++++++++++++++..+++++++++++++++
 72
    65
 73
     2
 40
80.0
 49
75.0
 49
-5.0
  0
LTYPE
  2
LONG5
 70
    64
  3
----------  --  ----------  --  
 72
    65
 73
     4
 40
60.0
 49
37.5
 49
-7.5
 49
7.5
 49
-7.5
  0
LTYPE
  2
dashed
 70
   64
  3
-------   -------------   ------
 72
   65
 73
    2
 40
7.5
 49
6
 49
-1.5
  0
LTYPE
  2
dashed_spaced
 70
   64
  3
----        --------        ----
 72
   65
 73
    2
 40
12
 49
6
 49
-6
  0
LTYPE
  2
long_dashed_dotted
 70
   64
  3
------------- --- --------------
 72
   65
 73
    4
 40
15.25
 49
12
 49
-1.5
 49
0.25
 49
-1.5
  0
LTYPE
  2
long_dashed_double-dotted
 70
   64
  3
----------- --- --- ------------
 72
   65
 73
    6
 40
17
 49
12
 49
-1.5
 49
0.25
 49
-1.5
 49
0.25
 49
-1.5
  0
LTYPE
  2
long_dashed_triplicate-dotted
 70
   64
  3
--------- --- --- --- ----------
 72
   65
 73
    8
 40
18.75
 49
12
 49
-1.5
 49
0.25
 49
-1.5
 49
0.25
 49
-1.5
 49
0.25
 49
-1.5
  0
LTYPE
  2
dotted
 70
   64
  3
   -       -       -       -    
 72
   65
 73
    2
 40
1.75
 49
0.25
 49
-1.5
  0
LTYPE
  2
chain
 70
   64
  3
-------------- -- --------------
 72
   65
 73
    4
 40
18.5
 49
12
 49
-1.5
 49
3.5
 49
-1.5
  0
LTYPE
  2
chain_double_dash
 70
   64
  3
------------ -- -- -------------
 72
   65
 73
    6
 40
23.5
 49
12
 49
-1.5
 49
3.5
 49
-1.5
 49
3.5
 49
-1.5
  0
LTYPE
  2
dashed_dotted
 70
   64
  3
-----------     -     ----------
 72
   65
 73
    4
 40
9.25
 49
6
 49
-1.5
 49
0.25
 49
-1.5
  0
LTYPE
  2
double-dashed_dotted
 70
   64
  3
------   -----------   -   -----
 72
   65
 73
    6
 40
16.75
 49
6
 49
-1.5
 49
6
 49
-1.5
 49
0.25
 49
-1.5
  0
LTYPE
  2
dashed_double-dotted
 70
   64
  3
---------    -    -    ---------
 72
   65
 73
    6
 40
11
 49
6
 49
-1.5
 49
0.25
 49
-1.5
 49
0.25
 49
-1.5
  0
LTYPE
  2
double-dashed_double-dotted
 70
   64
  3
-----   ---------   -   -   ----
 72
   65
 73
    8
 40
18.5
 49
6
 49
-1.5
 49
6
 49
-1.5
 49
0.25
 49
-1.5
 49
0.25
 49
-1.5
  0
LTYPE
  2
dashed_triplicate-dotted
 70
   64
  3
-------    -    -    -    ------
 72
   65
 73
    8
 40
12.75
 49
6
 49
-1.5
 49
0.25
 49
-1.5
 49
0.25
 49
-1.5
 49
0.25
 49
-1.5
  0
LTYPE
  2
double-dashed_triplicate-dotted
 70
   64
  3
-----  ---------  -  -  -  -----
 72
   65
 73
   10
 40
20.25
 49
6
 49
-1.5
 49
6
 49
-1.5
 49
0.25
 49
-1.5
 49
0.25
 49
-1.5
 49
0.25
 49
-1.5
  0
LTYPE
  2
undefined
 70
   64
  3
--------------------------------
 72
   65
 73
    0
 40
0
  0
LTYPE
  2
CHAIN
 70
   64
  3
-----------   -----   ----------
 72
   65
 73
    4
 40
0.3542999999999999
 49
0.2361999999999999
 49
-0.0294999999999999
 49
0.0591
 49
-0.0294999999999999
  0
LTYPE
  2
DASH_DOT
 70
   64
  3
-----------     -     ----------
 72
   65
 73
    4
 40
0.37
 49
0.2399999999999999
 49
-0.0599999999999999
 49
0.01
 49
-0.0599999999999999
  0
LTYPE
  2
DASH_DOUBLE_DOT
 70
   64
  3
---------    -    -    ---------
 72
   65
 73
    6
 40
0.4397999999999999
 49
0.2399999999999999
 49
-0.0599999999999999
 49
0.0097999999999999
 49
-0.0599999999999999
 49
0.01
 49
-0.0599999999999999
  0
LTYPE
  2
DASH_TRIPLE_DOT
 70
   64
  3
-------    -    -    -    ------
 72
   65
 73
    8
 40
0.51
 49
0.2399999999999999
 49
-0.0599999999999999
 49
0.01
 49
-0.0599999999999999
 49
0.01
 49
-0.0599999999999999
 49
0.01
 49
-0.0599999999999999
  0
LTYPE
  2
DASHED
 70
   64
  3
-------   -------------   ------
 72
   65
 73
    2
 40
0.2066999999999999
 49
0.1653999999999999
 49
-0.0413
  0
LTYPE
  2
DASHED_SPACE
 70
   64
  3
----        --------        ----
 72
   65
 73
    2
 40
0.0826
 49
0.0413
 49
-0.0413
  0
LTYPE
  2
DOTTED
 70
   64
  3
-              --              -
 72
   65
 73
    2
 40
0.0482
 49
0.0068999999999999
 49
-0.0413
  0
LTYPE
  2
DOUBLE_DASH_CHAIN
 70
   64
  3
---------  ----  ----  ---------
 72
   65
 73
    6
 40
1.2403
 49
0.6613999999999999
 49
-0.0826999999999999
 49
0.1653999999999999
 49
-0.0826999999999999
 49
0.1653999999999999
 49
-0.0826999999999999
  0
LTYPE
  2
DOUBLE_DASH_DOT
 70
   64
  3
------   -----------   -   -----
 72
   65
 73
    6
 40
0.6700000000000001
 49
0.2399999999999999
 49
-0.0599999999999999
 49
0.2399999999999999
 49
-0.0599999999999999
 49
0.01
 49
-0.0599999999999999
  0
LTYPE
  2
DOUBLE_DASH_DOUBLE_DOT
 70
   64
  3
-----   ---------   -   -   ----
 72
   65
 73
    8
 40
0.7400000000000002
 49
0.2399999999999999
 49
-0.0599999999999999
 49
0.2399999999999999
 49
-0.0599999999999999
 49
0.01
 49
-0.0599999999999999
 49
0.01
 49
-0.0599999999999999
  0
LTYPE
  2
LONG_DASH_DOTTED
 70
   64
  3
-------------   -   ------------
 72
   65
 73
    4
 40
0.6100000000000001
 49
0.4799999999999999
 49
-0.0599999999999999
 49
0.01
 49
-0.0599999999999999
  0
LTYPE
  2
LONG_DASH_DOUBLE_DOT
 70
   64
  3
-----------   -   -   ----------
 72
   65
 73
    6
 40
0.3345
 49
0.2361999999999999
 49
-0.0294999999999999
 49
0.0048999999999999
 49
-0.0294999999999999
 49
0.0048999999999999
 49
-0.0294999999999999
  0
LTYPE
  2
LONG_DASH_TRIPLE_DOT
 70
   64
  3
---------   -   -   -   --------
 72
   65
 73
    8
 40
0.7500000000000002
 49
0.4799999999999999
 49
-0.0599999999999999
 49
0.01
 49
-0.0599999999999999
 49
0.01
 49
-0.0599999999999999
 49
0.01
 49
-0.0599999999999999
  0
LTYPE
  2
BORDER
 70
   64
  3
----     --------     -     ----
 72
   65
 73
    6
 40
44.459999999999994
 49
12.699999999999999
 49
-6.3499999999999988
 49
12.699999999999999
 49
-6.3499999999999988
 49
0.01
 49
-6.3499999999999988
  0
LTYPE
  2
BORDER2
 70
   64
  3
----     --------     -     ----
 72
   65
 73
    6
 40
22.234999999999999
 49
6.3499999999999988
 49
-3.1749999999999989
 49
6.3499999999999988
 49
-3.1749999999999989
 49
0.01
 49
-3.1749999999999989
  0
LTYPE
  2
BORDERX2
 70
   64
  3
----     --------     -     ----
 72
   65
 73
    6
 40
88.909999999999997
 49
25.399999999999999
 49
-12.699999999999999
 49
25.399999999999999
 49
-12.699999999999999
 49
0.01
 49
-12.699999999999999
  0
ENDTAB
  0
TABLE
  2
STYLE
  5
3
100
AcDbSymbolTable
 70
     1
  0
STYLE
  5
10
100
AcDbSymbolTableRecord
100
AcDbTextStyleTableRecord
  2
STANDARD
 70
     0
 40
0.0
 41
1.0
 50
0.0
 71
     0
 42
0.2
  3
txt
  4
bigfont.shx
  0
STYLE
  5
26
100
AcDbSymbolTableRecord
100
AcDbTextStyleTableRecord
  2
TATEGAKI
 70
    68
 40
0.0
 41
1.0
 50
0.0
 71
     0
 42
1.0
  3
txt
  4
bigfont.shx
  0
ENDTAB
  0
TABLE
  2
LAYER
 70
    5
  0
LAYER
  2
_0-1_Bend_Centerline__ISO_
 70
   64
 62
    7
  6
CONTINUOUS
  0
LAYER
  2
_0-2_Visible__ISO_
 70
   64
 62
    7
  6
CONTINUOUS
  0
LAYER
  2
_0-4_2mm
 70
   64
 62
    7
  6
CONTINUOUS
  0
LAYER
  2
_0-5_0_5
 70
   64
 62
    7
  6
CONTINUOUS
  0
LAYER
  2
ADD_LINE
 70
   64
 62
    7
  6
CONTINUOUS
  0
ENDTAB
  0
ENDSEC
  0
SECTION
  2
BLOCKS
  0
ENDSEC
  0
SECTION
  2
ENTITIES
  0
CIRCLE
  8
_0-2_Visible__ISO_
  6
CONTINUOUS
 62
    7
 10
48.202299373986449
 20
20.275406848835509
 40
3
  0
ARC
  8
_0-2_Visible__ISO_
  6
CONTINUOUS
 62
    7
 10
67.333714630672418
 20
18.278171190170468
 40
1.500000000000004
 50
273.01278750418351
 51
93.012787504183436
  0
LINE
  8
_0-2_Visible__ISO_
  6
CONTINUOUS
 62
    7
 10
67.412552880356515
 20
16.780244446171729
 11
56.427756757698944
 21
16.202097281821324
  0
ARC
  8
_0-2_Visible__ISO_
  6
CONTINUOUS
 62
    7
 10
56.348918508014805
 20
17.700024025820085
 40
1.499999999999994
 50
93.012786296765185
 51
273.01278750418351
  0
LINE
  8
_0-2_Visible__ISO_
  6
CONTINUOUS
 62
    7
 10
56.270080258330665
 20
19.197950769818874
 11
67.254876380988208
 21
19.776097934169258
  0
ARC
  8
_0-2_Visible__ISO_
  6
CONTINUOUS
 62
    7
 10
86.465129887358316
 20
16.280935531505428
 40
1.499999999999996
 50
273.01278750418282
 51
93.012787504182867
  0
LINE
  8
_0-2_Visible__ISO_
  6
CONTINUOUS
 62
    7
 10
86.543968137042512
 20
14.783008787506688
 11
75.559172014384913
 21
14.20486162315629
  0
ARC
  8
_0-2_Visible__ISO_
  6
CONTINUOUS
 62
    7
 10
75.480333764700816
 20
15.702788367155058
 40
1.5000000000000031
 50
93.012787504184161
 51
273.01278750418419
  0
LINE
  8
_0-2_Visible__ISO_
  6
CONTINUOUS
 62
    7
 10
75.401495515016606
 20
17.200715111153819
 11
86.386291637674205
 21
17.778862275504217
  0
ARC
  8
_0-2_Visible__ISO_
  6
CONTINUOUS
 62
    7
 10
105.6491039771671
 20
13.285082043507877
 40
1.5
 50
273.01278750418282
 51
93.012787504182825
  0
LINE
  8
_0-2_Visible__ISO_
  6
CONTINUOUS
 62
    7
 10
105.72794222685121
 20
11.787155299509109
 11
94.743146104193613
 21
11.209008135158719
  0
ARC
  8
_0-2_Visible__ISO_
  6
CONTINUOUS
 62
    7
 10
94.664307854509502
 20
12.706934879157487
 40
1.5000000000000031
 50
93.012787504184161
 51
273.01278750418419
  0
LINE
  8
_0-2_Visible__ISO_
  6
CONTINUOUS
 62
    7
 10
94.58546960482542
 20
14.204861623156255
 11
105.57026572748302
 21
14.783008787506645
  0
ARC
  8
_0-2_Visible__ISO_
  6
CONTINUOUS
 62
    7
 10
124.4651662351165
 20
17.279553360837909
 40
1.499999999999998
 50
273.01278750418351
 51
93.012787504183535
  0
LINE
  8
_0-2_Visible__ISO_
  6
CONTINUOUS
 62
    7
 10
124.54400448480061
 20
15.781626616839148
 11
113.55920836214301
 21
15.20347945248875
  0
ARC
  8
_0-2_Visible__ISO_
  6
CONTINUOUS
 62
    7
 10
113.4803701124589
 20
16.701406196487518
 40
1.5000000000000051
 50
93.012787504183507
 51
273.01278750418351
  0
LINE
  8
_0-2_Visible__ISO_
  6
CONTINUOUS
 62
    7
 10
113.4015318627747
 20
18.199332940486279
 11
124.38632798543242
 21
18.77748010483667
  0
ARC
  8
_0-2_Visible__ISO_
  6
CONTINUOUS
 62
    7
 10
111.595132012448
 20
129.61817191978997
 40
3.9999999999999498
 50
228.47215826151441
 51
268.3949602997248
  0
ARC
  8
_0-2_Visible__ISO_
  6
CONTINUOUS
 62
    7
 10
163.10063345235091
 20
116.28810082758621
 40
4.000000000000008
 50
3.0127875041831635
 51
41.50026492824022
  0
ARC
  8
_0-2_Visible__ISO_
  6
CONTINUOUS
 62
    7
 10
164.45256025065171
 20
126.83326065588291
 40
4.000000000000024
 50
183.01278750418331
 51
221.5002649282404
  0
ARC
  8
_0-2_Visible__ISO_
  6
CONTINUOUS
 62
    7
 10
164.02472706157161
 20
134.96209124840311
 40
3.9999999999999409
 50
153.28153058078976
 51
183.01278750418348
  0
ARC
  8
_0-2_Visible__ISO_
  6
CONTINUOUS
 62
    7
 10
161.45047137819191
 20
147.64118023660939
 40
4.0000000000000107
 50
333.28153058078982
 51
3.0127875041828256
  0
ARC
  8
_0-2_Visible__ISO_
  6
CONTINUOUS
 62
    7
 10
161.30527972390712
 20
150.3998216680215
 40
3.999999999999996
 50
3.0127875041830441
 51
93.012787504183507
  0
LINE
  8
_0-2_Visible__ISO_
  6
CONTINUOUS
 62
    7
 10
166.09644407999892
 20
118.93859487271659
 11
161.4567496230037
 21
124.18276661075249
  0
LINE
  8
_0-2_Visible__ISO_
  6
CONTINUOUS
 62
    7
 10
160.45808893332162
 20
126.6230253233919
 11
160.0302557442416
 21
134.75185591591202
  0
LINE
  8
_0-2_Visible__ISO_
  6
CONTINUOUS
 62
    7
 10
160.45182104974032
 20
136.76051907031291
 11
165.0233773900232
 21
145.84275241469959
  0
LINE
  8
_0-2_Visible__ISO_
  6
CONTINUOUS
 62
    7
 10
165.2997510412371
 20
150.61005700051248
 11
165.444942695522
 21
147.85141556910048
  0
LINE
  8
_0-2_Visible__ISO_
  6
CONTINUOUS
 62
    7
 10
68.907373174600309
 20
144.66370896424479
 11
68.861549321499609
 21
145.534362173158
  0
LINE
  8
_0-2_Visible__ISO_
  6
CONTINUOUS
 62
    7
 10
70.963902646410105
 20
105.5896489998576
 11
70.126704686704414
 21
121.49641023426709
  0
LINE
  8
_0-2_Visible__ISO_
  6
CONTINUOUS
 62
    7
 10
150.14015621558661
 20
109.7568202403405
 11
167.40210436614763
 21
110.66534382721208
  0
LINE
  8
_0-2_Visible__ISO_
  6
CONTINUOUS
 62
    7
 10
167.095104769681
 20
116.49833616007719
 11
167.40210436614763
 21
110.66534382721208
  0
LINE
  8
_0-2_Visible__ISO_
  6
CONTINUOUS
 62
    7
 10
149.3254943021839
 20
153.77484298065508
 11
161.09504439141602
 21
154.39429298535151
  0
LINE
  8
_0-2_Visible__ISO_
  6
CONTINUOUS
 62
    7
 10
72.64578530633861
 20
149.73906882297911
 11
84.415335395570708
 21
150.3585188276756
  0
LINE
  8
_0-2_Visible__ISO_
  6
CONTINUOUS
 62
    7
 10
70.963902646410105
 20
105.5896489998576
 11
88.225850796971017
 21
106.49817258672921
  0
ARC
  8
_0-2_Visible__ISO_
  6
CONTINUOUS
 62
    7
 10
72.856020638829705
 20
145.7445975056491
 40
3.9999999999999951
 50
93.012787504183223
 51
183.01278750418331
  0
ARC
  8
_0-2_Visible__ISO_
  6
CONTINUOUS
 62
    7
 10
72.901844491930007
 20
144.87394429673577
 40
3.9999999999996172
 50
183.01278750418214
 51
209.25852319441839
  0
ARC
  8
_0-2_Visible__ISO_
  6
CONTINUOUS
 62
    7
 10
70.758055805441018
 20
132.33236700891001
 40
3.9999999999997611
 50
3.0127875041820751
 51
29.258523194417471
  0
ARC
  8
_0-2_Visible__ISO_
  6
CONTINUOUS
 62
    7
 10
74.12117600403451
 20
121.7066455667581
 40
4.0000000000001004
 50
131.56580999664382
 51
183.0127875041822
  0
ARC
  8
_0-2_Visible__ISO_
  6
CONTINUOUS
 62
    7
 10
70.904667831876907
 20
129.54673850662471
 40
3.9999999999998859
 50
311.565809996643
 51
3.0127875041840211
  0
LINE
  8
_0-2_Visible__ISO_
  6
CONTINUOUS
 62
    7
 10
69.412151247147008
 20
142.9189401900104
 11
74.247749050224115
 21
134.28737111563538
  0
LINE
  8
_0-2_Visible__ISO_
  6
CONTINUOUS
 62
    7
 10
73.558587281139907
 20
126.55396194349429
 11
71.467256554771311
 21
124.69942212988859
  0
LINE
  8
_0-2_Visible__ISO_
  6
CONTINUOUS
 62
    7
 10
74.752527122770815
 20
132.54260234140099
 11
74.899139149206817
 21
129.7569738391158
  0
ARC
  8
_0-2_Visible__ISO_
  6
CONTINUOUS
 62
    7
 10
160.80307152000262
 20
90.1875336117578
 40
4.0000000000000577
 50
52.727431493748483
 51
87.2702096446952
  0
ARC
  8
_0-2_Visible__ISO_
  6
CONTINUOUS
 62
    7
 10
165.64793137665131
 20
96.553641761124609
 40
3.9999999999999609
 50
232.7274314937481
 51
273.01278750418351
  0
ARC
  8
_0-2_Visible__ISO_
  6
CONTINUOUS
 62
    7
 10
65.108758602661567
 20
82.3360108052659
 40
4.0000000000002016
 50
135.40963097296151
 51
157.13348462196501
  0
ARC
  8
_0-2_Visible__ISO_
  6
CONTINUOUS
 62
    7
 10
53.576614287630278
 20
78.785906105975997
 40
3.9999999999999618
 50
247.13348462196518
 51
294.93939260440061
  0
ARC
  8
_0-2_Visible__ISO_
  6
CONTINUOUS
 62
    7
 10
51.930998635206095
 20
79.4799083209965
 40
3.9999999999999609
 50
174.13587288958431
 51
247.13348462196538
  0
ARC
  8
_0-2_Visible__ISO_
  6
CONTINUOUS
 62
    7
 10
44.431375850796584
 20
84.761539880959191
 40
4.000000000000151
 50
354.13587288958507
 51
20.778572390484626
  0
ARC
  8
_0-2_Visible__ISO_
  6
CONTINUOUS
 62
    7
 10
51.911043168803928
 20
87.599598515296293
 40
4.0000000000000169
 50
102.160328985669
 51
200.77857239048501
  0
ARC
  8
_0-2_Visible__ISO_
  6
CONTINUOUS
 62
    7
 10
51.278571242280577
 20
95.646935897502303
 40
3.99999999999969
 50
282.16032898566777
 51
306.33242090751122
  0
ARC
  8
_0-2_Visible__ISO_
  6
CONTINUOUS
 62
    7
 10
58.334913817251049
 20
90.905913868653798
 40
4.0000000000000373
 50
79.278951203015225
 51
126.33242090751008
  0
ARC
  8
_0-2_Visible__ISO_
  6
CONTINUOUS
 62
    7
 10
61.695983082607626
 20
90.269554305965798
 40
3.999999999999996
 50
315.4096309729606
 51
79.278951203014884
  0
ARC
  8
_0-2_Visible__ISO_
  6
CONTINUOUS
 62
    7
 10
129.09755557373202
 20
69.946458862581991
 40
4.0000000000000853
 50
68.882725177598559
 51
109.14052274029642
  0
ARC
  8
_0-2_Visible__ISO_
  6
CONTINUOUS
 62
    7
 10
141.02747451081612
 20
65.338953324742221
 40
4.0000000000000551
 50
36.554272572943241
 51
68.882725177597806
  0
ARC
  8
_0-2_Visible__ISO_
  6
CONTINUOUS
 62
    7
 10
145.07227470443632
 20
59.883534528096732
 40
3.9999999999999969
 50
322.13427111917213
 51
36.554272572943532
  0
ARC
  8
_0-2_Visible__ISO_
  6
CONTINUOUS
 62
    7
 10
139.22802274549571
 20
52.366991285428341
 40
3.9999999999999938
 50
242.95537723547051
 51
322.13427111917139
  0
ARC
  8
_0-2_Visible__ISO_
  6
CONTINUOUS
 62
    7
 10
129.2299914001087
 20
57.471054734362752
 40
4.00000000000004
 50
199.14052274029723
 51
242.95537723547022
  0
ARC
  8
_0-2_Visible__ISO_
  6
CONTINUOUS
 62
    7
 10
126.96816245323092
 20
63.987917080392293
 40
4.0000000000000044
 50
183.01278750418311
 51
199.14052274029697
  0
ARC
  8
_0-2_Visible__ISO_
  6
CONTINUOUS
 62
    7
 10
126.69838075581032
 20
69.11376933138429
 40
4.0000000000000107
 50
109.1405227402973
 51
183.01278750418314
  0
ARC
  8
_0-2_Visible__ISO_
  6
CONTINUOUS
 62
    7
 10
48.927234978791915
 20
54.067374333633211
 40
3.9999999999999951
 50
3.0127875041830441
 51
130.9239109761678
  0
ARC
  8
_0-2_Visible__ISO_
  6
CONTINUOUS
 62
    7
 10
49.029624015910599
 20
52.121982628446403
 40
3.9999999999964149
 50
358.39496029972372
 51
3.0127875041866483
  0
ARC
  8
_0-2_Visible__ISO_
  6
CONTINUOUS
 62
    7
 10
48.928765399445197
 20
48.522531874983301
 40
4.0000000000000258
 50
289.7371258278331
 51
358.39496029972389
  0
ARC
  8
_0-2_Visible__ISO_
  6
CONTINUOUS
 62
    7
 10
47.556280286217486
 20
48.030107486445971
 40
4.0000000000000089
 50
220.9239109761678
 51
289.73712582783259
  0
ARC
  8
_0-2_Visible__ISO_
  6
CONTINUOUS
 62
    7
 10
47.127537324439658
 20
48.524644719118314
 40
4.0000000000000329
 50
168.00101243763439
 51
220.9239109761678
  0
ARC
  8
_0-2_Visible__ISO_
  6
CONTINUOUS
 62
    7
 10
48.165156773127308
 20
53.406684611168103
 40
3.999999999999865
 50
130.92391097616701
 51
168.00101243763439
  0
ARC
  8
_0-2_Visible__ISO_
  6
CONTINUOUS
 62
    7
 10
120.73963257618362
 20
89.067861633808391
 40
4.000000000000262
 50
82.242742319173459
 51
93.012787504183052
  0
ARC
  8
_0-2_Visible__ISO_
  6
CONTINUOUS
 62
    7
 10
116.36451835573251
 20
96.848665133970385
 40
3.9999999999999969
 50
124.7884602009244
 51
273.01278750418317
  0
ARC
  8
_0-2_Visible__ISO_
  6
CONTINUOUS
 62
    7
 10
124.4906037093649
 20
102.4940146808169
 40
3.9999999999999112
 50
89.636652428472289
 51
124.78846020092489
  0
ARC
  8
_0-2_Visible__ISO_
  6
CONTINUOUS
 62
    7
 10
132.77381174011302
 20
102.4414850897282
 40
4.0000000000000249
 50
40.923910976168081
 51
89.636652428472303
  0
ARC
  8
_0-2_Visible__ISO_
  6
CONTINUOUS
 62
    7
 10
134.82004441826902
 20
100.08124052300049
 40
4.000000000000024
 50
3.0127875041836489
 51
40.923910976168081
  0
ARC
  8
_0-2_Visible__ISO_
  6
CONTINUOUS
 62
    7
 10
134.91576737119422
 20
98.262504417422505
 40
4.0000000000000044
 50
300.29729796961215
 51
3.0127875041832515
  0
ARC
  8
_0-2_Visible__ISO_
  6
CONTINUOUS
 62
    7
 10
130.68006996832702
 20
95.787630654518594
 40
3.9999999999999551
 50
262.24274231917292
 51
300.29729796961249
  0
ARC
  8
_0-2_Visible__ISO_
  6
CONTINUOUS
 62
    7
 10
69.036855853029707
 20
56.617617395502123
 40
4.0000000000001927
 50
309.05803611662361
 51
331.134122982436
  0
ARC
  8
_0-2_Visible__ISO_
  6
CONTINUOUS
 62
    7
 10
83.762426845739114
 20
66.759182379989198
 40
3.9999999999999969
 50
113.17256106765811
 51
151.13412298243654
  0
ARC
  8
_0-2_Visible__ISO_
  6
CONTINUOUS
 62
    7
 10
96.657317038567925
 20
72.278631112537894
 40
3.999999999999964
 50
82.242742319172905
 51
113.17256106765819
  0
ARC
  8
_0-2_Visible__ISO_
  6
CONTINUOUS
 62
    7
 10
98.430604345010209
 20
72.037068514450894
 40
3.999999999999976
 50
41.861271808058049
 51
82.242742319173146
  0
ARC
  8
_0-2_Visible__ISO_
  6
CONTINUOUS
 62
    7
 10
106.7741707442224
 20
62.725357199678314
 40
4.0000000000000009
 50
344.75219972307912
 51
41.86127180805795
  0
ARC
  8
_0-2_Visible__ISO_
  6
CONTINUOUS
 62
    7
 10
105.12276022396901
 20
56.667137015278641
 40
4.0000000000000382
 50
309.05803611662327
 51
344.752199723079
  0
ARC
  8
_0-2_Visible__ISO_
  6
CONTINUOUS
 62
    7
 10
97.140041949989012
 20
50.189460046983726
 40
3.9999999999995328
 50
300.29729796961129
 51
309.05803611662287
  0
ARC
  8
_0-2_Visible__ISO_
  6
CONTINUOUS
 62
    7
 10
80.910353783446411
 20
40.706622723360198
 40
3.999999999999992
 50
262.24274231917241
 51
300.29729796961192
  0
ARC
  8
_0-2_Visible__ISO_
  6
CONTINUOUS
 62
    7
 10
71.915035965384106
 20
41.931992315109383
 40
4.0000000000000631
 50
230.48837149209797
 51
262.24274231917258
  0
ARC
  8
_0-2_Visible__ISO_
  6
CONTINUOUS
 62
    7
 10
67.80864618737651
 20
45.318438804304392
 40
4.0000000000000107
 50
129.05803611662321
 51
230.48837149209783
  0
ARC
  8
_0-2_Visible__ISO_
  6
CONTINUOUS
 62
    7
 10
156.79396378968121
 20
98.387775848368889
 40
4.0000000000000053
 50
157.62311221831311
 51
267.27020964469455
  0
ARC
  8
_0-2_Visible__ISO_
  6
CONTINUOUS
 62
    7
 10
149.94920861865432
 20
102.77618805842799
 40
3.999999999999992
 50
337.62311221831305
 51
84.999983819549627
  0
ARC
  8
_0-2_Visible__ISO_
  6
CONTINUOUS
 62
    7
 10
141.7320602484248
 20
136.9396653318924
 40
3.999999999999917
 50
299.61792242900088
 51
348.23102098769107
  0
ARC
  8
_0-2_Visible__ISO_
  6
CONTINUOUS
 62
    7
 10
128.04260032541961
 20
129.15730468976909
 40
4.0000000000000018
 50
268.39496029972429
 51
299.61792242900083
  0
ARC
  8
_0-2_Visible__ISO_
  6
CONTINUOUS
 62
    7
 10
96.76267696770222
 20
142.75367431289573
 40
4.0000000000040936
 50
222.35888057908781
 51
228.47215826151026
  0
ARC
  8
_0-2_Visible__ISO_
  6
CONTINUOUS
 62
    7
 10
24.304106951761781
 20
125.80516993990459
 40
3.9999999999999969
 50
66.012787504183521
 51
156.01278750418334
  0
ARC
  8
_0-2_Visible__ISO_
  6
CONTINUOUS
 62
    7
 10
8.0427971849066466
 20
89.259721459055598
 40
4.0000000000000124
 50
156.01278750418311
 51
246.01278750418282
  0
ARC
  8
_0-2_Visible__ISO_
  6
CONTINUOUS
 62
    7
 10
170.47214492454751
 20
56.409242602791565
 40
4.0000000000000098
 50
3.0127875041831635
 51
72.308156065460864
  0
ARC
  8
_0-2_Visible__ISO_
  6
CONTINUOUS
 62
    7
 10
167.38052516183802
 20
65.792564501427151
 40
4.0000000000000364
 50
209.6179224290014
 51
252.30815606546039
  0
ARC
  8
_0-2_Visible__ISO_
  6
CONTINUOUS
 62
    7
 10
165.97206349377552
 20
68.270100617354302
 40
4.0000000000000151
 50
173.2501493977768
 51
209.617922429001
  0
ARC
  8
_0-2_Visible__ISO_
  6
CONTINUOUS
 62
    7
 10
166.39652806126571
 20
71.856463756551094
 40
4.0000000000000151
 50
107.96747709794911
 51
173.25014939777682
  0
ARC
  8
_0-2_Visible__ISO_
  6
CONTINUOUS
 62
    7
 10
169.16917041834
 20
81.165758220733693
 40
4.0000000000000044
 50
287.96747709794971
 51
3.0127875041832262
  0
ARC
  8
_0-2_Visible__ISO_
  6
CONTINUOUS
 62
    7
 10
168.77226255760641
 20
88.707007574673597
 40
4.0000000000000133
 50
3.0127875041834082
 51
93.012787504182995
  0
CIRCLE
  8
_0-2_Visible__ISO_
  6
CONTINUOUS
 62
    7
 10
73.355329553495906
 20
145.77087692221039
 40
1.5
  0
CIRCLE
  8
_0-2_Visible__ISO_
  6
CONTINUOUS
 62
    7
 10
75.247447545915406
 20
109.82063506624009
 40
1.5
  0
CIRCLE
  8
_0-2_Visible__ISO_
  6
CONTINUOUS
 62
    7
 10
160.80597080924082
 20
150.37354225146009
 40
1.5
  0
CIRCLE
  8
_0-2_Visible__ISO_
  6
CONTINUOUS
 62
    7
 10
162.69808880166022
 20
114.42330039548979
 40
1.5
  0
LINE
  8
_0-2_Visible__ISO_
  6
CONTINUOUS
 62
    7
 10
61.423107967245457
 20
83.890352914860301
 11
58.345215603385057
 21
76.592065184905891
  0
LINE
  8
_0-2_Visible__ISO_
  6
CONTINUOUS
 62
    7
 10
58.345215603385057
 20
76.592065184905891
 11
55.263251625092465
 21
75.158888806337302
  0
LINE
  8
_0-2_Visible__ISO_
  6
CONTINUOUS
 62
    7
 10
52.022272178035905
 20
75.1002554705601
 11
50.376656525611764
 21
75.794257685580604
  0
LINE
  8
_0-2_Visible__ISO_
  6
CONTINUOUS
 62
    7
 10
47.951930712960007
 20
79.888587253842402
 11
48.410443773042857
 21
84.352860948113303
  0
LINE
  8
_0-2_Visible__ISO_
  6
CONTINUOUS
 62
    7
 10
51.068451196637184
 20
91.509846431789697
 11
52.121163214447165
 21
91.736687981009297
  0
LINE
  8
_0-2_Visible__ISO_
  6
CONTINUOUS
 62
    7
 10
53.64844772144464
 20
92.424563250910595
 11
55.965037338086844
 21
94.12828651524579
  0
LINE
  8
_0-2_Visible__ISO_
  6
CONTINUOUS
 62
    7
 10
59.079024161684998
 20
94.836091955624809
 11
62.440093427041603
 21
94.199732392936696
  0
LINE
  8
_0-2_Visible__ISO_
  6
CONTINUOUS
 62
    7
 10
64.544559332105706
 20
87.461420877726397
 11
62.260182353163302
 21
85.144144233505301
  0
LINE
  8
_0-2_Visible__ISO_
  6
CONTINUOUS
 62
    7
 10
125.386836207193
 20
72.892638328451099
 11
127.7860110251147
 21
73.7253278596488
  0
LINE
  8
_0-2_Visible__ISO_
  6
CONTINUOUS
 62
    7
 10
130.5386678921443
 20
73.677838672480902
 11
142.46858682922851
 21
69.070333134641004
  0
LINE
  8
_0-2_Visible__ISO_
  6
CONTINUOUS
 62
    7
 10
144.24064676302712
 20
67.721289169584892
 11
148.28544695664712
 21
62.265870372939403
  0
LINE
  8
_0-2_Visible__ISO_
  6
CONTINUOUS
 62
    7
 10
148.2300802027589
 20
57.428282110367832
 11
142.38582824381831
 21
49.911738867699469
  0
LINE
  8
_0-2_Visible__ISO_
  6
CONTINUOUS
 62
    7
 10
137.409285583556
 20
48.804380566337656
 11
127.41125423816911
 21
53.908444015272053
  0
LINE
  8
_0-2_Visible__ISO_
  6
CONTINUOUS
 62
    7
 10
125.45112240304192
 20
56.159510185745418
 11
123.18929345616422
 21
62.676372531775002
  0
LINE
  8
_0-2_Visible__ISO_
  6
CONTINUOUS
 62
    7
 10
122.97369113590091
 20
63.777681747901241
 11
122.70390943848022
 21
68.903533998893295
  0
LINE
  8
_0-2_Visible__ISO_
  6
CONTINUOUS
 62
    7
 10
52.921706296121968
 20
54.277609666124263
 11
53.024095333237057
 21
52.332217960937498
  0
LINE
  8
_0-2_Visible__ISO_
  6
CONTINUOUS
 62
    7
 10
53.028054636722544
 20
52.009944373708308
 11
52.927196020260766
 21
48.41049362024512
  0
LINE
  8
_0-2_Visible__ISO_
  6
CONTINUOUS
 62
    7
 10
50.279586320791935
 20
44.757524193921796
 11
48.907101207564196
 21
44.26509980538448
  0
LINE
  8
_0-2_Visible__ISO_
  6
CONTINUOUS
 62
    7
 10
44.533959632319821
 20
45.409882712686368
 11
44.105216670541935
 21
45.904419945358683
  0
LINE
  8
_0-2_Visible__ISO_
  6
CONTINUOUS
 62
    7
 10
43.214932226609051
 20
49.356222345338708
 11
44.252551675296871
 21
54.23826223738844
  0
LINE
  8
_0-2_Visible__ISO_
  6
CONTINUOUS
 62
    7
 10
45.544931999367805
 20
56.429005265065697
 11
46.307010205032299
 21
57.089694987530862
  0
LINE
  8
_0-2_Visible__ISO_
  6
CONTINUOUS
 62
    7
 10
120.5293972436925
 20
93.0623329511387
 11
116.57475368822352
 21
92.854193816640404
  0
LINE
  8
_0-2_Visible__ISO_
  6
CONTINUOUS
 62
    7
 10
114.08232567369311
 20
100.1337216878285
 11
122.20841102732552
 21
105.7790712346749
  0
LINE
  8
_0-2_Visible__ISO_
  6
CONTINUOUS
 62
    7
 10
124.51596998515132
 20
106.49393424901469
 11
132.79917801589951
 21
106.44140465792618
  0
LINE
  8
_0-2_Visible__ISO_
  6
CONTINUOUS
 62
    7
 10
135.7961323940107
 20
105.06170986348779
 11
137.8423650721667
 21
102.70146529676019
  0
LINE
  8
_0-2_Visible__ISO_
  6
CONTINUOUS
 62
    7
 10
138.81451573559912
 20
100.29147585549158
 11
138.9102386885242
 21
98.472739749913487
  0
LINE
  8
_0-2_Visible__ISO_
  6
CONTINUOUS
 62
    7
 10
136.93371499559862
 20
94.808827046103502
 11
132.69801759273142
 21
92.333953283199691
  0
LINE
  8
_0-2_Visible__ISO_
  6
CONTINUOUS
 62
    7
 10
130.14016419793771
 20
91.824235423267993
 11
121.27953834657291
 21
93.031256865059291
  0
LINE
  8
_0-2_Visible__ISO_
  6
CONTINUOUS
 62
    7
 10
72.539864631445511
 20
54.686573766180572
 11
80.259418067323409
 21
68.690226009310592
  0
LINE
  8
_0-2_Visible__ISO_
  6
CONTINUOUS
 62
    7
 10
82.18842008260431
 20
70.436477950052392
 11
95.083310275433206
 21
75.955926682601103
  0
LINE
  8
_0-2_Visible__ISO_
  6
CONTINUOUS
 62
    7
 10
97.197222808957321
 20
76.242026343788496
 11
98.97051011539952
 21
76.000463745701595
  0
LINE
  8
_0-2_Visible__ISO_
  6
CONTINUOUS
 62
    7
 10
101.4096554938225
 20
74.7063857029394
 11
109.75322189303472
 21
65.394674388166763
  0
LINE
  8
_0-2_Visible__ISO_
  6
CONTINUOUS
 62
    7
 10
110.63336043030282
 20
61.673380504665161
 11
108.98194991004942
 21
55.615160320265474
  0
LINE
  8
_0-2_Visible__ISO_
  6
CONTINUOUS
 62
    7
 10
107.64318924710531
 20
53.561104571898184
 11
99.660470973125115
 21
47.083427603603681
  0
LINE
  8
_0-2_Visible__ISO_
  6
CONTINUOUS
 62
    7
 10
99.157989574393099
 20
46.735782675665163
 11
82.92830140785091
 21
37.252945352041252
  0
LINE
  8
_0-2_Visible__ISO_
  6
CONTINUOUS
 62
    7
 10
80.370448013057114
 20
36.743227492109568
 11
71.375130194994711
 21
37.968597083858683
  0
LINE
  8
_0-2_Visible__ISO_
  6
CONTINUOUS
 62
    7
 10
69.370096714094615
 20
38.846010428051926
 11
65.263706936087118
 21
42.232456917246992
  0
LINE
  8
_0-2_Visible__ISO_
  6
CONTINUOUS
 62
    7
 10
65.288217164240166
 20
48.424471247684821
 11
71.557284876166207
 21
53.511584952121552
  0
LINE
  8
_0-2_Visible__ISO_
  6
CONTINUOUS
 62
    7
 10
160.99357474762732
 20
94.182994601464102
 11
156.60346056205651
 21
94.392314858662601
  0
LINE
  8
_0-2_Visible__ISO_
  6
CONTINUOUS
 62
    7
 10
153.09516508489202
 20
99.910565440351505
 11
153.64800732344341
 21
101.2533984664454
  0
LINE
  8
_0-2_Visible__ISO_
  6
CONTINUOUS
 62
    7
 10
149.3254943021839
 20
153.77484298065508
 11
145.64797210124971
 21
136.12380115146482
  0
LINE
  8
_0-2_Visible__ISO_
  6
CONTINUOUS
 62
    7
 10
143.70891554890531
 20
133.46230381474152
 11
130.01945562590012
 21
125.6799431726182
  0
LINE
  8
_0-2_Visible__ISO_
  6
CONTINUOUS
 62
    7
 10
127.93056207068142
 20
125.15887406895361
 11
111.48309375770992
 21
125.61974129897449
  0
LINE
  8
_0-2_Visible__ISO_
  6
CONTINUOUS
 62
    7
 10
108.9431963723369
 20
126.62363733813829
 11
94.110741327588102
 21
139.75913973124102
  0
LINE
  8
_0-2_Visible__ISO_
  6
CONTINUOUS
 62
    7
 10
93.806920661603499
 20
140.05858532382848
 11
84.415335395570708
 21
150.3585188276756
  0
LINE
  8
_0-2_Visible__ISO_
  6
CONTINUOUS
 62
    7
 10
171.6877347097342
 20
60.220061605860323
 11
166.16493537665121
 21
61.981745498358421
  0
LINE
  8
_0-2_Visible__ISO_
  6
CONTINUOUS
 62
    7
 10
163.903163644687
 20
63.815709200946571
 11
162.4947019766245
 21
66.293245316873708
  0
LINE
  8
_0-2_Visible__ISO_
  6
CONTINUOUS
 62
    7
 10
161.9997884400621
 20
68.740239849547095
 11
162.42425300755241
 21
72.326602988744
  0
LINE
  8
_0-2_Visible__ISO_
  6
CONTINUOUS
 62
    7
 10
165.16261968218052
 20
75.661390840218203
 11
170.40307879742522
 21
77.360831137066697
  0
CIRCLE
  8
_0-2_Visible__ISO_
  6
CONTINUOUS
 62
    7
 10
169.29785088883401
 20
40.6682341004677
 40
3
  0
CIRCLE
  8
_0-2_Visible__ISO_
  6
CONTINUOUS
 62
    7
 10
18.813789980719406
 20
108.5466526351798
 40
3
  0
CIRCLE
  8
_0-2_Visible__ISO_
  6
CONTINUOUS
 62
    7
 10
166.98526223143242
 20
84.607418591098096
 40
3
  0
ARC
  8
_0-2_Visible__ISO_
  6
CONTINUOUS
 62
    7
 10
14.949603986362575
 20
94.942680178539902
 40
1.499999999999956
 50
66.012787504184288
 51
246.01278750418419
  0
LINE
  8
_0-2_Visible__ISO_
  6
CONTINUOUS
 62
    7
 10
15.559403102619669
 20
96.313134496571692
 11
41.141217039213899
 21
84.930217659773092
  0
ARC
  8
_0-2_Visible__ISO_
  6
CONTINUOUS
 62
    7
 10
40.531417922956862
 20
83.559763341741302
 40
1.4999999999999869
 50
246.0127875041839
 51
66.012787504183933
  0
LINE
  8
_0-2_Visible__ISO_
  6
CONTINUOUS
 62
    7
 10
39.921618806699755
 20
82.189309023709498
 11
14.339804870105539
 21
93.572225860508098
  0
ARC
  8
_0-2_Visible__ISO_
  6
CONTINUOUS
 62
    7
 10
24.706389846475645
 20
116.86994926704919
 40
1.500000000000002
 50
66.012787504183578
 51
246.01278750418359
  0
LINE
  8
_0-2_Visible__ISO_
  6
CONTINUOUS
 62
    7
 10
25.316188962732724
 20
118.2404035850811
 11
50.898002899326997
 21
106.8574867482824
  0
ARC
  8
_0-2_Visible__ISO_
  6
CONTINUOUS
 62
    7
 10
50.288203783069932
 20
105.48703243025069
 40
1.499999999999994
 50
246.01278750418356
 51
66.012787504183535
  0
LINE
  8
_0-2_Visible__ISO_
  6
CONTINUOUS
 62
    7
 10
49.678404666812852
 20
104.11657811221879
 11
24.096590730218594
 21
115.4994949490174
  0
ARC
  8
_0-2_Visible__ISO_
  6
CONTINUOUS
 62
    7
 10
64.705772974534284
 20
68.209062656795993
 40
1.499999999999978
 50
273.01278750418362
 51
93.012787504183635
  0
LINE
  8
_0-2_Visible__ISO_
  6
CONTINUOUS
 62
    7
 10
64.784611224218452
 20
66.711135912797204
 11
53.799815101560824
 21
66.132988748446806
  0
ARC
  8
_0-2_Visible__ISO_
  6
CONTINUOUS
 62
    7
 10
53.720976851876671
 20
67.630915492445496
 40
1.50000000000001
 50
93.012787504183464
 51
273.01278750418351
  0
LINE
  8
_0-2_Visible__ISO_
  6
CONTINUOUS
 62
    7
 10
53.642138602192517
 20
69.128842236444299
 11
64.626934724850145
 21
69.706989400794697
  0
ARC
  8
_0-2_Visible__ISO_
  6
CONTINUOUS
 62
    7
 10
82.786011568765005
 20
86.184183584781096
 40
1.499999999999996
 50
273.01278750418282
 51
93.012787504182867
  0
LINE
  8
_0-2_Visible__ISO_
  6
CONTINUOUS
 62
    7
 10
82.864849818449116
 20
84.686256840782292
 11
71.880053695791517
 21
84.108109676431894
  0
ARC
  8
_0-2_Visible__ISO_
  6
CONTINUOUS
 62
    7
 10
71.801215446107406
 20
85.606036420430698
 40
1.500000000000004
 50
93.012787504182853
 51
273.01278750418282
  0
LINE
  8
_0-2_Visible__ISO_
  6
CONTINUOUS
 62
    7
 10
71.72237719642321
 20
87.103963164429501
 11
82.707173319080809
 21
87.682110328779899
  0
ARC
  8
_0-2_Visible__ISO_
  6
CONTINUOUS
 62
    7
 10
101.96998565857371
 20
83.188330096783503
 40
1.4999999999999869
 50
273.01278750418288
 51
93.012787504182867
  0
LINE
  8
_0-2_Visible__ISO_
  6
CONTINUOUS
 62
    7
 10
102.0488239082579
 20
81.690403352784799
 11
91.064027785600217
 21
81.112256188434401
  0
ARC
  8
_0-2_Visible__ISO_
  6
CONTINUOUS
 62
    7
 10
90.985189535916106
 20
82.61018293243319
 40
1.499999999999996
 50
93.012786296765185
 51
273.01278750418351
  0
LINE
  8
_0-2_Visible__ISO_
  6
CONTINUOUS
 62
    7
 10
90.90635128623201
 20
84.108109676431894
 11
101.89114740888962
 21
84.686256840782292
  0
ARC
  8
_0-2_Visible__ISO_
  6
CONTINUOUS
 62
    7
 10
120.7860479165231
 20
87.182801414113598
 40
1.4999999999999869
 50
273.01278750418351
 51
93.012787504183535
  0
LINE
  8
_0-2_Visible__ISO_
  6
CONTINUOUS
 62
    7
 10
120.86488616620721
 20
85.684874670114795
 11
109.88009004354961
 21
85.106727505764397
  0
ARC
  8
_0-2_Visible__ISO_
  6
CONTINUOUS
 62
    7
 10
109.8012517938655
 20
86.6046542497632
 40
1.499999999999996
 50
93.012787504183507
 51
273.01278750418351
  0
LINE
  8
_0-2_Visible__ISO_
  6
CONTINUOUS
 62
    7
 10
109.72241354418131
 20
88.10258099376189
 11
120.70720966683902
 21
88.680728158112302
  0
ARC
  8
_0-2_Visible__ISO_
  6
CONTINUOUS
 62
    7
 10
142.4928459962245
 20
36.253292118155571
 40
1.5
 50
273.01278750418282
 51
93.012787504182867
  0
LINE
  8
_0-2_Visible__ISO_
  6
CONTINUOUS
 62
    7
 10
142.57168424590861
 20
34.75536537415681
 11
131.58688812325101
 21
34.177218209806412
  0
ARC
  8
_0-2_Visible__ISO_
  6
CONTINUOUS
 62
    7
 10
131.50804987356682
 20
35.675144953805173
 40
1.5000000000000051
 50
93.012787504182825
 51
273.01278750418282
  0
LINE
  8
_0-2_Visible__ISO_
  6
CONTINUOUS
 62
    7
 10
131.42921162388271
 20
37.173071697803948
 11
142.41400774654031
 21
37.751218862154332
  0
ARC
  8
_0-2_Visible__ISO_
  6
CONTINUOUS
 62
    7
 10
139.86490434008641
 20
86.184183584780996
 40
1.499999999999996
 50
273.01278750418282
 51
93.012787504182867
  0
LINE
  8
_0-2_Visible__ISO_
  6
CONTINUOUS
 62
    7
 10
139.94374258977052
 20
84.686256840782292
 11
128.95894646711281
 21
84.108109676431894
  0
ARC
  8
_0-2_Visible__ISO_
  6
CONTINUOUS
 62
    7
 10
128.8801082174287
 20
85.606036420430598
 40
1.5000000000000051
 50
93.012787504182825
 51
273.01278750418282
  0
LINE
  8
_0-2_Visible__ISO_
  6
CONTINUOUS
 62
    7
 10
128.80126996774462
 20
87.103963164429402
 11
139.78606609040222
 21
87.6821103287798
  0
ARC
  8
_0-2_Visible__ISO_
  6
CONTINUOUS
 62
    7
 10
158.838643097404
 20
87.182801414113499
 40
1.499999999999996
 50
273.01278750418282
 51
93.012787504182867
  0
LINE
  8
_0-2_Visible__ISO_
  6
CONTINUOUS
 62
    7
 10
158.91748134708811
 20
85.684874670114795
 11
147.9326852244306
 21
85.106727505764397
  0
ARC
  8
_0-2_Visible__ISO_
  6
CONTINUOUS
 62
    7
 10
147.8538469747464
 20
86.604654249763101
 40
1.5000000000000051
 50
93.012787504182825
 51
273.01278750418282
  0
LINE
  8
_0-2_Visible__ISO_
  6
CONTINUOUS
 62
    7
 10
147.77500872506221
 20
88.10258099376189
 11
158.75980484771992
 21
88.680728158112302
  0
ARC
  8
_0-2_Visible__ISO_
  6
CONTINUOUS
 62
    7
 10
161.46658475354212
 20
37.251909947488059
 40
1.499999999999998
 50
273.01278750418282
 51
93.012787504182867
  0
LINE
  8
_0-2_Visible__ISO_
  6
CONTINUOUS
 62
    7
 10
161.54542300322632
 20
35.753983203489298
 11
150.56062688056872
 21
35.1758360391389
  0
ARC
  8
_0-2_Visible__ISO_
  6
CONTINUOUS
 62
    7
 10
150.48178863088452
 20
36.673762783137661
 40
1.5000000000000031
 50
93.012787504182825
 51
273.01278750418282
  0
LINE
  8
_0-2_Visible__ISO_
  6
CONTINUOUS
 62
    7
 10
150.40295038120041
 20
38.171689527136451
 11
161.38774650385801
 21
38.749836691486834
  0
LINE
  8
_0-2_Visible__ISO_
  6
CONTINUOUS
 62
    7
 10
53.431073384903797
 20
116.80485797936829
 11
61.920154819027857
 21
102.1095100209785
  0
LINE
  8
_0-2_Visible__ISO_
  6
CONTINUOUS
 62
    7
 10
25.930237928447298
 20
129.45971478798947
 11
52.512328889961097
 21
117.63171339946039
  0
LINE
  8
_0-2_Visible__ISO_
  6
CONTINUOUS
 62
    7
 10
4.3882523368217505
 20
90.885852435741199
 11
20.649562103676899
 21
127.4313009165901
  0
LINE
  8
_0-2_Visible__ISO_
  6
CONTINUOUS
 62
    7
 10
37.480297416942705
 20
71.783063309143898
 11
6.4166662082211019
 21
85.605176610970801
  0
LINE
  8
_0-2_Visible__ISO_
  6
CONTINUOUS
 62
    7
 10
40.633827404308477
 20
11.865993549193334
 11
37.480297416942705
 21
71.783063309143898
  0
LINE
  8
_0-2_Visible__ISO_
  6
CONTINUOUS
 62
    7
 10
52.617241356298592
 20
12.496699546666477
 11
40.633827404308477
 21
11.865993549193334
  0
LINE
  8
_0-2_Visible__ISO_
  6
CONTINUOUS
 62
    7
 10
71.101804275372416
 20
10.566992428741166
 11
52.617241356298592
 21
12.496699546666477
  0
LINE
  8
_0-2_Visible__ISO_
  6
CONTINUOUS
 62
    7
 10
77.439951555299913
 20
5.377298439917567
 11
72.232071063179006
 21
10.064390882826459
  0
LINE
  8
_0-2_Visible__ISO_
  6
CONTINUOUS
 62
    7
 10
130.9374932211951
 20
7.6063613125049585
 11
78.882998684790309
 21
4.8666510737468656
  0
LINE
  8
_0-2_Visible__ISO_
  6
CONTINUOUS
 62
    7
 10
146.75011147916831
 20
31.470438303984068
 11
132.53194566261442
 21
8.549338250962947
  0
LINE
  8
_0-2_Visible__ISO_
  6
CONTINUOUS
 62
    7
 10
175.7100285298111
 20
32.99464446454418
 11
146.75011147916831
 21
31.470438303984068
  0
LINE
  8
_0-2_Visible__ISO_
  6
CONTINUOUS
 62
    7
 10
174.4666162418776
 20
56.619477935282632
 11
175.7100285298111
 21
32.99464446454418
  0
LINE
  8
_0-2_Visible__ISO_
  6
CONTINUOUS
 62
    7
 10
172.76673387493642
 20
88.917242907164692
 11
173.1636417356701
 21
81.375993553224802
  0
LINE
  8
_0-2_Visible__ISO_
  6
CONTINUOUS
 62
    7
 10
165.85816670914241
 20
92.559170443794599
 11
168.56202722511532
 21
92.701478892003692
  0
LINE
  8
_0-2_Visible__ISO_
  6
CONTINUOUS
 62
    7
 10
150.29783271495492
 20
106.76096675234301
 11
150.14015621558661
 21
109.7568202403405
  0
LINE
  8
_0-2_Visible__ISO_
  6
CONTINUOUS
 62
    7
 10
88.225850796971017
 20
106.49817258672921
 11
88.383527296339309
 21
103.50231909873169
  0
LINE
  8
_0-2_Visible__ISO_
  6
CONTINUOUS
 62
    7
 10
61.920154819027857
 20
102.1095100209785
 11
88.383527296339309
 21
103.50231909873169
  0
ARC
  8
_0-2_Visible__ISO_
  6
CONTINUOUS
 62
    7
 10
51.69926340161831
 20
115.80444097541799
 40
2.0000000000000191
 50
30.013795338623826
 51
66.012787504183024
  0
ARC
  8
_0-2_Visible__ISO_
  6
CONTINUOUS
 62
    7
 10
70.894141599934017
 20
8.5778025903321264
 40
1.9999999999999869
 50
48.012787504182796
 51
84.040160889286426
  0
ARC
  8
_0-2_Visible__ISO_
  6
CONTINUOUS
 62
    7
 10
78.777881018544917
 20
6.8638867324119417
 40
2.0000000000000422
 50
228.01278750418368
 51
273.01278750418294
  0
ARC
  8
_0-2_Visible__ISO_
  6
CONTINUOUS
 62
    7
 10
130.83237555494961
 20
9.6035969711699778
 40
2.0000000000000022
 50
273.01278750418351
 51
328.18829834722635
  0
LINE
  8
_0-1_Bend_Centerline__ISO_
  6
CHAIN
 62
    7
 10
152.7137247734687
 20
153.95317090019637
 11
155.0263134308702
 21
110.01398640956599
  0
LINE
  8
_0-1_Bend_Centerline__ISO_
  6
CHAIN
 62
    7
 10
83.339693581687513
 20
106.24100641750378
 11
81.027104924285908
 21
150.18019090813431
  0
LINE
  8
_0-4_2mm
  6
CONTINUOUS
 62
    7
 10
36.513887681971539
 20
71.11855068315559
 11
6.0101334640497157
 21
84.691540398949584
  0
LINE
  8
_0-4_2mm
  6
CONTINUOUS
 62
    7
 10
3.4746161248005336
 20
91.292385179912571
 11
19.735925891655683
 21
127.83783366076149
  0
LINE
  8
_0-4_2mm
  6
CONTINUOUS
 62
    7
 10
26.336770672618684
 20
130.3733510000107
 11
52.918861634132483
 21
118.54534961148161
  0
ARC
  8
_0-4_2mm
  6
CONTINUOUS
 62
    7
 10
8.0427971849066466
 20
89.259721459055598
 40
5.0000000000000124
 50
156.01278750418311
 51
246.01278750418282
  0
ARC
  8
_0-4_2mm
  6
CONTINUOUS
 62
    7
 10
24.304106951761781
 20
125.80516993990459
 40
4.9999999999999964
 50
66.012787504183521
 51
156.01278750418334
  0
LINE
  8
_0-4_2mm
  6
CONTINUOUS
 62
    7
 10
69.128086857371898
 20
121.44385140114433
 11
70.017843650200348
 21
104.53847233740233
  0
LINE
  8
_0-4_2mm
  6
CONTINUOUS
 62
    7
 10
70.017843650200348
 20
104.53847233740233
 11
87.279791800761274
 21
105.44699592427393
  0
LINE
  8
_0-4_2mm
  6
CONTINUOUS
 62
    7
 10
87.279791800761274
 20
105.44699592427393
 11
87.332350633884033
 21
104.44837809494143
  0
LINE
  8
_0-4_2mm
  6
CONTINUOUS
 62
    7
 10
87.332350633884033
 20
104.44837809494143
 11
62.479537697796118
 21
103.1403353088316
  0
LINE
  8
_0-4_2mm
  6
CONTINUOUS
 62
    7
 10
62.479537697796118
 20
103.1403353088316
 11
54.296978376546519
 21
117.30506648134343
  0
ARC
  8
_0-4_2mm
  6
CONTINUOUS
 62
    7
 10
51.69926340161831
 20
115.80444097541799
 40
3.0000000000000191
 50
30.013795338623826
 51
66.012787504183024
  0
ARC
  8
_0-4_2mm
  6
CONTINUOUS
 62
    7
 10
74.12117600403451
 20
121.7066455667581
 40
5.0000000000001004
 50
131.56580999664382
 51
183.0127875041822
  0
LINE
  8
_0-4_2mm
  6
CONTINUOUS
 62
    7
 10
73.753909293438312
 20
132.49004350827826
 11
73.900521319874315
 21
129.70441500599304
  0
LINE
  8
_0-4_2mm
  6
CONTINUOUS
 62
    7
 10
72.895107418824111
 20
127.30215608427689
 11
70.803776692455514
 21
125.44761627067119
  0
ARC
  8
_0-4_2mm
  6
CONTINUOUS
 62
    7
 10
70.758055805441018
 20
132.33236700891001
 40
2.9999999999997611
 50
3.0127875041820751
 51
29.258523194417471
  0
ARC
  8
_0-4_2mm
  6
CONTINUOUS
 62
    7
 10
70.904667831876907
 20
129.54673850662471
 40
2.9999999999998859
 50
311.565809996643
 51
3.0127875041840211
  0
LINE
  8
_0-4_2mm
  6
CONTINUOUS
 62
    7
 10
68.539727935951163
 20
142.43018916332903
 11
73.375325739028284
 21
133.79862008895404
  0
LINE
  8
_0-4_2mm
  6
CONTINUOUS
 62
    7
 10
67.908755345267792
 20
144.61115013112203
 11
67.862931492167093
 21
145.48180334003521
  0
ARC
  8
_0-4_2mm
  6
CONTINUOUS
 62
    7
 10
72.856020638829705
 20
145.7445975056491
 40
4.9999999999999947
 50
93.012787504183223
 51
183.01278750418331
  0
ARC
  8
_0-4_2mm
  6
CONTINUOUS
 62
    7
 10
72.901844491930007
 20
144.87394429673577
 40
4.9999999999996172
 50
183.01278750418214
 51
209.25852319441839
  0
LINE
  8
_0-4_2mm
  6
CONTINUOUS
 62
    7
 10
94.545859738127433
 20
140.73235757109455
 11
84.8353959205227
 21
151.38201136006467
  0
LINE
  8
_0-4_2mm
  6
CONTINUOUS
 62
    7
 10
84.8353959205227
 20
151.38201136006467
 11
72.593226473215836
 21
150.7376866523116
  0
LINE
  8
_0-4_2mm
  6
CONTINUOUS
 62
    7
 10
161.04248555829327
 20
155.392910814684
 11
148.50364304763451
 21
154.73297173517568
  0
LINE
  8
_0-4_2mm
  6
CONTINUOUS
 62
    7
 10
148.50364304763451
 20
154.73297173517568
 11
144.66899413804344
 21
136.3277671965717
  0
LINE
  8
_0-4_2mm
  6
CONTINUOUS
 62
    7
 10
143.21470172378517
 20
134.33164419402922
 11
129.52524180077998
 21
126.54928355190592
  0
LINE
  8
_0-4_2mm
  6
CONTINUOUS
 62
    7
 10
127.95857163436595
 20
126.1584817241575
 11
111.51110332139444
 21
126.61934895417838
  0
LINE
  8
_0-4_2mm
  6
CONTINUOUS
 62
    7
 10
109.60618028236469
 20
127.37227098355123
 11
94.773725237615892
 21
140.50777337665394
  0
ARC
  8
_0-4_2mm
  6
CONTINUOUS
 62
    7
 10
111.595132012448
 20
129.61817191978997
 40
2.9999999999999498
 50
228.47215826151441
 51
268.3949602997248
  0
ARC
  8
_0-4_2mm
  6
CONTINUOUS
 62
    7
 10
141.7320602484248
 20
136.9396653318924
 40
2.999999999999917
 50
299.61792242900088
 51
348.23102098769107
  0
ARC
  8
_0-4_2mm
  6
CONTINUOUS
 62
    7
 10
128.04260032541961
 20
129.15730468976909
 40
3.0000000000000018
 50
268.39496029972429
 51
299.61792242900083
  0
LINE
  8
_0-4_2mm
  6
CONTINUOUS
 62
    7
 10
166.29836887056962
 20
150.6626158336353
 11
166.44356052485452
 21
147.9039744022233
  0
ARC
  8
_0-4_2mm
  6
CONTINUOUS
 62
    7
 10
161.45047137819191
 20
147.64118023660939
 40
5.0000000000000107
 50
333.28153058078982
 51
3.0127875041828256
  0
ARC
  8
_0-4_2mm
  6
CONTINUOUS
 62
    7
 10
161.30527972390712
 20
150.3998216680215
 40
4.9999999999999964
 50
3.0127875041830441
 51
93.012787504183507
  0
LINE
  8
_0-4_2mm
  6
CONTINUOUS
 62
    7
 10
166.84539673691091
 20
119.6012183839992
 11
162.20570227991567
 21
124.8453901220351
  0
LINE
  8
_0-4_2mm
  6
CONTINUOUS
 62
    7
 10
161.45670676265414
 20
126.67558415651467
 11
161.02887357357412
 21
134.80441474903478
  0
LINE
  8
_0-4_2mm
  6
CONTINUOUS
 62
    7
 10
161.34504755269816
 20
136.31091211483545
 11
165.91660389298104
 21
145.39314545922213
  0
ARC
  8
_0-4_2mm
  6
CONTINUOUS
 62
    7
 10
164.45256025065171
 20
126.83326065588291
 40
3.000000000000024
 50
183.01278750418331
 51
221.5002649282404
  0
ARC
  8
_0-4_2mm
  6
CONTINUOUS
 62
    7
 10
164.02472706157161
 20
134.96209124840311
 40
2.9999999999999409
 50
153.28153058078976
 51
183.01278750418348
  0
LINE
  8
_0-4_2mm
  6
CONTINUOUS
 62
    7
 10
173.76535170426894
 20
88.969801740287451
 11
174.16225956500261
 21
81.428552386347562
  0
LINE
  8
_0-4_2mm
  6
CONTINUOUS
 62
    7
 10
165.80560787601965
 20
93.557788273127102
 11
168.50946839199256
 21
93.700096721336195
  0
LINE
  8
_0-4_2mm
  6
CONTINUOUS
 62
    7
 10
168.09372259901352
 20
116.55089499319996
 11
168.4532810286029
 21
109.71928483100234
  0
LINE
  8
_0-4_2mm
  6
CONTINUOUS
 62
    7
 10
168.4532810286029
 20
109.71928483100234
 11
151.19133287804189
 21
108.81076124413076
  0
ARC
  8
_0-4_2mm
  6
CONTINUOUS
 62
    7
 10
160.80307152000262
 20
90.1875336117578
 40
5.0000000000000577
 50
52.727431493748483
 51
87.2702096446952
  0
ARC
  8
_0-4_2mm
  6
CONTINUOUS
 62
    7
 10
169.16917041834
 20
81.165758220733693
 40
5.0000000000000044
 50
287.96747709794971
 51
3.0127875041832262
  0
ARC
  8
_0-4_2mm
  6
CONTINUOUS
 62
    7
 10
168.77226255760641
 20
88.707007574673597
 40
5.0000000000000133
 50
3.0127875041834082
 51
93.012787504182995
  0
ARC
  8
_0-4_2mm
  6
CONTINUOUS
 62
    7
 10
163.10063345235091
 20
116.28810082758621
 40
5.000000000000008
 50
3.0127875041831635
 51
41.50026492824022
  0
LINE
  8
_0-4_2mm
  6
CONTINUOUS
 62
    7
 10
151.19133287804189
 20
108.81076124413076
 11
151.25491552890625
 21
107.60269087770826
  0
ARC
  8
_0-4_2mm
  6
CONTINUOUS
 62
    7
 10
149.94920861865432
 20
102.77618805842799
 40
4.999999999999992
 50
337.62311221831305
 51
74.862201508573364
  0
LINE
  8
_0-4_2mm
  6
CONTINUOUS
 62
    7
 10
161.04120055453348
 20
95.181859848890667
 11
156.65108636896267
 21
95.391180106089166
  0
LINE
  8
_0-4_2mm
  6
CONTINUOUS
 62
    7
 10
154.01986476108925
 20
99.529868042355815
 11
154.57270699964067
 21
100.87270106844971
  0
ARC
  8
_0-4_2mm
  6
CONTINUOUS
 62
    7
 10
156.79396378968121
 20
98.387775848368889
 40
3.0000000000000053
 50
157.62311221831311
 51
267.27020964469455
  0
ARC
  8
_0-4_2mm
  6
CONTINUOUS
 62
    7
 10
165.64793137665131
 20
96.553641761124609
 40
2.9999999999999609
 50
232.7274314937481
 51
273.01278750418351
  0
ARC
  8
_0-4_2mm
  6
CONTINUOUS
 62
    7
 10
170.47214492454751
 20
56.409242602791565
 40
5.0000000000000098
 50
3.0127875041831635
 51
72.308156065460864
  0
LINE
  8
_0-4_2mm
  6
CONTINUOUS
 62
    7
 10
171.9916321560309
 20
61.172766356627506
 11
166.46883282294789
 21
62.934450249125604
  0
LINE
  8
_0-4_2mm
  6
CONTINUOUS
 62
    7
 10
164.7725040239747
 20
64.309923026066713
 11
163.3640423559122
 21
66.78745914199385
  0
LINE
  8
_0-4_2mm
  6
CONTINUOUS
 62
    7
 10
162.99285720349042
 20
68.622705041498875
 11
163.41732177098072
 21
72.20906818069578
  0
LINE
  8
_0-4_2mm
  6
CONTINUOUS
 62
    7
 10
165.47109677695184
 20
74.71015906930144
 11
170.71155589219654
 21
76.409599366149934
  0
ARC
  8
_0-4_2mm
  6
CONTINUOUS
 62
    7
 10
167.38052516183802
 20
65.792564501427151
 40
3.0000000000000364
 50
209.6179224290014
 51
252.30815606546039
  0
ARC
  8
_0-4_2mm
  6
CONTINUOUS
 62
    7
 10
165.97206349377552
 20
68.270100617354302
 40
3.0000000000000151
 50
173.2501493977768
 51
209.617922429001
  0
ARC
  8
_0-4_2mm
  6
CONTINUOUS
 62
    7
 10
166.39652806126571
 20
71.856463756551094
 40
3.0000000000000151
 50
107.96747709794911
 51
173.25014939777682
  0
LINE
  8
_0-4_2mm
  6
CONTINUOUS
 62
    7
 10
76.770986823677461
 20
4.6340042936704009
 11
71.563106331556554
 21
9.3210967365792925
  0
LINE
  8
_0-4_2mm
  6
CONTINUOUS
 62
    7
 10
130.99005205431786
 20
6.6077434831724418
 11
78.935557517913068
 21
3.868033244414363
  0
ARC
  8
_0-4_2mm
  6
CONTINUOUS
 62
    7
 10
78.777881018544917
 20
6.8638867324119417
 40
3.0000000000000422
 50
228.01278750418368
 51
273.01278750418294
  0
ARC
  8
_0-4_2mm
  6
CONTINUOUS
 62
    7
 10
130.83237555494961
 20
9.6035969711699778
 40
3.0000000000000022
 50
273.01278750418351
 51
328.18829834722635
  0
LINE
  8
_0-4_2mm
  6
CONTINUOUS
 62
    7
 10
147.32446338752936
 20
30.499283268085151
 11
133.38173071644678
 21
8.0222088908594316
  0
LINE
  8
_0-4_2mm
  6
CONTINUOUS
 62
    7
 10
70.997972937653259
 20
9.5723975095366427
 11
52.591447282512775
 21
11.493957880128256
  0
ARC
  8
_0-4_2mm
  6
CONTINUOUS
 62
    7
 10
70.894141599934017
 20
8.5778025903321264
 40
0.9999999999999869
 50
48.012787504182796
 51
84.040160889286426
  0
LINE
  8
_0-4_2mm
  6
CONTINUOUS
 62
    7
 10
39.687768408098719
 20
10.814816886738065
 11
36.513887681971539
 21
71.11855068315559
  0
LINE
  8
_0-4_2mm
  6
CONTINUOUS
 62
    7
 10
52.591447282512775
 20
11.493957880128256
 11
39.687768408098719
 21
10.814816886738065
  0
LINE
  8
_0-4_2mm
  6
CONTINUOUS
 62
    7
 10
175.46523407121012
 20
56.672036768405391
 11
176.76120519226637
 21
32.048585468334437
  0
LINE
  8
_0-4_2mm
  6
CONTINUOUS
 62
    7
 10
176.76120519226637
 20
32.04858546833443
 11
147.32446338752936
 21
30.499283268085151
  0
LINE
  8
_0-4_2mm
  6
CONTINUOUS
 62
    7
 10
24.909656218561338
 20
117.32676737305988
 11
50.491470155155611
 21
105.94385053626118
  0
LINE
  8
_0-4_2mm
  6
CONTINUOUS
 62
    7
 10
50.084937410984232
 20
105.03021432424001
 11
24.50312347438998
 21
116.41313116103862
  0
ARC
  8
_0-4_2mm
  6
CONTINUOUS
 62
    7
 10
24.706389846475645
 20
116.86994926704919
 40
0.500000000000002
 50
66.012787504183578
 51
246.01278750418359
  0
ARC
  8
_0-4_2mm
  6
CONTINUOUS
 62
    7
 10
50.288203783069932
 20
105.48703243025069
 40
0.499999999999994
 50
246.01278750418356
 51
66.012787504183535
  0
CIRCLE
  8
_0-4_2mm
  6
CONTINUOUS
 62
    7
 10
18.813789980719406
 20
108.5466526351798
 40
2
  0
LINE
  8
_0-4_2mm
  6
CONTINUOUS
 62
    7
 10
54.841592290726915
 20
76.065643131246972
 11
57.573722603699657
 21
77.336139689708702
  0
LINE
  8
_0-4_2mm
  6
CONTINUOUS
 62
    7
 10
57.573722603699657
 20
77.336139689708702
 11
60.501695308391476
 21
84.278938442258891
  0
LINE
  8
_0-4_2mm
  6
CONTINUOUS
 62
    7
 10
52.410857705434488
 20
76.021668129414081
 11
50.765242053010347
 21
76.715670344434585
  0
LINE
  8
_0-4_2mm
  6
CONTINUOUS
 62
    7
 10
48.946697693521536
 20
79.786417520630934
 11
49.405210753604386
 21
84.250691214901835
  0
LINE
  8
_0-4_2mm
  6
CONTINUOUS
 62
    7
 10
51.279099189678853
 20
90.532284452666374
 11
52.331811207488833
 21
90.75912600188596
  0
LINE
  8
_0-4_2mm
  6
CONTINUOUS
 62
    7
 10
54.240916841235673
 20
91.618970089262589
 11
56.557506457877878
 21
93.322693353597785
  0
LINE
  8
_0-4_2mm
  6
CONTINUOUS
 62
    7
 10
58.892996575576483
 20
93.853547433882085
 11
62.254065840933087
 21
93.217187871193971
  0
LINE
  8
_0-4_2mm
  6
CONTINUOUS
 62
    7
 10
63.832415269731179
 20
88.163454234786229
 11
61.548038290788774
 21
85.846177590565134
  0
ARC
  8
_0-4_2mm
  6
CONTINUOUS
 62
    7
 10
53.576614287630278
 20
78.785906105975997
 40
2.9999999999999618
 50
247.13348462196518
 51
294.93939260440061
  0
ARC
  8
_0-4_2mm
  6
CONTINUOUS
 62
    7
 10
51.930998635206095
 20
79.4799083209965
 40
2.9999999999999609
 50
174.13587288958431
 51
247.13348462196538
  0
ARC
  8
_0-4_2mm
  6
CONTINUOUS
 62
    7
 10
51.911043168803928
 20
87.599598515296293
 40
3.0000000000000169
 50
102.160328985669
 51
200.77857239048501
  0
ARC
  8
_0-4_2mm
  6
CONTINUOUS
 62
    7
 10
58.334913817251049
 20
90.905913868653798
 40
3.0000000000000373
 50
79.278951203015225
 51
126.33242090751008
  0
ARC
  8
_0-4_2mm
  6
CONTINUOUS
 62
    7
 10
61.695983082607626
 20
90.269554305965798
 40
2.999999999999996
 50
315.4096309729606
 51
79.278951203014884
  0
ARC
  8
_0-4_2mm
  6
CONTINUOUS
 62
    7
 10
65.108758602661567
 20
82.3360108052659
 40
5.0000000000002016
 50
135.40963097296151
 51
157.13348462196501
  0
ARC
  8
_0-4_2mm
  6
CONTINUOUS
 62
    7
 10
51.278571242280577
 20
95.646935897502303
 40
4.99999999999969
 50
282.16032898566777
 51
306.33242090751122
  0
ARC
  8
_0-4_2mm
  6
CONTINUOUS
 62
    7
 10
44.431375850796584
 20
84.761539880959191
 40
5.000000000000151
 50
354.13587288958507
 51
20.778572390484626
  0
LINE
  8
_0-4_2mm
  6
CONTINUOUS
 62
    7
 10
64.732052391095692
 20
67.70975374212972
 11
53.747256268438065
 21
67.131606577779309
  0
LINE
  8
_0-4_2mm
  6
CONTINUOUS
 62
    7
 10
53.694697435315284
 20
68.130224407111797
 11
64.679493557972904
 21
68.70837157146218
  0
ARC
  8
_0-4_2mm
  6
CONTINUOUS
 62
    7
 10
64.705772974534284
 20
68.209062656795993
 40
0.499999999999978
 50
273.01278750418362
 51
93.012787504183635
  0
ARC
  8
_0-4_2mm
  6
CONTINUOUS
 62
    7
 10
53.720976851876671
 20
67.630915492445496
 40
0.5000000000000099
 50
93.012787504183464
 51
273.01278750418351
  0
LINE
  8
_0-4_2mm
  6
CONTINUOUS
 62
    7
 10
51.923088466789459
 20
54.225050833001504
 11
52.025477503904547
 21
52.279659127814739
  0
LINE
  8
_0-4_2mm
  6
CONTINUOUS
 62
    7
 10
52.028446981518663
 20
52.037953937392842
 11
51.927588365056884
 21
48.438503183929654
  0
LINE
  8
_0-4_2mm
  6
CONTINUOUS
 62
    7
 10
49.941881090455247
 20
45.698776114187169
 11
48.569395977227508
 21
45.206351725649853
  0
LINE
  8
_0-4_2mm
  6
CONTINUOUS
 62
    7
 10
45.289539795794227
 20
46.064938906126287
 11
44.860796834016341
 21
46.559476138798601
  0
LINE
  8
_0-4_2mm
  6
CONTINUOUS
 62
    7
 10
44.193083501066688
 20
49.148327938783602
 11
45.230702949754509
 21
54.030367830833335
  0
LINE
  8
_0-4_2mm
  6
CONTINUOUS
 62
    7
 10
46.199988192807709
 20
55.673425101591278
 11
46.962066398472203
 21
56.334114824056442
  0
ARC
  8
_0-4_2mm
  6
CONTINUOUS
 62
    7
 10
48.927234978791915
 20
54.067374333633211
 40
2.9999999999999951
 50
3.0127875041830441
 51
130.9239109761678
  0
ARC
  8
_0-4_2mm
  6
CONTINUOUS
 62
    7
 10
49.029624015910599
 20
52.121982628446403
 40
2.9999999999964149
 50
358.39496029972372
 51
3.0127875041866483
  0
ARC
  8
_0-4_2mm
  6
CONTINUOUS
 62
    7
 10
48.928765399445197
 20
48.522531874983301
 40
3.0000000000000258
 50
289.7371258278331
 51
358.39496029972389
  0
ARC
  8
_0-4_2mm
  6
CONTINUOUS
 62
    7
 10
47.556280286217486
 20
48.030107486445971
 40
3.0000000000000089
 50
220.9239109761678
 51
289.73712582783259
  0
ARC
  8
_0-4_2mm
  6
CONTINUOUS
 62
    7
 10
47.127537324439658
 20
48.524644719118314
 40
3.0000000000000329
 50
168.00101243763439
 51
220.9239109761678
  0
ARC
  8
_0-4_2mm
  6
CONTINUOUS
 62
    7
 10
48.165156773127308
 20
53.406684611168103
 40
2.999999999999865
 50
130.92391097616701
 51
168.00101243763439
  0
LINE
  8
_0-4_2mm
  6
CONTINUOUS
 62
    7
 10
73.415616826049416
 20
54.203812858850213
 11
81.135170261927328
 21
68.207465101980233
  0
LINE
  8
_0-4_2mm
  6
CONTINUOUS
 62
    7
 10
82.58192177338799
 20
69.517154057536601
 11
95.476811966216886
 21
75.036602790085311
  0
LINE
  8
_0-4_2mm
  6
CONTINUOUS
 62
    7
 10
97.062246366360014
 20
75.251177535975827
 11
98.835533672802214
 21
75.009614937888927
  0
LINE
  8
_0-4_2mm
  6
CONTINUOUS
 62
    7
 10
100.66489270661941
 20
74.039056405817291
 11
109.00845910583163
 21
64.72734509104464
  0
LINE
  8
_0-4_2mm
  6
CONTINUOUS
 62
    7
 10
109.66856300878271
 20
61.936374678418439
 11
108.01715248852932
 21
55.878154494018752
  0
LINE
  8
_0-4_2mm
  6
CONTINUOUS
 62
    7
 10
107.01308199132122
 20
54.337612682743291
 11
99.030363717341018
 21
47.859935714448788
  0
LINE
  8
_0-4_2mm
  6
CONTINUOUS
 62
    7
 10
98.653502668291992
 20
47.5992020184949
 11
82.423814501749803
 21
38.116364694870988
  0
LINE
  8
_0-4_2mm
  6
CONTINUOUS
 62
    7
 10
80.505424455654449
 20
37.734076299922229
 11
71.510106637592045
 21
38.959445891671344
  0
LINE
  8
_0-4_2mm
  6
CONTINUOUS
 62
    7
 10
70.006331526916981
 20
39.617505899816273
 11
65.899941748909484
 21
43.003952389011339
  0
LINE
  8
_0-4_2mm
  6
CONTINUOUS
 62
    7
 10
65.918324420024263
 20
47.647963136839721
 11
72.187392131950304
 21
52.735076841276445
  0
ARC
  8
_0-4_2mm
  6
CONTINUOUS
 62
    7
 10
83.762426845739114
 20
66.759182379989198
 40
2.9999999999999969
 50
113.17256106765811
 51
151.13412298243654
  0
ARC
  8
_0-4_2mm
  6
CONTINUOUS
 62
    7
 10
96.657317038567925
 20
72.278631112537894
 40
2.999999999999964
 50
82.242742319172905
 51
113.17256106765819
  0
ARC
  8
_0-4_2mm
  6
CONTINUOUS
 62
    7
 10
98.430604345010209
 20
72.037068514450894
 40
2.999999999999976
 50
41.861271808058049
 51
82.242742319173146
  0
ARC
  8
_0-4_2mm
  6
CONTINUOUS
 62
    7
 10
106.7741707442224
 20
62.725357199678314
 40
3.0000000000000009
 50
344.75219972307912
 51
41.86127180805795
  0
ARC
  8
_0-4_2mm
  6
CONTINUOUS
 62
    7
 10
105.12276022396901
 20
56.667137015278641
 40
3.0000000000000382
 50
309.05803611662327
 51
344.752199723079
  0
ARC
  8
_0-4_2mm
  6
CONTINUOUS
 62
    7
 10
97.140041949989012
 20
50.189460046983726
 40
2.9999999999995328
 50
300.29729796961129
 51
309.05803611662287
  0
ARC
  8
_0-4_2mm
  6
CONTINUOUS
 62
    7
 10
80.910353783446411
 20
40.706622723360198
 40
2.999999999999992
 50
262.24274231917241
 51
300.29729796961192
  0
ARC
  8
_0-4_2mm
  6
CONTINUOUS
 62
    7
 10
71.915035965384106
 20
41.931992315109383
 40
3.0000000000000631
 50
230.48837149209797
 51
262.24274231917258
  0
ARC
  8
_0-4_2mm
  6
CONTINUOUS
 62
    7
 10
67.80864618737651
 20
45.318438804304392
 40
3.0000000000000107
 50
129.05803611662321
 51
230.48837149209783
  0
ARC
  8
_0-4_2mm
  6
CONTINUOUS
 62
    7
 10
69.036855853029707
 20
56.617617395502123
 40
5.0000000000001927
 50
309.05803611662361
 51
331.134122982436
  0
LINE
  8
_0-4_2mm
  6
CONTINUOUS
 62
    7
 10
125.71472234434732
 20
71.947921079184411
 11
128.11389716226901
 21
72.780610610382112
  0
LINE
  8
_0-4_2mm
  6
CONTINUOUS
 62
    7
 10
130.17838981254121
 20
72.744993720006207
 11
142.10830874962542
 21
68.137488182166308
  0
LINE
  8
_0-4_2mm
  6
CONTINUOUS
 62
    7
 10
143.43735369997441
 20
67.125705208374228
 11
147.48215389359441
 21
61.670286411728739
  0
LINE
  8
_0-4_2mm
  6
CONTINUOUS
 62
    7
 10
147.44062882817826
 20
58.042095214800057
 11
141.59637686923764
 21
50.525551972131694
  0
LINE
  8
_0-4_2mm
  6
CONTINUOUS
 62
    7
 10
137.86396987404092
 20
49.695033246110327
 11
127.86593852865403
 21
54.799096695044724
  0
LINE
  8
_0-4_2mm
  6
CONTINUOUS
 62
    7
 10
126.39583965230861
 20
56.487396322899741
 11
124.13401070543091
 21
63.004258668929324
  0
LINE
  8
_0-4_2mm
  6
CONTINUOUS
 62
    7
 10
123.97230896523342
 20
63.830240581024015
 11
123.70252726781274
 21
68.956092832016068
  0
ARC
  8
_0-4_2mm
  6
CONTINUOUS
 62
    7
 10
129.09755557373202
 20
69.946458862581991
 40
3.0000000000000853
 50
68.882725177598559
 51
109.14052274029642
  0
ARC
  8
_0-4_2mm
  6
CONTINUOUS
 62
    7
 10
141.02747451081612
 20
65.338953324742221
 40
3.0000000000000551
 50
36.554272572943241
 51
68.882725177597806
  0
ARC
  8
_0-4_2mm
  6
CONTINUOUS
 62
    7
 10
145.07227470443632
 20
59.883534528096732
 40
2.9999999999999969
 50
322.13427111917213
 51
36.554272572943532
  0
ARC
  8
_0-4_2mm
  6
CONTINUOUS
 62
    7
 10
139.22802274549571
 20
52.366991285428341
 40
2.9999999999999938
 50
242.95537723547051
 51
322.13427111917139
  0
ARC
  8
_0-4_2mm
  6
CONTINUOUS
 62
    7
 10
129.2299914001087
 20
57.471054734362752
 40
3.00000000000004
 50
199.14052274029723
 51
242.95537723547022
  0
ARC
  8
_0-4_2mm
  6
CONTINUOUS
 62
    7
 10
126.96816245323092
 20
63.987917080392293
 40
3.0000000000000044
 50
183.01278750418311
 51
199.14052274029697
  0
ARC
  8
_0-4_2mm
  6
CONTINUOUS
 62
    7
 10
126.69838075581032
 20
69.11376933138429
 40
3.0000000000000107
 50
109.1405227402973
 51
183.01278750418314
  0
LINE
  8
_0-4_2mm
  6
CONTINUOUS
 62
    7
 10
82.812290985326356
 20
85.684874670114795
 11
71.827494862668757
 21
85.106727505764411
  0
LINE
  8
_0-4_2mm
  6
CONTINUOUS
 62
    7
 10
71.774936029545984
 20
86.105345335096985
 11
82.759732152203568
 21
86.683492499447397
  0
LINE
  8
_0-4_2mm
  6
CONTINUOUS
 62
    7
 10
101.99626507513514
 20
82.689021182117301
 11
91.011468952477458
 21
82.110874017766918
  0
LINE
  8
_0-4_2mm
  6
CONTINUOUS
 62
    7
 10
90.958910119354769
 20
83.109491847099378
 11
101.94370624201238
 21
83.687639011449789
  0
LINE
  8
_0-4_2mm
  6
CONTINUOUS
 62
    7
 10
120.81232733308445
 20
86.683492499447311
 11
109.82753121042686
 21
86.105345335096899
  0
LINE
  8
_0-4_2mm
  6
CONTINUOUS
 62
    7
 10
109.77497237730407
 20
87.103963164429388
 11
120.75976849996178
 21
87.6821103287798
  0
LINE
  8
_0-4_2mm
  6
CONTINUOUS
 62
    7
 10
139.89118375664776
 20
85.684874670114795
 11
128.90638763399005
 21
85.106727505764411
  0
LINE
  8
_0-4_2mm
  6
CONTINUOUS
 62
    7
 10
128.85382880086738
 20
86.105345335096899
 11
139.83862492352497
 21
86.683492499447283
  0
LINE
  8
_0-4_2mm
  6
CONTINUOUS
 62
    7
 10
158.86492251396535
 20
86.683492499447311
 11
147.88012639130784
 21
86.105345335096899
  0
LINE
  8
_0-4_2mm
  6
CONTINUOUS
 62
    7
 10
147.82756755818497
 20
87.103963164429388
 11
158.81236368084268
 21
87.6821103287798
  0
CIRCLE
  8
_0-4_2mm
  6
CONTINUOUS
 62
    7
 10
166.98526223143242
 20
84.607418591098096
 40
2
  0
ARC
  8
_0-4_2mm
  6
CONTINUOUS
 62
    7
 10
82.786011568765005
 20
86.184183584781096
 40
0.499999999999996
 50
273.01278750418282
 51
93.012787504182867
  0
ARC
  8
_0-4_2mm
  6
CONTINUOUS
 62
    7
 10
71.801215446107406
 20
85.606036420430698
 40
0.500000000000004
 50
93.012787504182853
 51
273.01278750418282
  0
ARC
  8
_0-4_2mm
  6
CONTINUOUS
 62
    7
 10
101.96998565857371
 20
83.188330096783503
 40
0.4999999999999869
 50
273.01278750418288
 51
93.012787504182867
  0
ARC
  8
_0-4_2mm
  6
CONTINUOUS
 62
    7
 10
90.985189535916106
 20
82.61018293243319
 40
0.499999999999996
 50
93.012786296765185
 51
273.01278750418351
  0
ARC
  8
_0-4_2mm
  6
CONTINUOUS
 62
    7
 10
120.7860479165231
 20
87.182801414113598
 40
0.4999999999999869
 50
273.01278750418351
 51
93.012787504183535
  0
ARC
  8
_0-4_2mm
  6
CONTINUOUS
 62
    7
 10
109.8012517938655
 20
86.6046542497632
 40
0.499999999999996
 50
93.012787504183507
 51
273.01278750418351
  0
ARC
  8
_0-4_2mm
  6
CONTINUOUS
 62
    7
 10
139.86490434008641
 20
86.184183584780996
 40
0.499999999999996
 50
273.01278750418282
 51
93.012787504182867
  0
ARC
  8
_0-4_2mm
  6
CONTINUOUS
 62
    7
 10
128.8801082174287
 20
85.606036420430598
 40
0.5000000000000051
 50
93.012787504182825
 51
273.01278750418282
  0
ARC
  8
_0-4_2mm
  6
CONTINUOUS
 62
    7
 10
158.838643097404
 20
87.182801414113499
 40
0.499999999999996
 50
273.01278750418282
 51
93.012787504182867
  0
ARC
  8
_0-4_2mm
  6
CONTINUOUS
 62
    7
 10
147.8538469747464
 20
86.604654249763101
 40
0.5000000000000051
 50
93.012787504182825
 51
273.01278750418282
  0
LINE
  8
_0-4_2mm
  6
CONTINUOUS
 62
    7
 10
67.359994047233755
 20
17.778862275504238
 11
56.375197924576177
 21
17.200715111153833
  0
LINE
  8
_0-4_2mm
  6
CONTINUOUS
 62
    7
 10
56.322639091453425
 20
18.199332940486364
 11
67.307435214110967
 21
18.777480104836748
  0
LINE
  8
_0-4_2mm
  6
CONTINUOUS
 62
    7
 10
86.491409303919752
 20
15.781626616839198
 11
75.506613181262153
 21
15.2034794524888
  0
LINE
  8
_0-4_2mm
  6
CONTINUOUS
 62
    7
 10
75.454054348139366
 20
16.20209728182131
 11
86.438850470796964
 21
16.780244446171707
  0
LINE
  8
_0-4_2mm
  6
CONTINUOUS
 62
    7
 10
94.638028437948179
 20
13.206243793823745
 11
105.62282456060578
 21
13.784390958174136
  0
LINE
  8
_0-4_2mm
  6
CONTINUOUS
 62
    7
 10
124.49144565167785
 20
16.780244446171658
 11
113.50664952902025
 21
16.20209728182126
  0
LINE
  8
_0-4_2mm
  6
CONTINUOUS
 62
    7
 10
113.45409069589746
 20
17.200715111153769
 11
124.43888681855518
 21
17.77886227550416
  0
LINE
  8
_0-4_2mm
  6
CONTINUOUS
 62
    7
 10
105.67538339372845
 20
12.785773128841619
 11
94.690587271070854
 21
12.207625964491228
  0
ARC
  8
_0-4_2mm
  6
CONTINUOUS
 62
    7
 10
67.333714630672418
 20
18.278171190170468
 40
0.500000000000004
 50
273.01278750418351
 51
93.012787504183436
  0
ARC
  8
_0-4_2mm
  6
CONTINUOUS
 62
    7
 10
56.348918508014805
 20
17.700024025820085
 40
0.499999999999994
 50
93.012786296765185
 51
273.01278750418351
  0
ARC
  8
_0-4_2mm
  6
CONTINUOUS
 62
    7
 10
86.465129887358316
 20
16.280935531505428
 40
0.499999999999996
 50
273.01278750418282
 51
93.012787504182867
  0
ARC
  8
_0-4_2mm
  6
CONTINUOUS
 62
    7
 10
75.480333764700816
 20
15.702788367155058
 40
0.5000000000000031
 50
93.012787504184161
 51
273.01278750418419
  0
ARC
  8
_0-4_2mm
  6
CONTINUOUS
 62
    7
 10
124.4651662351165
 20
17.279553360837909
 40
0.499999999999998
 50
273.01278750418351
 51
93.012787504183535
  0
ARC
  8
_0-4_2mm
  6
CONTINUOUS
 62
    7
 10
113.4803701124589
 20
16.701406196487518
 40
0.5000000000000051
 50
93.012787504183507
 51
273.01278750418351
  0
CIRCLE
  8
_0-4_2mm
  6
CONTINUOUS
 62
    7
 10
48.202299373986449
 20
20.275406848835509
 40
2
  0
ARC
  8
_0-4_2mm
  6
CONTINUOUS
 62
    7
 10
94.664307854509502
 20
12.706934879157487
 40
0.5000000000000031
 50
93.012787504184161
 51
273.01278750418419
  0
ARC
  8
_0-4_2mm
  6
CONTINUOUS
 62
    7
 10
105.6491039771671
 20
13.285082043507877
 40
0.5
 50
273.01278750418282
 51
93.012787504182825
  0
LINE
  8
_0-4_2mm
  6
CONTINUOUS
 62
    7
 10
142.51912541278585
 20
35.753983203489319
 11
131.53432929012826
 21
35.175836039138922
  0
LINE
  8
_0-4_2mm
  6
CONTINUOUS
 62
    7
 10
131.48177045700547
 20
36.174453868471439
 11
142.46656657966307
 21
36.752601032821822
  0
LINE
  8
_0-4_2mm
  6
CONTINUOUS
 62
    7
 10
161.49286417010356
 20
36.752601032821808
 11
150.50806804744596
 21
36.17445386847141
  0
LINE
  8
_0-4_2mm
  6
CONTINUOUS
 62
    7
 10
150.45550921432317
 20
37.173071697803941
 11
161.44030533698077
 21
37.751218862154325
  0
CIRCLE
  8
_0-4_2mm
  6
CONTINUOUS
 62
    7
 10
169.29785088883401
 20
40.6682341004677
 40
2
  0
ARC
  8
_0-4_2mm
  6
CONTINUOUS
 62
    7
 10
142.4928459962245
 20
36.253292118155571
 40
0.5
 50
273.01278750418282
 51
93.012787504182867
  0
ARC
  8
_0-4_2mm
  6
CONTINUOUS
 62
    7
 10
131.50804987356682
 20
35.675144953805173
 40
0.5000000000000051
 50
93.012787504182825
 51
273.01278750418282
  0
ARC
  8
_0-4_2mm
  6
CONTINUOUS
 62
    7
 10
161.46658475354212
 20
37.251909947488059
 40
0.499999999999998
 50
273.01278750418282
 51
93.012787504182867
  0
ARC
  8
_0-4_2mm
  6
CONTINUOUS
 62
    7
 10
150.48178863088452
 20
36.673762783137661
 40
0.5000000000000031
 50
93.012787504182825
 51
273.01278750418282
  0
CIRCLE
  8
_0-4_2mm
  6
CONTINUOUS
 62
    7
 10
73.355329553495906
 20
145.77087692221039
 40
0.5
  0
CIRCLE
  8
_0-4_2mm
  6
CONTINUOUS
 62
    7
 10
75.247447545915406
 20
109.82063506624009
 40
0.5
  0
CIRCLE
  8
_0-4_2mm
  6
CONTINUOUS
 62
    7
 10
160.80597080924082
 20
150.37354225146009
 40
0.5
  0
CIRCLE
  8
_0-4_2mm
  6
CONTINUOUS
 62
    7
 10
162.69808880166022
 20
114.42330039548979
 40
0.5
  0
LINE
  8
_0-4_2mm
  6
CONTINUOUS
 62
    7
 10
120.47683841056975
 20
94.060950780471217
 11
116.52219485510078
 21
93.852811645972906
  0
LINE
  8
_0-4_2mm
  6
CONTINUOUS
 62
    7
 10
114.65287384420296
 20
99.312457549363984
 11
122.77895919783538
 21
104.95780709621039
  0
LINE
  8
_0-4_2mm
  6
CONTINUOUS
 62
    7
 10
124.50962841620471
 20
105.4939543569652
 11
132.79283644695292
 21
105.4414247658767
  0
LINE
  8
_0-4_2mm
  6
CONTINUOUS
 62
    7
 10
135.04055223053629
 20
104.40665367004789
 11
137.08678490869229
 21
102.04640910332029
  0
LINE
  8
_0-4_2mm
  6
CONTINUOUS
 62
    7
 10
137.8158979062666
 20
100.23891702236887
 11
137.91162085919169
 21
98.42018091679077
  0
LINE
  8
_0-4_2mm
  6
CONTINUOUS
 62
    7
 10
136.42922808949751
 20
95.672246388933246
 11
132.19353068663031
 21
93.19737262602942
  0
LINE
  8
_0-4_2mm
  6
CONTINUOUS
 62
    7
 10
130.27514064053506
 20
92.815084231080647
 11
121.41451478917024
 21
94.022105672871945
  0
ARC
  8
_0-4_2mm
  6
CONTINUOUS
 62
    7
 10
116.36451835573251
 20
96.848665133970385
 40
2.9999999999999969
 50
124.7884602009244
 51
273.01278750418317
  0
ARC
  8
_0-4_2mm
  6
CONTINUOUS
 62
    7
 10
124.4906037093649
 20
102.4940146808169
 40
2.9999999999999112
 50
89.636652428472289
 51
124.78846020092489
  0
ARC
  8
_0-4_2mm
  6
CONTINUOUS
 62
    7
 10
132.77381174011302
 20
102.4414850897282
 40
3.0000000000000249
 50
40.923910976168081
 51
89.636652428472303
  0
ARC
  8
_0-4_2mm
  6
CONTINUOUS
 62
    7
 10
134.82004441826902
 20
100.08124052300049
 40
3.000000000000024
 50
3.0127875041836489
 51
40.923910976168081
  0
ARC
  8
_0-4_2mm
  6
CONTINUOUS
 62
    7
 10
134.91576737119422
 20
98.262504417422505
 40
3.0000000000000044
 50
300.29729796961215
 51
3.0127875041832515
  0
ARC
  8
_0-4_2mm
  6
CONTINUOUS
 62
    7
 10
130.68006996832702
 20
95.787630654518594
 40
2.9999999999999551
 50
262.24274231917292
 51
300.29729796961249
  0
ARC
  8
_0-4_2mm
  6
CONTINUOUS
 62
    7
 10
120.73963257618362
 20
89.067861633808391
 40
5.000000000000262
 50
82.242742319173459
 51
93.012787504183052
  0
LINE
  8
_0-4_2mm
  6
CONTINUOUS
 62
    7
 10
15.152870358448297
 20
95.399498284550475
 11
40.734684295042527
 21
84.016581447751875
  0
LINE
  8
_0-4_2mm
  6
CONTINUOUS
 62
    7
 10
40.328151550871127
 20
83.102945235730715
 11
14.746337614276911
 21
94.485862072529329
  0
ARC
  8
_0-4_2mm
  6
CONTINUOUS
 62
    7
 10
14.949603986362575
 20
94.942680178539902
 40
0.499999999999956
 50
66.012787504184288
 51
246.01278750418419
  0
ARC
  8
_0-4_2mm
  6
CONTINUOUS
 62
    7
 10
40.531417922956862
 20
83.559763341741302
 40
0.4999999999999869
 50
246.0127875041839
 51
66.012787504183933
  0
LINE
  8
_0-5_0_5
  6
CONTINUOUS
 62
    7
 10
81.027104924285908
 20
150.18019090813431
 11
83.339693581687513
 21
106.24100641750378
  0
LINE
  8
_0-5_0_5
  6
CONTINUOUS
 62
    7
 10
155.0263134308702
 20
110.01398640956599
 11
152.7137247734687
 21
153.95317090019637
  0
ENDSEC
  0
EOF
