  0
SECTION
  2
HEADER
  9
$ACADVER
  1
AC1009
  9
$INSBASE
 10
0
 20
0
 30
0
  9
$EXTMIN
 10
0
 20
0
  9
$EXTMAX
 10
210.25
 20
148.5
  9
$LIMMIN
 10
0
 20
0
  9
$LIMMAX
 10
210.25
 20
148.5
  9
$LTSCALE
 40
0.25
  0
ENDSEC
  0
SECTION
  2
TABLES
  0
TABLE
  2
LTYPE
 70
     9
  0
LTYPE
  2
CONTINUOUS
 70
    64
  3
実線
 72
    65
 73
     0
 40
0.0
  0
LTYPE
  2
DASHED1
 70
    64
  3
--  --  --  --  --  --  --  --  
 72
    65
 73
     2
 40
2.5
 49
1.25
 49
-1.25
  0
LTYPE
  2
DASHED2
 70
    64
  3
----    ----    ----    ----    
 72
    65
 73
     2
 40
5.0
 49
2.5
 49
-2.5
  0
LTYPE
  2
DASHED3
 70
    64
  3
------  ------  ------  ------  
 72
    65
 73
     2
 40
5.0
 49
3.75
 49
-1.25
  0
LTYPE
  2
CENTER1
 70
    64
  3
----- - ----- - ----- - ----- - 
 72
    65
 73
     4
 40
10.0
 49
6.25
 49
-1.25
 49
1.25
 49
-1.25
  0
LTYPE
  2
CENTER2
 70
    64
  3
----------  --  ----------  --  
 72
    65
 73
     4
 40
20.0
 49
12.5
 49
-2.5
 49
2.5
 49
-2.5
  0
LTYPE
  2
PHANTOM1
 70
    64
  3
--- - - --- - - --- - - --- - - 
 72
    65
 73
     6
 40
10.0
 49
3.25
 49
-1.25
 49
1.25
 49
-1.25
 49
1.25
 49
-1.25
  0
LTYPE
  2
PHANTOM2
 70
    64
  3
--------  -  -  --------  -  -  
 72
    65
 73
     6
 40
20.0
 49
10.0
 49
-2.5
 49
1.25
 49
-2.5
 49
1.25
 49
-2.5
  0
LTYPE
  2
DOT
 70
    64
  3
-   -   -   -   -   -   -   -   
 72
    65
 73
     2
 40
2.5
 49
0.625
 49
-1.875
  0
LTYPE
  2
DUMMY
 70
    64
  3
ダミー
 72
    65
 73
     0
 40
0.0
  0
LTYPE
  2
RAND1
 70
    64
  3
ランダム線1
 72
    65
 73
     4
 40
10.0
 49
1.0
 49
-2.0
 49
3.0
 49
-4.0
  0
LTYPE
  2
RAND2
 70
    64
  3
ランダム線2
 72
    65
 73
     4
 40
14.0
 49
2.0
 49
-3.0
 49
4.0
 49
-5.0
  0
LTYPE
  2
RAND3
 70
    64
  3
ランダム線3
 72
    65
 73
     4
 40
18.0
 49
3.0
 49
-4.0
 49
5.0
 49
-6.0
  0
LTYPE
  2
RAND4
 70
    64
  3
ランダム線4
 72
    65
 73
     4
 40
22.0
 49
4.0
 49
-5.0
 49
6.0
 49
-7.0
  0
LTYPE
  2
RAND5
 70
    64
  3
ランダム線5
 72
    65
 73
     4
 40
26.0
 49
5.0
 49
-6.0
 49
7.0
 49
-8.0
  0
LTYPE
  2
LONG1
 70
    64
  3
----------  --  ----------  --  
 72
    65
 73
     4
 40
40.0
 49
32.5
 49
-2.5
 49
2.5
 49
-2.5
  0
LTYPE
  2
LONG2
 70
    64
  3
--------  -  -  --------  -  -  
 72
    65
 73
     6
 40
40.0
 49
30.0
 49
-2.5
 49
1.25
 49
-2.5
 49
1.25
 49
-2.5
  0
LTYPE
  2
LONG3
 70
    64
  3
+++++++++++++++..+++++++++++++++
 72
    65
 73
     2
 40
40.0
 49
37.5
 49
-2.5
  0
LTYPE
  2
LONG4
 70
    64
  3
+++++++++++++++..+++++++++++++++
 72
    65
 73
     2
 40
80.0
 49
75.0
 49
-5.0
  0
LTYPE
  2
LONG5
 70
    64
  3
----------  --  ----------  --  
 72
    65
 73
     4
 40
60.0
 49
37.5
 49
-7.5
 49
7.5
 49
-7.5
  0
LTYPE
  2
dashed
 70
   64
  3
-------   -------------   ------
 72
   65
 73
    2
 40
7.5
 49
6
 49
-1.5
  0
LTYPE
  2
dashed_spaced
 70
   64
  3
----        --------        ----
 72
   65
 73
    2
 40
12
 49
6
 49
-6
  0
LTYPE
  2
long_dashed_dotted
 70
   64
  3
------------- --- --------------
 72
   65
 73
    4
 40
15.25
 49
12
 49
-1.5
 49
0.25
 49
-1.5
  0
LTYPE
  2
long_dashed_double-dotted
 70
   64
  3
----------- --- --- ------------
 72
   65
 73
    6
 40
17
 49
12
 49
-1.5
 49
0.25
 49
-1.5
 49
0.25
 49
-1.5
  0
LTYPE
  2
long_dashed_triplicate-dotted
 70
   64
  3
--------- --- --- --- ----------
 72
   65
 73
    8
 40
18.75
 49
12
 49
-1.5
 49
0.25
 49
-1.5
 49
0.25
 49
-1.5
 49
0.25
 49
-1.5
  0
LTYPE
  2
dotted
 70
   64
  3
   -       -       -       -    
 72
   65
 73
    2
 40
1.75
 49
0.25
 49
-1.5
  0
LTYPE
  2
chain
 70
   64
  3
-------------- -- --------------
 72
   65
 73
    4
 40
18.5
 49
12
 49
-1.5
 49
3.5
 49
-1.5
  0
LTYPE
  2
chain_double_dash
 70
   64
  3
------------ -- -- -------------
 72
   65
 73
    6
 40
23.5
 49
12
 49
-1.5
 49
3.5
 49
-1.5
 49
3.5
 49
-1.5
  0
LTYPE
  2
dashed_dotted
 70
   64
  3
-----------     -     ----------
 72
   65
 73
    4
 40
9.25
 49
6
 49
-1.5
 49
0.25
 49
-1.5
  0
LTYPE
  2
double-dashed_dotted
 70
   64
  3
------   -----------   -   -----
 72
   65
 73
    6
 40
16.75
 49
6
 49
-1.5
 49
6
 49
-1.5
 49
0.25
 49
-1.5
  0
LTYPE
  2
dashed_double-dotted
 70
   64
  3
---------    -    -    ---------
 72
   65
 73
    6
 40
11
 49
6
 49
-1.5
 49
0.25
 49
-1.5
 49
0.25
 49
-1.5
  0
LTYPE
  2
double-dashed_double-dotted
 70
   64
  3
-----   ---------   -   -   ----
 72
   65
 73
    8
 40
18.5
 49
6
 49
-1.5
 49
6
 49
-1.5
 49
0.25
 49
-1.5
 49
0.25
 49
-1.5
  0
LTYPE
  2
dashed_triplicate-dotted
 70
   64
  3
-------    -    -    -    ------
 72
   65
 73
    8
 40
12.75
 49
6
 49
-1.5
 49
0.25
 49
-1.5
 49
0.25
 49
-1.5
 49
0.25
 49
-1.5
  0
LTYPE
  2
double-dashed_triplicate-dotted
 70
   64
  3
-----  ---------  -  -  -  -----
 72
   65
 73
   10
 40
20.25
 49
6
 49
-1.5
 49
6
 49
-1.5
 49
0.25
 49
-1.5
 49
0.25
 49
-1.5
 49
0.25
 49
-1.5
  0
LTYPE
  2
undefined
 70
   64
  3
--------------------------------
 72
   65
 73
    0
 40
0
  0
LTYPE
  2
CHAIN
 70
   64
  3
-----------   -----   ----------
 72
   65
 73
    4
 40
0.3542999999999997
 49
0.2361999999999999
 49
-0.0294999999999999
 49
0.0591
 49
-0.0294999999999999
  0
LTYPE
  2
DASH_DOT
 70
   64
  3
-----------     -     ----------
 72
   65
 73
    4
 40
0.3699999999999997
 49
0.2399999999999999
 49
-0.0599999999999999
 49
0.01
 49
-0.0599999999999999
  0
LTYPE
  2
DASH_DOUBLE_DOT
 70
   64
  3
---------    -    -    ---------
 72
   65
 73
    6
 40
0.4397999999999995
 49
0.2399999999999999
 49
-0.0599999999999999
 49
0.0097999999999999
 49
-0.0599999999999999
 49
0.01
 49
-0.0599999999999999
  0
LTYPE
  2
DASH_TRIPLE_DOT
 70
   64
  3
-------    -    -    -    ------
 72
   65
 73
    8
 40
0.5099999999999995
 49
0.2399999999999999
 49
-0.0599999999999999
 49
0.01
 49
-0.0599999999999999
 49
0.01
 49
-0.0599999999999999
 49
0.01
 49
-0.0599999999999999
  0
LTYPE
  2
DASHED
 70
   64
  3
-------   -------------   ------
 72
   65
 73
    2
 40
0.2066999999999999
 49
0.1653999999999999
 49
-0.0413
  0
LTYPE
  2
DASHED_SPACE
 70
   64
  3
----        --------        ----
 72
   65
 73
    2
 40
0.0826
 49
0.0413
 49
-0.0413
  0
LTYPE
  2
DOTTED
 70
   64
  3
-              --              -
 72
   65
 73
    2
 40
0.0481999999999999
 49
0.0068999999999999
 49
-0.0413
  0
LTYPE
  2
DOUBLE_DASH_CHAIN
 70
   64
  3
---------  ----  ----  ---------
 72
   65
 73
    6
 40
1.2402999999999995
 49
0.6613999999999998
 49
-0.0826999999999998
 49
0.1653999999999999
 49
-0.0826999999999998
 49
0.1653999999999999
 49
-0.0826999999999998
  0
LTYPE
  2
DOUBLE_DASH_DOT
 70
   64
  3
------   -----------   -   -----
 72
   65
 73
    6
 40
0.6699999999999996
 49
0.2399999999999999
 49
-0.0599999999999999
 49
0.2399999999999999
 49
-0.0599999999999999
 49
0.01
 49
-0.0599999999999999
  0
LTYPE
  2
DOUBLE_DASH_DOUBLE_DOT
 70
   64
  3
-----   ---------   -   -   ----
 72
   65
 73
    8
 40
0.7399999999999995
 49
0.2399999999999999
 49
-0.0599999999999999
 49
0.2399999999999999
 49
-0.0599999999999999
 49
0.01
 49
-0.0599999999999999
 49
0.01
 49
-0.0599999999999999
  0
LTYPE
  2
LONG_DASH_DOTTED
 70
   64
  3
-------------   -   ------------
 72
   65
 73
    4
 40
0.6099999999999997
 49
0.4799999999999999
 49
-0.0599999999999999
 49
0.01
 49
-0.0599999999999999
  0
LTYPE
  2
LONG_DASH_DOUBLE_DOT
 70
   64
  3
-----------   -   -   ----------
 72
   65
 73
    6
 40
0.3344999999999994
 49
0.2361999999999999
 49
-0.0294999999999999
 49
0.0048999999999999
 49
-0.0294999999999999
 49
0.0048999999999999
 49
-0.0294999999999999
  0
LTYPE
  2
LONG_DASH_TRIPLE_DOT
 70
   64
  3
---------   -   -   -   --------
 72
   65
 73
    8
 40
0.7499999999999996
 49
0.4799999999999999
 49
-0.0599999999999999
 49
0.01
 49
-0.0599999999999999
 49
0.01
 49
-0.0599999999999999
 49
0.01
 49
-0.0599999999999999
  0
LTYPE
  2
BORDER
 70
   64
  3
----     --------     -     ----
 72
   65
 73
    6
 40
44.459999999999994
 49
12.699999999999999
 49
-6.3499999999999988
 49
12.699999999999999
 49
-6.3499999999999988
 49
0.01
 49
-6.3499999999999988
  0
LTYPE
  2
BORDER2
 70
   64
  3
----     --------     -     ----
 72
   65
 73
    6
 40
22.234999999999999
 49
6.3499999999999988
 49
-3.1749999999999989
 49
6.3499999999999988
 49
-3.1749999999999989
 49
0.01
 49
-3.1749999999999989
  0
LTYPE
  2
BORDERX2
 70
   64
  3
----     --------     -     ----
 72
   65
 73
    6
 40
88.909999999999997
 49
25.399999999999999
 49
-12.699999999999999
 49
25.399999999999999
 49
-12.699999999999999
 49
0.01
 49
-12.699999999999999
  0
ENDTAB
  0
TABLE
  2
STYLE
  5
3
100
AcDbSymbolTable
 70
     1
  0
STYLE
  5
10
100
AcDbSymbolTableRecord
100
AcDbTextStyleTableRecord
  2
STANDARD
 70
     0
 40
0.0
 41
1.0
 50
0.0
 71
     0
 42
0.2
  3
txt
  4
bigfont.shx
  0
STYLE
  5
26
100
AcDbSymbolTableRecord
100
AcDbTextStyleTableRecord
  2
TATEGAKI
 70
    68
 40
0.0
 41
1.0
 50
0.0
 71
     0
 42
1.0
  3
txt
  4
bigfont.shx
  0
ENDTAB
  0
TABLE
  2
LAYER
 70
    5
  0
LAYER
  2
_0-1_Bend_Centerline__ISO_
 70
   64
 62
    7
  6
CONTINUOUS
  0
LAYER
  2
_0-2_Visible__ISO_
 70
   64
 62
    7
  6
CONTINUOUS
  0
LAYER
  2
_0-4_2mm
 70
   64
 62
    7
  6
CONTINUOUS
  0
LAYER
  2
_0-6_0_5mm
 70
   64
 62
    7
  6
CONTINUOUS
  0
LAYER
  2
ADD_LINE
 70
   64
 62
    7
  6
CONTINUOUS
  0
ENDTAB
  0
ENDSEC
  0
SECTION
  2
BLOCKS
  0
ENDSEC
  0
SECTION
  2
ENTITIES
  0
CIRCLE
  8
_0-2_Visible__ISO_
  6
CONTINUOUS
 62
    7
 10
75.601106578830908
 20
95.249999999999503
 40
1.5
  0
CIRCLE
  8
_0-2_Visible__ISO_
  6
CONTINUOUS
 62
    7
 10
134.64889342116871
 20
95.249999999999503
 40
1.5
  0
CIRCLE
  8
_0-2_Visible__ISO_
  6
CONTINUOUS
 62
    7
 10
75.601106578830908
 20
75.249999999999503
 40
1.5
  0
CIRCLE
  8
_0-2_Visible__ISO_
  6
CONTINUOUS
 62
    7
 10
134.64889342116871
 20
75.249999999999503
 40
1.5
  0
LINE
  8
_0-2_Visible__ISO_
  6
CONTINUOUS
 62
    7
 10
136.64889342116902
 20
71.250000000000298
 11
128.12499999999972
 21
71.250000000000298
  0
LINE
  8
_0-2_Visible__ISO_
  6
CONTINUOUS
 62
    7
 10
136.64889342116902
 20
99.250000000000099
 11
136.64889342116902
 21
71.250000000000298
  0
LINE
  8
_0-2_Visible__ISO_
  6
CONTINUOUS
 62
    7
 10
82.125000000000213
 20
71.249999999999503
 11
73.601106578830908
 21
71.249999999999503
  0
LINE
  8
_0-2_Visible__ISO_
  6
CONTINUOUS
 62
    7
 10
73.601106578830908
 20
71.249999999999503
 11
73.601106578830908
 21
99.249999999999503
  0
LINE
  8
_0-2_Visible__ISO_
  6
CONTINUOUS
 62
    7
 10
73.601106578830908
 20
99.249999999999503
 11
136.64889342116902
 21
99.250000000000099
  0
CIRCLE
  8
_0-2_Visible__ISO_
  6
CONTINUOUS
 62
    7
 10
92.125000000000114
 20
95.249999999999588
 40
1.499999999999996
  0
CIRCLE
  8
_0-2_Visible__ISO_
  6
CONTINUOUS
 62
    7
 10
118.1249999999998
 20
95.249999999999986
 40
1.499999999999996
  0
CIRCLE
  8
_0-2_Visible__ISO_
  6
CONTINUOUS
 62
    7
 10
100.125
 20
52.249999999999872
 40
1.499999999999996
  0
CIRCLE
  8
_0-2_Visible__ISO_
  6
CONTINUOUS
 62
    7
 10
110.12499999999991
 20
52.250000000000043
 40
1.499999999999996
  0
LINE
  8
_0-2_Visible__ISO_
  6
CONTINUOUS
 62
    7
 10
107.12499999999991
 20
56.361456180001611
 11
107.12499999999991
 21
52.749999999999986
  0
LINE
  8
_0-2_Visible__ISO_
  6
CONTINUOUS
 62
    7
 10
107.12499999999991
 20
52.749999999999986
 11
103.125
 21
52.749999999999901
  0
LINE
  8
_0-2_Visible__ISO_
  6
CONTINUOUS
 62
    7
 10
103.125
 20
52.749999999999901
 11
103.125
 21
56.361456180001625
  0
LINE
  8
_0-2_Visible__ISO_
  6
CONTINUOUS
 62
    7
 10
88.633066615170208
 20
81.462221102429993
 11
85.505453818634805
 21
83.267949192430592
  0
LINE
  8
_0-2_Visible__ISO_
  6
CONTINUOUS
 62
    7
 10
85.505453818634805
 20
83.267949192430592
 11
87.505453818634706
 21
86.732050807568399
  0
LINE
  8
_0-2_Visible__ISO_
  6
CONTINUOUS
 62
    7
 10
87.505453818634706
 20
86.732050807568399
 11
90.633066615170208
 21
84.9263227175678
  0
LINE
  8
_0-2_Visible__ISO_
  6
CONTINUOUS
 62
    7
 10
103.125
 20
92.138543819998091
 11
103.125
 21
96.249999999999787
  0
LINE
  8
_0-2_Visible__ISO_
  6
CONTINUOUS
 62
    7
 10
103.125
 20
96.249999999999787
 11
107.12499999999991
 21
96.249999999999787
  0
LINE
  8
_0-2_Visible__ISO_
  6
CONTINUOUS
 62
    7
 10
107.12499999999991
 20
96.249999999999787
 11
107.12499999999991
 21
92.138543819998091
  0
LINE
  8
_0-2_Visible__ISO_
  6
CONTINUOUS
 62
    7
 10
119.61693338482942
 20
84.926322717568098
 11
123.1775588832574
 21
86.982050807568996
  0
LINE
  8
_0-2_Visible__ISO_
  6
CONTINUOUS
 62
    7
 10
123.1775588832574
 20
86.982050807568996
 11
125.17755888325732
 21
83.517949192431303
  0
LINE
  8
_0-2_Visible__ISO_
  6
CONTINUOUS
 62
    7
 10
125.17755888325732
 20
83.517949192431303
 11
121.61693338482951
 21
81.462221102430291
  0
LINE
  8
_0-2_Visible__ISO_
  6
CONTINUOUS
 62
    7
 10
99.125
 20
49.249999999999872
 11
82.125000000000213
 21
71.249999999999503
  0
LINE
  8
_0-2_Visible__ISO_
  6
CONTINUOUS
 62
    7
 10
111.1249999999998
 20
49.250000000000071
 11
99.125
 21
49.249999999999872
  0
LINE
  8
_0-2_Visible__ISO_
  6
CONTINUOUS
 62
    7
 10
128.12499999999972
 20
71.250000000000298
 11
111.1249999999998
 21
49.250000000000071
  0
ARC
  8
_0-2_Visible__ISO_
  6
CONTINUOUS
 62
    7
 10
105.12499999999991
 20
74.249999999999901
 40
15.999999999999959
 50
37.180755781458998
 51
82.819244218541741
  0
ARC
  8
_0-2_Visible__ISO_
  6
CONTINUOUS
 62
    7
 10
105.12499999999991
 20
74.249999999999901
 40
15.99999999999995
 50
97.180755781458203
 51
142.819244218542
  0
ARC
  8
_0-2_Visible__ISO_
  6
CONTINUOUS
 62
    7
 10
105.12499999999991
 20
74.249999999999901
 40
15.99999999999995
 50
157.18075578145894
 51
262.81924421854171
  0
ARC
  8
_0-2_Visible__ISO_
  6
CONTINUOUS
 62
    7
 10
105.12499999999991
 20
74.249999999999901
 40
15.999999999999959
 50
277.18075578145812
 51
22.819244218541581
  0
ARC
  8
_0-2_Visible__ISO_
  6
CONTINUOUS
 62
    7
 10
105.12499999999991
 20
74.249999999999901
 40
17.999999999999972
 50
276.37937020844271
 51
23.620629791557736
  0
ARC
  8
_0-2_Visible__ISO_
  6
CONTINUOUS
 62
    7
 10
105.12499999999991
 20
74.249999999999901
 40
17.999999999999961
 50
156.37937020844333
 51
263.62062979155735
  0
ARC
  8
_0-2_Visible__ISO_
  6
CONTINUOUS
 62
    7
 10
105.12499999999991
 20
74.249999999999901
 40
17.99999999999995
 50
96.379370208442694
 51
143.62062979155755
  0
ARC
  8
_0-2_Visible__ISO_
  6
CONTINUOUS
 62
    7
 10
105.12499999999991
 20
74.249999999999801
 40
18
 50
36.379370208443767
 51
83.620629791557107
  0
LINE
  8
_0-1_Bend_Centerline__ISO_
  6
CHAIN
 62
    7
 10
130.38694671058443
 20
71.250000000000298
 11
130.38694671058443
 21
99.250000000000099
  0
LINE
  8
_0-1_Bend_Centerline__ISO_
  6
CHAIN
 62
    7
 10
79.863053289415618
 20
99.249999999999503
 11
79.863053289415618
 21
71.249999999999503
  0
LINE
  8
_0-4_2mm
  6
CONTINUOUS
 62
    7
 10
137.64889342116902
 20
100.25000000000011
 11
72.601106578830908
 21
100.24999999999949
  0
LINE
  8
_0-4_2mm
  6
CONTINUOUS
 62
    7
 10
72.601106578830908
 20
100.24999999999949
 11
72.601106578830908
 21
70.249999999999503
  0
LINE
  8
_0-4_2mm
  6
CONTINUOUS
 62
    7
 10
72.601106578830908
 20
70.249999999999503
 11
81.633960111413131
 21
70.249999999999503
  0
LINE
  8
_0-4_2mm
  6
CONTINUOUS
 62
    7
 10
81.633960111413131
 20
70.249999999999503
 11
98.633960111412932
 21
48.249999999999865
  0
LINE
  8
_0-4_2mm
  6
CONTINUOUS
 62
    7
 10
98.633960111412932
 20
48.249999999999865
 11
111.61603988858688
 21
48.250000000000078
  0
LINE
  8
_0-4_2mm
  6
CONTINUOUS
 62
    7
 10
111.61603988858688
 20
48.250000000000078
 11
128.91628500139188
 21
70.63855249892454
  0
CIRCLE
  8
_0-4_2mm
  6
CONTINUOUS
 62
    7
 10
75.601106578830908
 20
95.249999999999503
 40
0.5
  0
CIRCLE
  8
_0-4_2mm
  6
CONTINUOUS
 62
    7
 10
75.601106578830908
 20
75.249999999999503
 40
0.5
  0
CIRCLE
  8
_0-4_2mm
  6
CONTINUOUS
 62
    7
 10
92.125000000000114
 20
95.249999999999588
 40
0.499999999999996
  0
CIRCLE
  8
_0-4_2mm
  6
CONTINUOUS
 62
    7
 10
118.1249999999998
 20
95.249999999999986
 40
0.499999999999996
  0
CIRCLE
  8
_0-4_2mm
  6
CONTINUOUS
 62
    7
 10
134.64889342116871
 20
95.249999999999503
 40
0.5
  0
CIRCLE
  8
_0-4_2mm
  6
CONTINUOUS
 62
    7
 10
134.64889342116871
 20
75.249999999999503
 40
0.5
  0
CIRCLE
  8
_0-4_2mm
  6
CONTINUOUS
 62
    7
 10
110.12499999999991
 20
52.250000000000043
 40
0.499999999999996
  0
CIRCLE
  8
_0-4_2mm
  6
CONTINUOUS
 62
    7
 10
100.125
 20
52.249999999999872
 40
0.499999999999996
  0
ARC
  8
_0-4_2mm
  6
CONTINUOUS
 62
    7
 10
105.12499999999991
 20
74.249999999999901
 40
14.999999999999959
 50
37.180755781458998
 51
97.180755781458203
  0
ARC
  8
_0-4_2mm
  6
CONTINUOUS
 62
    7
 10
105.12499999999991
 20
74.249999999999901
 40
14.99999999999995
 50
97.180755781458203
 51
157.18075578145894
  0
ARC
  8
_0-4_2mm
  6
CONTINUOUS
 62
    7
 10
105.12499999999991
 20
74.249999999999901
 40
14.99999999999995
 50
157.18075578145894
 51
277.18075578145812
  0
CIRCLE
  8
_0-4_2mm
  6
CONTINUOUS
 62
    7
 10
105.12499999999991
 20
74.249999999999901
 40
14.999999999999959
  0
LINE
  8
_0-4_2mm
  6
CONTINUOUS
 62
    7
 10
128.91628500139188
 20
70.63855249892454
 11
137.64889342116902
 21
70.63855249892454
  0
LINE
  8
_0-4_2mm
  6
CONTINUOUS
 62
    7
 10
137.64889342116902
 20
70.63855249892454
 11
137.64889342116902
 21
100.25000000000011
  0
LINE
  8
_0-6_0_5mm
  6
CONTINUOUS
 62
    7
 10
130.38694671058443
 20
99.250000000000099
 11
130.38694671058443
 21
71.250000000000298
  0
LINE
  8
_0-6_0_5mm
  6
CONTINUOUS
 62
    7
 10
79.863053289415618
 20
71.249999999999503
 11
79.863053289415618
 21
99.249999999999559
  0
ENDSEC
  0
EOF
