  0
SECTION
  2
HEADER
  9
$ACADVER
  1
AC1009
  9
$INSBASE
 10
0
 20
0
 30
0
  9
$EXTMIN
 10
0
 20
0
  9
$EXTMAX
 10
210.25
 20
148.5
  9
$LIMMIN
 10
0
 20
0
  9
$LIMMAX
 10
210.25
 20
148.5
  9
$LTSCALE
 40
0.25
  0
ENDSEC
  0
SECTION
  2
TABLES
  0
TABLE
  2
LTYPE
 70
     9
  0
LTYPE
  2
CONTINUOUS
 70
    64
  3
実線
 72
    65
 73
     0
 40
0.0
  0
LTYPE
  2
DASHED1
 70
    64
  3
--  --  --  --  --  --  --  --  
 72
    65
 73
     2
 40
2.5
 49
1.25
 49
-1.25
  0
LTYPE
  2
DASHED2
 70
    64
  3
----    ----    ----    ----    
 72
    65
 73
     2
 40
5.0
 49
2.5
 49
-2.5
  0
LTYPE
  2
DASHED3
 70
    64
  3
------  ------  ------  ------  
 72
    65
 73
     2
 40
5.0
 49
3.75
 49
-1.25
  0
LTYPE
  2
CENTER1
 70
    64
  3
----- - ----- - ----- - ----- - 
 72
    65
 73
     4
 40
10.0
 49
6.25
 49
-1.25
 49
1.25
 49
-1.25
  0
LTYPE
  2
CENTER2
 70
    64
  3
----------  --  ----------  --  
 72
    65
 73
     4
 40
20.0
 49
12.5
 49
-2.5
 49
2.5
 49
-2.5
  0
LTYPE
  2
PHANTOM1
 70
    64
  3
--- - - --- - - --- - - --- - - 
 72
    65
 73
     6
 40
10.0
 49
3.25
 49
-1.25
 49
1.25
 49
-1.25
 49
1.25
 49
-1.25
  0
LTYPE
  2
PHANTOM2
 70
    64
  3
--------  -  -  --------  -  -  
 72
    65
 73
     6
 40
20.0
 49
10.0
 49
-2.5
 49
1.25
 49
-2.5
 49
1.25
 49
-2.5
  0
LTYPE
  2
DOT
 70
    64
  3
-   -   -   -   -   -   -   -   
 72
    65
 73
     2
 40
2.5
 49
0.625
 49
-1.875
  0
LTYPE
  2
DUMMY
 70
    64
  3
ダミー
 72
    65
 73
     0
 40
0.0
  0
LTYPE
  2
RAND1
 70
    64
  3
ランダム線1
 72
    65
 73
     4
 40
10.0
 49
1.0
 49
-2.0
 49
3.0
 49
-4.0
  0
LTYPE
  2
RAND2
 70
    64
  3
ランダム線2
 72
    65
 73
     4
 40
14.0
 49
2.0
 49
-3.0
 49
4.0
 49
-5.0
  0
LTYPE
  2
RAND3
 70
    64
  3
ランダム線3
 72
    65
 73
     4
 40
18.0
 49
3.0
 49
-4.0
 49
5.0
 49
-6.0
  0
LTYPE
  2
RAND4
 70
    64
  3
ランダム線4
 72
    65
 73
     4
 40
22.0
 49
4.0
 49
-5.0
 49
6.0
 49
-7.0
  0
LTYPE
  2
RAND5
 70
    64
  3
ランダム線5
 72
    65
 73
     4
 40
26.0
 49
5.0
 49
-6.0
 49
7.0
 49
-8.0
  0
LTYPE
  2
LONG1
 70
    64
  3
----------  --  ----------  --  
 72
    65
 73
     4
 40
40.0
 49
32.5
 49
-2.5
 49
2.5
 49
-2.5
  0
LTYPE
  2
LONG2
 70
    64
  3
--------  -  -  --------  -  -  
 72
    65
 73
     6
 40
40.0
 49
30.0
 49
-2.5
 49
1.25
 49
-2.5
 49
1.25
 49
-2.5
  0
LTYPE
  2
LONG3
 70
    64
  3
+++++++++++++++..+++++++++++++++
 72
    65
 73
     2
 40
40.0
 49
37.5
 49
-2.5
  0
LTYPE
  2
LONG4
 70
    64
  3
+++++++++++++++..+++++++++++++++
 72
    65
 73
     2
 40
80.0
 49
75.0
 49
-5.0
  0
LTYPE
  2
LONG5
 70
    64
  3
----------  --  ----------  --  
 72
    65
 73
     4
 40
60.0
 49
37.5
 49
-7.5
 49
7.5
 49
-7.5
  0
LTYPE
  2
dashed
 70
   64
  3
-------   -------------   ------
 72
   65
 73
    2
 40
7.5
 49
6
 49
-1.5
  0
LTYPE
  2
dashed_spaced
 70
   64
  3
----        --------        ----
 72
   65
 73
    2
 40
12
 49
6
 49
-6
  0
LTYPE
  2
long_dashed_dotted
 70
   64
  3
------------- --- --------------
 72
   65
 73
    4
 40
15.25
 49
12
 49
-1.5
 49
0.25
 49
-1.5
  0
LTYPE
  2
long_dashed_double-dotted
 70
   64
  3
----------- --- --- ------------
 72
   65
 73
    6
 40
17
 49
12
 49
-1.5
 49
0.25
 49
-1.5
 49
0.25
 49
-1.5
  0
LTYPE
  2
long_dashed_triplicate-dotted
 70
   64
  3
--------- --- --- --- ----------
 72
   65
 73
    8
 40
18.75
 49
12
 49
-1.5
 49
0.25
 49
-1.5
 49
0.25
 49
-1.5
 49
0.25
 49
-1.5
  0
LTYPE
  2
dotted
 70
   64
  3
   -       -       -       -    
 72
   65
 73
    2
 40
1.75
 49
0.25
 49
-1.5
  0
LTYPE
  2
chain
 70
   64
  3
-------------- -- --------------
 72
   65
 73
    4
 40
18.5
 49
12
 49
-1.5
 49
3.5
 49
-1.5
  0
LTYPE
  2
chain_double_dash
 70
   64
  3
------------ -- -- -------------
 72
   65
 73
    6
 40
23.5
 49
12
 49
-1.5
 49
3.5
 49
-1.5
 49
3.5
 49
-1.5
  0
LTYPE
  2
dashed_dotted
 70
   64
  3
-----------     -     ----------
 72
   65
 73
    4
 40
9.25
 49
6
 49
-1.5
 49
0.25
 49
-1.5
  0
LTYPE
  2
double-dashed_dotted
 70
   64
  3
------   -----------   -   -----
 72
   65
 73
    6
 40
16.75
 49
6
 49
-1.5
 49
6
 49
-1.5
 49
0.25
 49
-1.5
  0
LTYPE
  2
dashed_double-dotted
 70
   64
  3
---------    -    -    ---------
 72
   65
 73
    6
 40
11
 49
6
 49
-1.5
 49
0.25
 49
-1.5
 49
0.25
 49
-1.5
  0
LTYPE
  2
double-dashed_double-dotted
 70
   64
  3
-----   ---------   -   -   ----
 72
   65
 73
    8
 40
18.5
 49
6
 49
-1.5
 49
6
 49
-1.5
 49
0.25
 49
-1.5
 49
0.25
 49
-1.5
  0
LTYPE
  2
dashed_triplicate-dotted
 70
   64
  3
-------    -    -    -    ------
 72
   65
 73
    8
 40
12.75
 49
6
 49
-1.5
 49
0.25
 49
-1.5
 49
0.25
 49
-1.5
 49
0.25
 49
-1.5
  0
LTYPE
  2
double-dashed_triplicate-dotted
 70
   64
  3
-----  ---------  -  -  -  -----
 72
   65
 73
   10
 40
20.25
 49
6
 49
-1.5
 49
6
 49
-1.5
 49
0.25
 49
-1.5
 49
0.25
 49
-1.5
 49
0.25
 49
-1.5
  0
LTYPE
  2
undefined
 70
   64
  3
--------------------------------
 72
   65
 73
    0
 40
0
  0
LTYPE
  2
CHAIN
 70
   64
  3
-----------   -----   ----------
 72
   65
 73
    4
 40
0.3542999999999999
 49
0.2361999999999999
 49
-0.0294999999999999
 49
0.0591
 49
-0.0294999999999999
  0
LTYPE
  2
DASH_DOT
 70
   64
  3
-----------     -     ----------
 72
   65
 73
    4
 40
0.37
 49
0.2399999999999999
 49
-0.0599999999999999
 49
0.01
 49
-0.0599999999999999
  0
LTYPE
  2
DASH_DOUBLE_DOT
 70
   64
  3
---------    -    -    ---------
 72
   65
 73
    6
 40
0.4397999999999999
 49
0.2399999999999999
 49
-0.0599999999999999
 49
0.0097999999999999
 49
-0.0599999999999999
 49
0.01
 49
-0.0599999999999999
  0
LTYPE
  2
DASH_TRIPLE_DOT
 70
   64
  3
-------    -    -    -    ------
 72
   65
 73
    8
 40
0.51
 49
0.2399999999999999
 49
-0.0599999999999999
 49
0.01
 49
-0.0599999999999999
 49
0.01
 49
-0.0599999999999999
 49
0.01
 49
-0.0599999999999999
  0
LTYPE
  2
DASHED
 70
   64
  3
-------   -------------   ------
 72
   65
 73
    2
 40
0.2066999999999999
 49
0.1653999999999999
 49
-0.0413
  0
LTYPE
  2
DASHED_SPACE
 70
   64
  3
----        --------        ----
 72
   65
 73
    2
 40
0.0826
 49
0.0413
 49
-0.0413
  0
LTYPE
  2
DOTTED
 70
   64
  3
-              --              -
 72
   65
 73
    2
 40
0.0482
 49
0.0068999999999999
 49
-0.0413
  0
LTYPE
  2
DOUBLE_DASH_CHAIN
 70
   64
  3
---------  ----  ----  ---------
 72
   65
 73
    6
 40
1.2403
 49
0.6613999999999999
 49
-0.0826999999999999
 49
0.1653999999999999
 49
-0.0826999999999999
 49
0.1653999999999999
 49
-0.0826999999999999
  0
LTYPE
  2
DOUBLE_DASH_DOT
 70
   64
  3
------   -----------   -   -----
 72
   65
 73
    6
 40
0.6700000000000001
 49
0.2399999999999999
 49
-0.0599999999999999
 49
0.2399999999999999
 49
-0.0599999999999999
 49
0.01
 49
-0.0599999999999999
  0
LTYPE
  2
DOUBLE_DASH_DOUBLE_DOT
 70
   64
  3
-----   ---------   -   -   ----
 72
   65
 73
    8
 40
0.7400000000000002
 49
0.2399999999999999
 49
-0.0599999999999999
 49
0.2399999999999999
 49
-0.0599999999999999
 49
0.01
 49
-0.0599999999999999
 49
0.01
 49
-0.0599999999999999
  0
LTYPE
  2
LONG_DASH_DOTTED
 70
   64
  3
-------------   -   ------------
 72
   65
 73
    4
 40
0.6100000000000001
 49
0.4799999999999999
 49
-0.0599999999999999
 49
0.01
 49
-0.0599999999999999
  0
LTYPE
  2
LONG_DASH_DOUBLE_DOT
 70
   64
  3
-----------   -   -   ----------
 72
   65
 73
    6
 40
0.3345
 49
0.2361999999999999
 49
-0.0294999999999999
 49
0.0048999999999999
 49
-0.0294999999999999
 49
0.0048999999999999
 49
-0.0294999999999999
  0
LTYPE
  2
LONG_DASH_TRIPLE_DOT
 70
   64
  3
---------   -   -   -   --------
 72
   65
 73
    8
 40
0.7500000000000002
 49
0.4799999999999999
 49
-0.0599999999999999
 49
0.01
 49
-0.0599999999999999
 49
0.01
 49
-0.0599999999999999
 49
0.01
 49
-0.0599999999999999
  0
LTYPE
  2
BORDER
 70
   64
  3
----     --------     -     ----
 72
   65
 73
    6
 40
44.459999999999994
 49
12.699999999999999
 49
-6.3499999999999988
 49
12.699999999999999
 49
-6.3499999999999988
 49
0.01
 49
-6.3499999999999988
  0
LTYPE
  2
BORDER2
 70
   64
  3
----     --------     -     ----
 72
   65
 73
    6
 40
22.234999999999999
 49
6.3499999999999988
 49
-3.1749999999999989
 49
6.3499999999999988
 49
-3.1749999999999989
 49
0.01
 49
-3.1749999999999989
  0
LTYPE
  2
BORDERX2
 70
   64
  3
----     --------     -     ----
 72
   65
 73
    6
 40
88.909999999999997
 49
25.399999999999999
 49
-12.699999999999999
 49
25.399999999999999
 49
-12.699999999999999
 49
0.01
 49
-12.699999999999999
  0
ENDTAB
  0
TABLE
  2
STYLE
  5
3
100
AcDbSymbolTable
 70
     1
  0
STYLE
  5
10
100
AcDbSymbolTableRecord
100
AcDbTextStyleTableRecord
  2
STANDARD
 70
     0
 40
0.0
 41
1.0
 50
0.0
 71
     0
 42
0.2
  3
txt
  4
bigfont.shx
  0
STYLE
  5
26
100
AcDbSymbolTableRecord
100
AcDbTextStyleTableRecord
  2
TATEGAKI
 70
    68
 40
0.0
 41
1.0
 50
0.0
 71
     0
 42
1.0
  3
txt
  4
bigfont.shx
  0
ENDTAB
  0
TABLE
  2
LAYER
 70
    5
  0
LAYER
  2
_0-1_Bend_Centerline__ISO_
 70
   64
 62
    7
  6
CONTINUOUS
  0
LAYER
  2
_0-3_Visible__ISO_
 70
   64
 62
    7
  6
CONTINUOUS
  0
LAYER
  2
_0-4_2mm
 70
   64
 62
    7
  6
CONTINUOUS
  0
LAYER
  2
_0-5_0_5mm
 70
   64
 62
    7
  6
CONTINUOUS
  0
LAYER
  2
ADD_LINE
 70
   64
 62
    7
  6
CONTINUOUS
  0
ENDTAB
  0
ENDSEC
  0
SECTION
  2
BLOCKS
  0
ENDSEC
  0
SECTION
  2
ENTITIES
  0
LINE
  8
_0-4_2mm
  6
CONTINUOUS
 62
    7
 10
137.05039160786674
 20
46.013006580555519
 11
142.85493911132323
 21
51.172604361405753
  0
LINE
  8
_0-3_Visible__ISO_
  6
CONTINUOUS
 62
    7
 10
136.38602776903682
 20
46.760415899239177
 11
142.19057527249331
 21
51.920013680089411
  0
LINE
  8
_0-3_Visible__ISO_
  6
CONTINUOUS
 62
    7
 10
68.252672880319906
 20
52.384904020646232
 11
74.580222016902809
 21
46.760415899239192
  0
LINE
  8
_0-3_Visible__ISO_
  6
CONTINUOUS
 62
    7
 10
76.716880082826307
 20
62.750053173973839
 11
69.121273853639707
 21
58.952250059380532
  0
LINE
  8
_0-3_Visible__ISO_
  6
CONTINUOUS
 62
    7
 10
68.92802570082651
 20
79.644480364973703
 11
76.716880082826307
 21
75.750053173973797
  0
LINE
  8
_0-3_Visible__ISO_
  6
CONTINUOUS
 62
    7
 10
134.2493697031133
 20
65.222189128973412
 11
134.2493697031133
 21
73.277917218974196
  0
LINE
  8
_0-3_Visible__ISO_
  6
CONTINUOUS
 62
    7
 10
141.32197429917352
 20
59.213750875943731
 11
136.46051532111341
 21
61.644480364973745
  0
LINE
  8
_0-3_Visible__ISO_
  6
CONTINUOUS
 62
    7
 10
142.86132109452501
 20
86.832126086856192
 11
133.43683584651271
 21
100.9688539588747
  0
LINE
  8
_0-3_Visible__ISO_
  6
CONTINUOUS
 62
    7
 10
136.46051532111341
 20
76.855625982973891
 11
141.32197429917352
 21
79.286355472003891
  0
LINE
  8
_0-3_Visible__ISO_
  6
CONTINUOUS
 62
    7
 10
76.716880082826307
 20
62.750053173973839
 11
76.716880082826307
 21
75.750053173973797
  0
ARC
  8
_0-3_Visible__ISO_
  6
CONTINUOUS
 62
    7
 10
77.237677372222507
 20
49.750053173973853
 40
4.0000000000000053
 50
228.3664606634299
 51
262.518889459918
  0
ARC
  8
_0-3_Visible__ISO_
  6
CONTINUOUS
 62
    7
 10
133.7285724137171
 20
49.750053173973882
 40
4.0000000000000746
 50
270
 51
311.63353933656958
  0
ARC
  8
_0-3_Visible__ISO_
  6
CONTINUOUS
 62
    7
 10
70.910128235639505
 20
55.37454129538088
 40
3.9999999999999969
 50
116.56505117707819
 51
228.3664606634303
  0
ARC
  8
_0-3_Visible__ISO_
  6
CONTINUOUS
 62
    7
 10
70.716880082826307
 20
83.222189128973397
 40
4.0000000000000107
 50
180
 51
243.434948822922
  0
ARC
  8
_0-3_Visible__ISO_
  6
CONTINUOUS
 62
    7
 10
70.716880082826307
 20
83.538950623045793
 40
4.0000000000000302
 50
146.30993247402009
 51
180
  0
ARC
  8
_0-3_Visible__ISO_
  6
CONTINUOUS
 62
    7
 10
130.10863466916132
 20
98.750053173973797
 40
3.9999999999999991
 50
33.69006752597965
 51
90
  0
ARC
  8
_0-3_Visible__ISO_
  6
CONTINUOUS
 62
    7
 10
139.53311991717362
 20
84.6133253019553
 40
4.0000000000000098
 50
0
 51
33.690067525979863
  0
ARC
  8
_0-3_Visible__ISO_
  6
CONTINUOUS
 62
    7
 10
139.53311991717371
 20
82.8640642360036
 40
3.9999999999999871
 50
296.56505117707758
 51
0.0000000000000127
  0
ARC
  8
_0-3_Visible__ISO_
  6
CONTINUOUS
 62
    7
 10
138.2493697031133
 20
73.277917218974196
 40
3.9999999999999978
 50
116.56505117707812
 51
180
  0
ARC
  8
_0-3_Visible__ISO_
  6
CONTINUOUS
 62
    7
 10
138.24936970311322
 20
65.222189128973412
 40
3.999999999999996
 50
180
 51
243.4349488229218
  0
ARC
  8
_0-3_Visible__ISO_
  6
CONTINUOUS
 62
    7
 10
139.53311991717362
 20
55.63604211194405
 40
4
 50
0
 51
63.434948822921903
  0
ARC
  8
_0-3_Visible__ISO_
  6
CONTINUOUS
 62
    7
 10
139.53311991717362
 20
54.909650954824059
 40
3.999999999999996
 50
311.6335393365701
 51
0
  0
LINE
  8
_0-3_Visible__ISO_
  6
CONTINUOUS
 62
    7
 10
143.53311991717371
 20
84.6133253019553
 11
143.53311991717371
 21
82.8640642360036
  0
LINE
  8
_0-3_Visible__ISO_
  6
CONTINUOUS
 62
    7
 10
143.53311991717371
 20
55.63604211194405
 11
143.53311991717371
 21
54.909650954824059
  0
CIRCLE
  8
_0-3_Visible__ISO_
  6
CONTINUOUS
 62
    7
 10
139.24936970311322
 20
55.750053173973825
 40
1.5
  0
CIRCLE
  8
_0-3_Visible__ISO_
  6
CONTINUOUS
 62
    7
 10
139.24936970311322
 20
82.750053173973797
 40
1.5
  0
CIRCLE
  8
_0-3_Visible__ISO_
  6
CONTINUOUS
 62
    7
 10
71.716880082826307
 20
55.750053173973853
 40
1.5
  0
CIRCLE
  8
_0-3_Visible__ISO_
  6
CONTINUOUS
 62
    7
 10
71.716880082826307
 20
82.750053173973797
 40
1.5
  0
LINE
  8
_0-3_Visible__ISO_
  6
CONTINUOUS
 62
    7
 10
105.49475574085722
 20
85.250053173973797
 11
105.49475574085722
 21
101.2500531739738
  0
LINE
  8
_0-3_Visible__ISO_
  6
CONTINUOUS
 62
    7
 10
105.49475574085722
 20
101.2500531739738
 11
121.49475574085722
 21
101.2500531739738
  0
LINE
  8
_0-3_Visible__ISO_
  6
CONTINUOUS
 62
    7
 10
121.49475574085722
 20
101.2500531739738
 11
121.49475574085722
 21
85.250053173973797
  0
LINE
  8
_0-3_Visible__ISO_
  6
CONTINUOUS
 62
    7
 10
121.49475574085722
 20
85.250053173973797
 11
105.49475574085722
 21
85.250053173973797
  0
LINE
  8
_0-3_Visible__ISO_
  6
CONTINUOUS
 62
    7
 10
121.49475574085722
 20
82.250053173973797
 11
121.49475574085722
 21
66.250053173973853
  0
LINE
  8
_0-3_Visible__ISO_
  6
CONTINUOUS
 62
    7
 10
121.49475574085722
 20
66.250053173973853
 11
105.49475574085722
 21
66.250053173973853
  0
LINE
  8
_0-3_Visible__ISO_
  6
CONTINUOUS
 62
    7
 10
105.49475574085722
 20
66.250053173973853
 11
105.49475574085722
 21
82.250053173973797
  0
LINE
  8
_0-3_Visible__ISO_
  6
CONTINUOUS
 62
    7
 10
105.49475574085722
 20
82.250053173973797
 11
121.49475574085722
 21
82.250053173973797
  0
LINE
  8
_0-3_Visible__ISO_
  6
CONTINUOUS
 62
    7
 10
105.49475574085722
 20
47.250053173973811
 11
105.49475574085722
 21
63.250053173973825
  0
LINE
  8
_0-3_Visible__ISO_
  6
CONTINUOUS
 62
    7
 10
105.49475574085722
 20
63.250053173973825
 11
121.49475574085722
 21
63.250053173973825
  0
LINE
  8
_0-3_Visible__ISO_
  6
CONTINUOUS
 62
    7
 10
121.49475574085722
 20
63.250053173973825
 11
121.49475574085722
 21
47.250053173973825
  0
LINE
  8
_0-3_Visible__ISO_
  6
CONTINUOUS
 62
    7
 10
121.49475574085722
 20
47.250053173973825
 11
105.49475574085722
 21
47.250053173973811
  0
LINE
  8
_0-3_Visible__ISO_
  6
CONTINUOUS
 62
    7
 10
120.49475574085722
 20
86.250053173973797
 11
120.49475574085722
 21
100.2500531739738
  0
LINE
  8
_0-3_Visible__ISO_
  6
CONTINUOUS
 62
    7
 10
106.49475574085722
 20
86.250053173973797
 11
120.49475574085722
 21
86.250053173973797
  0
LINE
  8
_0-3_Visible__ISO_
  6
CONTINUOUS
 62
    7
 10
106.49475574085722
 20
100.2500531739738
 11
106.49475574085722
 21
86.250053173973797
  0
LINE
  8
_0-3_Visible__ISO_
  6
CONTINUOUS
 62
    7
 10
120.49475574085722
 20
100.2500531739738
 11
106.49475574085722
 21
100.2500531739738
  0
LINE
  8
_0-3_Visible__ISO_
  6
CONTINUOUS
 62
    7
 10
106.49475574085722
 20
81.250053173973797
 11
106.49475574085722
 21
67.250053173973797
  0
LINE
  8
_0-3_Visible__ISO_
  6
CONTINUOUS
 62
    7
 10
120.49475574085722
 20
81.250053173973797
 11
106.49475574085722
 21
81.250053173973797
  0
LINE
  8
_0-3_Visible__ISO_
  6
CONTINUOUS
 62
    7
 10
120.49475574085722
 20
67.250053173973797
 11
120.49475574085722
 21
81.250053173973797
  0
LINE
  8
_0-3_Visible__ISO_
  6
CONTINUOUS
 62
    7
 10
106.49475574085722
 20
67.250053173973797
 11
120.49475574085722
 21
67.250053173973797
  0
LINE
  8
_0-3_Visible__ISO_
  6
CONTINUOUS
 62
    7
 10
120.49475574085722
 20
48.250053173973811
 11
120.49475574085722
 21
62.250053173973825
  0
LINE
  8
_0-3_Visible__ISO_
  6
CONTINUOUS
 62
    7
 10
106.49475574085722
 20
48.250053173973825
 11
120.49475574085722
 21
48.250053173973811
  0
LINE
  8
_0-3_Visible__ISO_
  6
CONTINUOUS
 62
    7
 10
106.49475574085722
 20
62.250053173973825
 11
106.49475574085722
 21
48.250053173973825
  0
LINE
  8
_0-3_Visible__ISO_
  6
CONTINUOUS
 62
    7
 10
120.49475574085722
 20
62.250053173973825
 11
106.49475574085722
 21
62.250053173973825
  0
LINE
  8
_0-3_Visible__ISO_
  6
CONTINUOUS
 62
    7
 10
83.740773503995612
 20
85.250053173973797
 11
83.740773503995612
 21
101.2500531739738
  0
LINE
  8
_0-3_Visible__ISO_
  6
CONTINUOUS
 62
    7
 10
83.740773503995612
 20
101.2500531739738
 11
99.740773503995712
 21
101.2500531739738
  0
LINE
  8
_0-3_Visible__ISO_
  6
CONTINUOUS
 62
    7
 10
99.740773503995712
 20
101.2500531739738
 11
99.740773503995598
 21
85.250053173973797
  0
LINE
  8
_0-3_Visible__ISO_
  6
CONTINUOUS
 62
    7
 10
99.740773503995598
 20
85.250053173973797
 11
83.740773503995612
 21
85.250053173973797
  0
LINE
  8
_0-3_Visible__ISO_
  6
CONTINUOUS
 62
    7
 10
99.740773503995598
 20
82.250053173973797
 11
99.740773503995598
 21
66.250053173973853
  0
LINE
  8
_0-3_Visible__ISO_
  6
CONTINUOUS
 62
    7
 10
99.740773503995598
 20
66.250053173973853
 11
83.740773503995612
 21
66.250053173973853
  0
LINE
  8
_0-3_Visible__ISO_
  6
CONTINUOUS
 62
    7
 10
83.740773503995612
 20
66.250053173973853
 11
83.740773503995612
 21
82.250053173973797
  0
LINE
  8
_0-3_Visible__ISO_
  6
CONTINUOUS
 62
    7
 10
83.740773503995612
 20
82.250053173973797
 11
99.740773503995598
 21
82.250053173973797
  0
LINE
  8
_0-3_Visible__ISO_
  6
CONTINUOUS
 62
    7
 10
83.740773503995612
 20
47.250053173973825
 11
83.740773503995612
 21
63.250053173973853
  0
LINE
  8
_0-3_Visible__ISO_
  6
CONTINUOUS
 62
    7
 10
83.740773503995612
 20
63.250053173973853
 11
99.740773503995598
 21
63.250053173973853
  0
LINE
  8
_0-3_Visible__ISO_
  6
CONTINUOUS
 62
    7
 10
99.740773503995598
 20
63.250053173973853
 11
99.740773503995598
 21
47.250053173973825
  0
LINE
  8
_0-3_Visible__ISO_
  6
CONTINUOUS
 62
    7
 10
99.740773503995598
 20
47.250053173973825
 11
83.740773503995612
 21
47.250053173973825
  0
LINE
  8
_0-3_Visible__ISO_
  6
CONTINUOUS
 62
    7
 10
84.740773503995612
 20
62.250053173973853
 11
84.740773503995612
 21
48.250053173973853
  0
LINE
  8
_0-3_Visible__ISO_
  6
CONTINUOUS
 62
    7
 10
98.740773503995712
 20
62.250053173973825
 11
84.740773503995612
 21
62.250053173973853
  0
LINE
  8
_0-3_Visible__ISO_
  6
CONTINUOUS
 62
    7
 10
98.740773503995598
 20
48.250053173973853
 11
98.740773503995712
 21
62.250053173973825
  0
LINE
  8
_0-3_Visible__ISO_
  6
CONTINUOUS
 62
    7
 10
84.740773503995612
 20
48.250053173973853
 11
98.740773503995598
 21
48.250053173973853
  0
LINE
  8
_0-3_Visible__ISO_
  6
CONTINUOUS
 62
    7
 10
84.740773503995612
 20
81.250053173973697
 11
84.740773503995612
 21
67.250053173973697
  0
LINE
  8
_0-3_Visible__ISO_
  6
CONTINUOUS
 62
    7
 10
98.740773503995598
 20
81.250053173973697
 11
84.740773503995612
 21
81.250053173973697
  0
LINE
  8
_0-3_Visible__ISO_
  6
CONTINUOUS
 62
    7
 10
98.740773503995598
 20
67.250053173973697
 11
98.740773503995598
 21
81.250053173973697
  0
LINE
  8
_0-3_Visible__ISO_
  6
CONTINUOUS
 62
    7
 10
84.740773503995612
 20
67.250053173973697
 11
98.740773503995598
 21
67.250053173973697
  0
LINE
  8
_0-3_Visible__ISO_
  6
CONTINUOUS
 62
    7
 10
84.740773503995612
 20
100.2500531739738
 11
84.740773503995612
 21
86.250053173973797
  0
LINE
  8
_0-3_Visible__ISO_
  6
CONTINUOUS
 62
    7
 10
98.740773503995598
 20
100.2500531739738
 11
84.740773503995612
 21
100.2500531739738
  0
LINE
  8
_0-3_Visible__ISO_
  6
CONTINUOUS
 62
    7
 10
98.740773503995598
 20
86.250053173973797
 11
98.740773503995598
 21
100.2500531739738
  0
LINE
  8
_0-3_Visible__ISO_
  6
CONTINUOUS
 62
    7
 10
84.740773503995612
 20
86.250053173973797
 11
98.740773503995598
 21
86.250053173973797
  0
LINE
  8
_0-3_Visible__ISO_
  6
CONTINUOUS
 62
    7
 10
133.7285724137171
 20
45.750053173973825
 11
77.092921713441015
 21
45.750053173973839
  0
LINE
  8
_0-3_Visible__ISO_
  6
CONTINUOUS
 62
    7
 10
78.224844556549414
 20
102.7500531739738
 11
130.10863466916132
 21
102.7500531739738
  0
LINE
  8
_0-3_Visible__ISO_
  6
CONTINUOUS
 62
    7
 10
66.716880082826307
 20
83.222189128973397
 11
66.716880082826307
 21
83.538950623045892
  0
LINE
  8
_0-1_Bend_Centerline__ISO_
  6
CHAIN
 62
    7
 10
78.978826793411017
 20
45.750053173973839
 11
78.978826793411017
 21
102.7500531739738
  0
LINE
  8
_0-1_Bend_Centerline__ISO_
  6
CHAIN
 62
    7
 10
102.61776462242642
 20
45.750053173973825
 11
102.61776462242642
 21
102.7500531739738
  0
LINE
  8
_0-1_Bend_Centerline__ISO_
  6
CHAIN
 62
    7
 10
126.10708357952302
 20
102.7500531739738
 11
126.10708357952302
 21
45.750053173973825
  0
LINE
  8
_0-4_2mm
  6
CONTINUOUS
 62
    7
 10
65.716880082826307
 20
83.222189128973397
 11
65.716880082826307
 21
83.538950623045892
  0
LINE
  8
_0-4_2mm
  6
CONTINUOUS
 62
    7
 10
144.53311991717371
 20
84.6133253019553
 11
144.53311991717371
 21
82.8640642360036
  0
LINE
  8
_0-4_2mm
  6
CONTINUOUS
 62
    7
 10
133.7285724137171
 20
44.750053173973825
 11
77.092921713441015
 21
44.750053173973839
  0
LINE
  8
_0-4_2mm
  6
CONTINUOUS
 62
    7
 10
66.545532085527086
 20
86.295434809226663
 11
77.676521787866321
 21
103.7500531739738
  0
LINE
  8
_0-4_2mm
  6
CONTINUOUS
 62
    7
 10
77.676521787866321
 20
103.7500531739738
 11
130.10863466916132
 21
103.7500531739738
  0
LINE
  8
_0-4_2mm
  6
CONTINUOUS
 62
    7
 10
144.53311991717371
 20
55.63604211194405
 11
144.53311991717371
 21
54.909650954824059
  0
ARC
  8
_0-4_2mm
  6
CONTINUOUS
 62
    7
 10
70.716880082826307
 20
83.538950623045793
 40
5.0000000000000302
 50
146.30993247402009
 51
180
  0
ARC
  8
_0-4_2mm
  6
CONTINUOUS
 62
    7
 10
70.716880082826307
 20
83.222189128973397
 40
5.0000000000000107
 50
180
 51
243.434948822922
  0
ARC
  8
_0-4_2mm
  6
CONTINUOUS
 62
    7
 10
130.10863466916132
 20
98.750053173973797
 40
4.9999999999999991
 50
33.69006752597965
 51
90
  0
ARC
  8
_0-4_2mm
  6
CONTINUOUS
 62
    7
 10
139.53311991717371
 20
82.8640642360036
 40
4.9999999999999876
 50
296.56505117707758
 51
0.0000000000000127
  0
ARC
  8
_0-4_2mm
  6
CONTINUOUS
 62
    7
 10
139.53311991717362
 20
84.6133253019553
 40
5.0000000000000098
 50
0
 51
33.690067525979863
  0
ARC
  8
_0-4_2mm
  6
CONTINUOUS
 62
    7
 10
139.53311991717362
 20
55.63604211194405
 40
5
 50
0
 51
63.434948822921903
  0
ARC
  8
_0-4_2mm
  6
CONTINUOUS
 62
    7
 10
139.53311991717362
 20
54.909650954824059
 40
4.9999999999999964
 50
311.6335393365701
 51
0
  0
ARC
  8
_0-4_2mm
  6
CONTINUOUS
 62
    7
 10
133.7285724137171
 20
49.750053173973882
 40
5.0000000000000746
 50
270
 51
311.63353933656958
  0
ARC
  8
_0-4_2mm
  6
CONTINUOUS
 62
    7
 10
77.237677372222507
 20
49.750053173973853
 40
5.0000000000000053
 50
228.3664606634299
 51
262.518889459918
  0
ARC
  8
_0-4_2mm
  6
CONTINUOUS
 62
    7
 10
70.910128235639505
 20
55.37454129538088
 40
4.9999999999999964
 50
116.56505117707819
 51
228.3664606634303
  0
LINE
  8
_0-4_2mm
  6
CONTINUOUS
 62
    7
 10
143.69337138886286
 20
87.386826283081419
 11
134.26888614085055
 21
101.52355415509993
  0
LINE
  8
_0-4_2mm
  6
CONTINUOUS
 62
    7
 10
136.90772891661337
 20
75.96119879197397
 11
141.76918789467345
 21
78.39192828100397
  0
ARC
  8
_0-4_2mm
  6
CONTINUOUS
 62
    7
 10
138.2493697031133
 20
73.277917218974196
 40
2.9999999999999978
 50
116.56505117707812
 51
180
  0
LINE
  8
_0-4_2mm
  6
CONTINUOUS
 62
    7
 10
135.2493697031133
 20
65.222189128973412
 11
135.2493697031133
 21
73.277917218974196
  0
ARC
  8
_0-4_2mm
  6
CONTINUOUS
 62
    7
 10
138.24936970311322
 20
65.222189128973412
 40
2.999999999999996
 50
180
 51
243.4349488229218
  0
LINE
  8
_0-4_2mm
  6
CONTINUOUS
 62
    7
 10
141.76918789467348
 20
60.108178066943651
 11
136.90772891661337
 21
62.538907555973665
  0
LINE
  8
_0-4_2mm
  6
CONTINUOUS
 62
    7
 10
67.588309041489993
 20
51.637494701962574
 11
73.915858178072881
 21
46.013006580555533
  0
LINE
  8
_0-4_2mm
  6
CONTINUOUS
 62
    7
 10
75.716880082826307
 20
63.368087162723732
 11
68.674060258139747
 21
59.846677250380452
  0
LINE
  8
_0-4_2mm
  6
CONTINUOUS
 62
    7
 10
76.586680760477321
 20
44.792613975002638
 11
77.092921713441015
 21
44.750053173973839
  0
LINE
  8
_0-4_2mm
  6
CONTINUOUS
 62
    7
 10
75.716880082826307
 20
63.368087162723732
 11
75.716880082826307
 21
75.132019185223896
  0
LINE
  8
_0-4_2mm
  6
CONTINUOUS
 62
    7
 10
68.480812105326549
 20
78.750053173973782
 11
75.716880082826307
 21
75.132019185223896
  0
LINE
  8
_0-4_2mm
  6
CONTINUOUS
 62
    7
 10
85.740773503995612
 20
99.250053173973797
 11
97.740773503995598
 21
99.250053173973797
  0
LINE
  8
_0-4_2mm
  6
CONTINUOUS
 62
    7
 10
97.740773503995598
 20
99.250053173973797
 11
97.740773503995598
 21
87.250053173973797
  0
LINE
  8
_0-4_2mm
  6
CONTINUOUS
 62
    7
 10
85.740773503995612
 20
87.250053173973797
 11
85.740773503995612
 21
99.250053173973797
  0
LINE
  8
_0-4_2mm
  6
CONTINUOUS
 62
    7
 10
97.740773503995598
 20
87.250053173973797
 11
85.740773503995612
 21
87.250053173973797
  0
LINE
  8
_0-4_2mm
  6
CONTINUOUS
 62
    7
 10
85.447880285182151
 20
99.542946392787243
 11
85.740773503995612
 21
99.250053173973797
  0
LINE
  8
_0-4_2mm
  6
CONTINUOUS
 62
    7
 10
97.740773503995598
 20
87.250053173973797
 11
98.033666722809045
 21
86.95715995516035
  0
LINE
  8
_0-4_2mm
  6
CONTINUOUS
 62
    7
 10
85.447880285182165
 20
86.95715995516035
 11
85.740773503995612
 21
87.250053173973797
  0
LINE
  8
_0-4_2mm
  6
CONTINUOUS
 62
    7
 10
97.740773503995598
 20
99.250053173973797
 11
98.033666722809045
 21
99.542946392787258
  0
LINE
  8
_0-4_2mm
  6
CONTINUOUS
 62
    7
 10
107.49475574085722
 20
99.250053173973797
 11
119.4947557408572
 21
99.250053173973797
  0
LINE
  8
_0-4_2mm
  6
CONTINUOUS
 62
    7
 10
119.4947557408572
 20
99.250053173973797
 11
119.4947557408572
 21
87.250053173973797
  0
LINE
  8
_0-4_2mm
  6
CONTINUOUS
 62
    7
 10
107.49475574085722
 20
87.250053173973797
 11
107.49475574085722
 21
99.250053173973797
  0
LINE
  8
_0-4_2mm
  6
CONTINUOUS
 62
    7
 10
119.4947557408572
 20
87.250053173973797
 11
107.49475574085722
 21
87.250053173973797
  0
LINE
  8
_0-4_2mm
  6
CONTINUOUS
 62
    7
 10
107.20186252204377
 20
99.542946392787243
 11
107.49475574085722
 21
99.250053173973797
  0
LINE
  8
_0-4_2mm
  6
CONTINUOUS
 62
    7
 10
119.4947557408572
 20
87.250053173973797
 11
119.78764895967065
 21
86.95715995516035
  0
LINE
  8
_0-4_2mm
  6
CONTINUOUS
 62
    7
 10
107.20186252204377
 20
86.95715995516035
 11
107.49475574085722
 21
87.250053173973797
  0
LINE
  8
_0-4_2mm
  6
CONTINUOUS
 62
    7
 10
119.4947557408572
 20
99.250053173973797
 11
119.78764895967065
 21
99.542946392787258
  0
LINE
  8
_0-4_2mm
  6
CONTINUOUS
 62
    7
 10
107.49475574085722
 20
80.250053173973797
 11
119.4947557408572
 21
80.250053173973797
  0
LINE
  8
_0-4_2mm
  6
CONTINUOUS
 62
    7
 10
119.4947557408572
 20
80.250053173973797
 11
119.4947557408572
 21
68.250053173973797
  0
LINE
  8
_0-4_2mm
  6
CONTINUOUS
 62
    7
 10
107.49475574085722
 20
68.250053173973797
 11
107.49475574085722
 21
80.250053173973797
  0
LINE
  8
_0-4_2mm
  6
CONTINUOUS
 62
    7
 10
119.4947557408572
 20
68.250053173973797
 11
107.49475574085722
 21
68.250053173973797
  0
LINE
  8
_0-4_2mm
  6
CONTINUOUS
 62
    7
 10
107.20186252204377
 20
80.542946392787243
 11
107.49475574085722
 21
80.250053173973797
  0
LINE
  8
_0-4_2mm
  6
CONTINUOUS
 62
    7
 10
119.4947557408572
 20
68.250053173973797
 11
119.78764895967065
 21
67.95715995516035
  0
LINE
  8
_0-4_2mm
  6
CONTINUOUS
 62
    7
 10
107.20186252204377
 20
67.95715995516035
 11
107.49475574085722
 21
68.250053173973797
  0
LINE
  8
_0-4_2mm
  6
CONTINUOUS
 62
    7
 10
119.4947557408572
 20
80.250053173973797
 11
119.78764895967065
 21
80.542946392787258
  0
LINE
  8
_0-4_2mm
  6
CONTINUOUS
 62
    7
 10
85.740773503995612
 20
80.250053173973697
 11
97.740773503995598
 21
80.250053173973697
  0
LINE
  8
_0-4_2mm
  6
CONTINUOUS
 62
    7
 10
97.740773503995598
 20
80.250053173973697
 11
97.740773503995598
 21
68.250053173973697
  0
LINE
  8
_0-4_2mm
  6
CONTINUOUS
 62
    7
 10
85.740773503995612
 20
68.250053173973697
 11
85.740773503995612
 21
80.250053173973697
  0
LINE
  8
_0-4_2mm
  6
CONTINUOUS
 62
    7
 10
97.740773503995598
 20
68.250053173973697
 11
85.740773503995612
 21
68.250053173973697
  0
LINE
  8
_0-4_2mm
  6
CONTINUOUS
 62
    7
 10
85.447880285182151
 20
80.542946392787144
 11
85.740773503995612
 21
80.250053173973697
  0
LINE
  8
_0-4_2mm
  6
CONTINUOUS
 62
    7
 10
97.740773503995598
 20
68.250053173973697
 11
98.033666722809045
 21
67.95715995516025
  0
LINE
  8
_0-4_2mm
  6
CONTINUOUS
 62
    7
 10
85.447880285182165
 20
67.95715995516025
 11
85.740773503995612
 21
68.250053173973697
  0
LINE
  8
_0-4_2mm
  6
CONTINUOUS
 62
    7
 10
97.740773503995598
 20
80.250053173973697
 11
98.033666722809045
 21
80.542946392787144
  0
LINE
  8
_0-4_2mm
  6
CONTINUOUS
 62
    7
 10
85.740773503995612
 20
61.250053173973853
 11
97.740773503995598
 21
61.250053173973853
  0
LINE
  8
_0-4_2mm
  6
CONTINUOUS
 62
    7
 10
97.740773503995598
 20
61.250053173973853
 11
97.740773503995598
 21
49.250053173973853
  0
LINE
  8
_0-4_2mm
  6
CONTINUOUS
 62
    7
 10
85.740773503995612
 20
49.250053173973853
 11
85.740773503995612
 21
61.250053173973853
  0
LINE
  8
_0-4_2mm
  6
CONTINUOUS
 62
    7
 10
97.740773503995598
 20
49.250053173973853
 11
85.740773503995612
 21
49.250053173973853
  0
LINE
  8
_0-4_2mm
  6
CONTINUOUS
 62
    7
 10
85.447880285182151
 20
61.5429463927873
 11
85.740773503995612
 21
61.250053173973853
  0
LINE
  8
_0-4_2mm
  6
CONTINUOUS
 62
    7
 10
97.740773503995598
 20
49.250053173973853
 11
98.033666722809045
 21
48.957159955160407
  0
LINE
  8
_0-4_2mm
  6
CONTINUOUS
 62
    7
 10
85.447880285182165
 20
48.9571599551604
 11
85.740773503995612
 21
49.250053173973853
  0
LINE
  8
_0-4_2mm
  6
CONTINUOUS
 62
    7
 10
97.740773503995598
 20
61.250053173973853
 11
98.033666722809045
 21
61.542946392787307
  0
LINE
  8
_0-4_2mm
  6
CONTINUOUS
 62
    7
 10
107.49475574085722
 20
61.250053173973825
 11
119.4947557408572
 21
61.250053173973825
  0
LINE
  8
_0-4_2mm
  6
CONTINUOUS
 62
    7
 10
119.4947557408572
 20
61.250053173973825
 11
119.4947557408572
 21
49.250053173973825
  0
LINE
  8
_0-4_2mm
  6
CONTINUOUS
 62
    7
 10
107.49475574085722
 20
49.250053173973825
 11
107.49475574085722
 21
61.250053173973825
  0
LINE
  8
_0-4_2mm
  6
CONTINUOUS
 62
    7
 10
119.4947557408572
 20
49.250053173973825
 11
107.49475574085722
 21
49.250053173973825
  0
LINE
  8
_0-4_2mm
  6
CONTINUOUS
 62
    7
 10
107.20186252204377
 20
61.542946392787272
 11
107.49475574085722
 21
61.250053173973825
  0
LINE
  8
_0-4_2mm
  6
CONTINUOUS
 62
    7
 10
119.4947557408572
 20
49.250053173973825
 11
119.78764895967065
 21
48.957159955160378
  0
LINE
  8
_0-4_2mm
  6
CONTINUOUS
 62
    7
 10
107.20186252204377
 20
48.957159955160371
 11
107.49475574085722
 21
49.250053173973825
  0
LINE
  8
_0-4_2mm
  6
CONTINUOUS
 62
    7
 10
119.4947557408572
 20
61.250053173973825
 11
119.78764895967065
 21
61.542946392787279
  0
CIRCLE
  8
_0-4_2mm
  6
CONTINUOUS
 62
    7
 10
71.716880082826307
 20
82.750053173973797
 40
0.5
  0
CIRCLE
  8
_0-4_2mm
  6
CONTINUOUS
 62
    7
 10
139.24936970311322
 20
82.750053173973797
 40
0.5
  0
CIRCLE
  8
_0-4_2mm
  6
CONTINUOUS
 62
    7
 10
139.24936970311322
 20
55.750053173973825
 40
0.5
  0
CIRCLE
  8
_0-4_2mm
  6
CONTINUOUS
 62
    7
 10
71.716880082826307
 20
55.750053173973853
 40
0.5
  0
LINE
  8
_0-5_0_5mm
  6
CONTINUOUS
 62
    7
 10
126.10708357952302
 20
102.7500531739738
 11
126.10708357952302
 21
45.750053173973825
  0
LINE
  8
_0-5_0_5mm
  6
CONTINUOUS
 62
    7
 10
102.61776462242642
 20
45.750053173973825
 11
102.61776462242642
 21
102.7500531739738
  0
LINE
  8
_0-5_0_5mm
  6
CONTINUOUS
 62
    7
 10
78.978826793411017
 20
45.750053173973839
 11
78.978826793411017
 21
102.7500531739738
  0
LINE
  8
_0-5_0_5mm
  6
CONTINUOUS
 62
    7
 10
84.740773503995612
 20
100.2500531739738
 11
98.740773503995712
 21
100.2500531739738
  0
LINE
  8
_0-5_0_5mm
  6
CONTINUOUS
 62
    7
 10
98.740773503995712
 20
100.2500531739738
 11
98.740773503995598
 21
86.250053173973797
  0
LINE
  8
_0-5_0_5mm
  6
CONTINUOUS
 62
    7
 10
84.740773503995612
 20
86.250053173973797
 11
84.740773503995612
 21
100.2500531739738
  0
LINE
  8
_0-5_0_5mm
  6
CONTINUOUS
 62
    7
 10
98.740773503995598
 20
86.250053173973797
 11
84.740773503995612
 21
86.250053173973797
  0
LINE
  8
_0-5_0_5mm
  6
CONTINUOUS
 62
    7
 10
106.49475574085722
 20
86.250053173973797
 11
106.49475574085722
 21
100.2500531739738
  0
LINE
  8
_0-5_0_5mm
  6
CONTINUOUS
 62
    7
 10
106.49475574085722
 20
100.2500531739738
 11
120.49475574085722
 21
100.2500531739738
  0
LINE
  8
_0-5_0_5mm
  6
CONTINUOUS
 62
    7
 10
120.49475574085722
 20
86.250053173973797
 11
106.49475574085722
 21
86.250053173973797
  0
LINE
  8
_0-5_0_5mm
  6
CONTINUOUS
 62
    7
 10
120.49475574085722
 20
100.2500531739738
 11
120.49475574085722
 21
86.250053173973797
  0
LINE
  8
_0-5_0_5mm
  6
CONTINUOUS
 62
    7
 10
120.49475574085722
 20
81.250053173973797
 11
106.49475574085722
 21
81.250053173973797
  0
LINE
  8
_0-5_0_5mm
  6
CONTINUOUS
 62
    7
 10
106.49475574085722
 20
81.250053173973797
 11
106.49475574085722
 21
67.250053173973853
  0
LINE
  8
_0-5_0_5mm
  6
CONTINUOUS
 62
    7
 10
120.49475574085722
 20
67.250053173973853
 11
120.49475574085722
 21
81.250053173973797
  0
LINE
  8
_0-5_0_5mm
  6
CONTINUOUS
 62
    7
 10
106.49475574085722
 20
67.250053173973853
 11
120.49475574085722
 21
67.250053173973853
  0
LINE
  8
_0-5_0_5mm
  6
CONTINUOUS
 62
    7
 10
106.49475574085722
 20
62.250053173973825
 11
106.49475574085722
 21
48.250053173973811
  0
LINE
  8
_0-5_0_5mm
  6
CONTINUOUS
 62
    7
 10
106.49475574085722
 20
48.250053173973811
 11
120.49475574085722
 21
48.250053173973825
  0
LINE
  8
_0-5_0_5mm
  6
CONTINUOUS
 62
    7
 10
120.49475574085722
 20
62.250053173973825
 11
106.49475574085722
 21
62.250053173973825
  0
LINE
  8
_0-5_0_5mm
  6
CONTINUOUS
 62
    7
 10
120.49475574085722
 20
48.250053173973825
 11
120.49475574085722
 21
62.250053173973825
  0
LINE
  8
_0-5_0_5mm
  6
CONTINUOUS
 62
    7
 10
98.740773503995598
 20
48.250053173973825
 11
98.740773503995598
 21
62.250053173973853
  0
LINE
  8
_0-5_0_5mm
  6
CONTINUOUS
 62
    7
 10
98.740773503995598
 20
62.250053173973853
 11
84.740773503995612
 21
62.250053173973853
  0
LINE
  8
_0-5_0_5mm
  6
CONTINUOUS
 62
    7
 10
84.740773503995612
 20
48.250053173973825
 11
98.740773503995598
 21
48.250053173973825
  0
LINE
  8
_0-5_0_5mm
  6
CONTINUOUS
 62
    7
 10
84.740773503995612
 20
62.250053173973853
 11
84.740773503995612
 21
48.250053173973825
  0
LINE
  8
_0-5_0_5mm
  6
CONTINUOUS
 62
    7
 10
84.740773503995612
 20
67.250053173973853
 11
98.740773503995598
 21
67.250053173973853
  0
LINE
  8
_0-5_0_5mm
  6
CONTINUOUS
 62
    7
 10
98.740773503995598
 20
67.250053173973853
 11
98.740773503995598
 21
81.250053173973797
  0
LINE
  8
_0-5_0_5mm
  6
CONTINUOUS
 62
    7
 10
84.740773503995612
 20
81.250053173973797
 11
84.740773503995612
 21
67.250053173973853
  0
LINE
  8
_0-5_0_5mm
  6
CONTINUOUS
 62
    7
 10
98.740773503995598
 20
81.250053173973797
 11
84.740773503995612
 21
81.250053173973797
  0
ENDSEC
  0
EOF
