  0
SECTION
  2
HEADER
  9
$ACADVER
  1
AC1009
  9
$INSBASE
 10
0
 20
0
 30
0
  9
$EXTMIN
 10
0
 20
0
  9
$EXTMAX
 10
210.25
 20
148.5
  9
$LIMMIN
 10
0
 20
0
  9
$LIMMAX
 10
210.25
 20
148.5
  9
$LTSCALE
 40
0.25
  0
ENDSEC
  0
SECTION
  2
TABLES
  0
TABLE
  2
LTYPE
 70
     9
  0
LTYPE
  2
CONTINUOUS
 70
    64
  3
実線
 72
    65
 73
     0
 40
0.0
  0
LTYPE
  2
DASHED1
 70
    64
  3
--  --  --  --  --  --  --  --  
 72
    65
 73
     2
 40
2.5
 49
1.25
 49
-1.25
  0
LTYPE
  2
DASHED2
 70
    64
  3
----    ----    ----    ----    
 72
    65
 73
     2
 40
5.0
 49
2.5
 49
-2.5
  0
LTYPE
  2
DASHED3
 70
    64
  3
------  ------  ------  ------  
 72
    65
 73
     2
 40
5.0
 49
3.75
 49
-1.25
  0
LTYPE
  2
CENTER1
 70
    64
  3
----- - ----- - ----- - ----- - 
 72
    65
 73
     4
 40
10.0
 49
6.25
 49
-1.25
 49
1.25
 49
-1.25
  0
LTYPE
  2
CENTER2
 70
    64
  3
----------  --  ----------  --  
 72
    65
 73
     4
 40
20.0
 49
12.5
 49
-2.5
 49
2.5
 49
-2.5
  0
LTYPE
  2
PHANTOM1
 70
    64
  3
--- - - --- - - --- - - --- - - 
 72
    65
 73
     6
 40
10.0
 49
3.25
 49
-1.25
 49
1.25
 49
-1.25
 49
1.25
 49
-1.25
  0
LTYPE
  2
PHANTOM2
 70
    64
  3
--------  -  -  --------  -  -  
 72
    65
 73
     6
 40
20.0
 49
10.0
 49
-2.5
 49
1.25
 49
-2.5
 49
1.25
 49
-2.5
  0
LTYPE
  2
DOT
 70
    64
  3
-   -   -   -   -   -   -   -   
 72
    65
 73
     2
 40
2.5
 49
0.625
 49
-1.875
  0
LTYPE
  2
DUMMY
 70
    64
  3
ダミー
 72
    65
 73
     0
 40
0.0
  0
LTYPE
  2
RAND1
 70
    64
  3
ランダム線1
 72
    65
 73
     4
 40
10.0
 49
1.0
 49
-2.0
 49
3.0
 49
-4.0
  0
LTYPE
  2
RAND2
 70
    64
  3
ランダム線2
 72
    65
 73
     4
 40
14.0
 49
2.0
 49
-3.0
 49
4.0
 49
-5.0
  0
LTYPE
  2
RAND3
 70
    64
  3
ランダム線3
 72
    65
 73
     4
 40
18.0
 49
3.0
 49
-4.0
 49
5.0
 49
-6.0
  0
LTYPE
  2
RAND4
 70
    64
  3
ランダム線4
 72
    65
 73
     4
 40
22.0
 49
4.0
 49
-5.0
 49
6.0
 49
-7.0
  0
LTYPE
  2
RAND5
 70
    64
  3
ランダム線5
 72
    65
 73
     4
 40
26.0
 49
5.0
 49
-6.0
 49
7.0
 49
-8.0
  0
LTYPE
  2
LONG1
 70
    64
  3
----------  --  ----------  --  
 72
    65
 73
     4
 40
40.0
 49
32.5
 49
-2.5
 49
2.5
 49
-2.5
  0
LTYPE
  2
LONG2
 70
    64
  3
--------  -  -  --------  -  -  
 72
    65
 73
     6
 40
40.0
 49
30.0
 49
-2.5
 49
1.25
 49
-2.5
 49
1.25
 49
-2.5
  0
LTYPE
  2
LONG3
 70
    64
  3
+++++++++++++++..+++++++++++++++
 72
    65
 73
     2
 40
40.0
 49
37.5
 49
-2.5
  0
LTYPE
  2
LONG4
 70
    64
  3
+++++++++++++++..+++++++++++++++
 72
    65
 73
     2
 40
80.0
 49
75.0
 49
-5.0
  0
LTYPE
  2
LONG5
 70
    64
  3
----------  --  ----------  --  
 72
    65
 73
     4
 40
60.0
 49
37.5
 49
-7.5
 49
7.5
 49
-7.5
  0
LTYPE
  2
dashed
 70
   64
  3
-------   -------------   ------
 72
   65
 73
    2
 40
7.5
 49
6
 49
-1.5
  0
LTYPE
  2
dashed_spaced
 70
   64
  3
----        --------        ----
 72
   65
 73
    2
 40
12
 49
6
 49
-6
  0
LTYPE
  2
long_dashed_dotted
 70
   64
  3
------------- --- --------------
 72
   65
 73
    4
 40
15.25
 49
12
 49
-1.5
 49
0.25
 49
-1.5
  0
LTYPE
  2
long_dashed_double-dotted
 70
   64
  3
----------- --- --- ------------
 72
   65
 73
    6
 40
17
 49
12
 49
-1.5
 49
0.25
 49
-1.5
 49
0.25
 49
-1.5
  0
LTYPE
  2
long_dashed_triplicate-dotted
 70
   64
  3
--------- --- --- --- ----------
 72
   65
 73
    8
 40
18.75
 49
12
 49
-1.5
 49
0.25
 49
-1.5
 49
0.25
 49
-1.5
 49
0.25
 49
-1.5
  0
LTYPE
  2
dotted
 70
   64
  3
   -       -       -       -    
 72
   65
 73
    2
 40
1.75
 49
0.25
 49
-1.5
  0
LTYPE
  2
chain
 70
   64
  3
-------------- -- --------------
 72
   65
 73
    4
 40
18.5
 49
12
 49
-1.5
 49
3.5
 49
-1.5
  0
LTYPE
  2
chain_double_dash
 70
   64
  3
------------ -- -- -------------
 72
   65
 73
    6
 40
23.5
 49
12
 49
-1.5
 49
3.5
 49
-1.5
 49
3.5
 49
-1.5
  0
LTYPE
  2
dashed_dotted
 70
   64
  3
-----------     -     ----------
 72
   65
 73
    4
 40
9.25
 49
6
 49
-1.5
 49
0.25
 49
-1.5
  0
LTYPE
  2
double-dashed_dotted
 70
   64
  3
------   -----------   -   -----
 72
   65
 73
    6
 40
16.75
 49
6
 49
-1.5
 49
6
 49
-1.5
 49
0.25
 49
-1.5
  0
LTYPE
  2
dashed_double-dotted
 70
   64
  3
---------    -    -    ---------
 72
   65
 73
    6
 40
11
 49
6
 49
-1.5
 49
0.25
 49
-1.5
 49
0.25
 49
-1.5
  0
LTYPE
  2
double-dashed_double-dotted
 70
   64
  3
-----   ---------   -   -   ----
 72
   65
 73
    8
 40
18.5
 49
6
 49
-1.5
 49
6
 49
-1.5
 49
0.25
 49
-1.5
 49
0.25
 49
-1.5
  0
LTYPE
  2
dashed_triplicate-dotted
 70
   64
  3
-------    -    -    -    ------
 72
   65
 73
    8
 40
12.75
 49
6
 49
-1.5
 49
0.25
 49
-1.5
 49
0.25
 49
-1.5
 49
0.25
 49
-1.5
  0
LTYPE
  2
double-dashed_triplicate-dotted
 70
   64
  3
-----  ---------  -  -  -  -----
 72
   65
 73
   10
 40
20.25
 49
6
 49
-1.5
 49
6
 49
-1.5
 49
0.25
 49
-1.5
 49
0.25
 49
-1.5
 49
0.25
 49
-1.5
  0
LTYPE
  2
undefined
 70
   64
  3
--------------------------------
 72
   65
 73
    0
 40
0
  0
LTYPE
  2
CHAIN
 70
   64
  3
-----------   -----   ----------
 72
   65
 73
    4
 40
0.3542999999999997
 49
0.2361999999999999
 49
-0.0294999999999999
 49
0.0591
 49
-0.0294999999999999
  0
LTYPE
  2
DASH_DOT
 70
   64
  3
-----------     -     ----------
 72
   65
 73
    4
 40
0.3699999999999997
 49
0.2399999999999999
 49
-0.0599999999999999
 49
0.01
 49
-0.0599999999999999
  0
LTYPE
  2
DASH_DOUBLE_DOT
 70
   64
  3
---------    -    -    ---------
 72
   65
 73
    6
 40
0.4397999999999995
 49
0.2399999999999999
 49
-0.0599999999999999
 49
0.0097999999999999
 49
-0.0599999999999999
 49
0.01
 49
-0.0599999999999999
  0
LTYPE
  2
DASH_TRIPLE_DOT
 70
   64
  3
-------    -    -    -    ------
 72
   65
 73
    8
 40
0.5099999999999995
 49
0.2399999999999999
 49
-0.0599999999999999
 49
0.01
 49
-0.0599999999999999
 49
0.01
 49
-0.0599999999999999
 49
0.01
 49
-0.0599999999999999
  0
LTYPE
  2
DASHED
 70
   64
  3
-------   -------------   ------
 72
   65
 73
    2
 40
0.2066999999999999
 49
0.1653999999999999
 49
-0.0413
  0
LTYPE
  2
DASHED_SPACE
 70
   64
  3
----        --------        ----
 72
   65
 73
    2
 40
0.0826
 49
0.0413
 49
-0.0413
  0
LTYPE
  2
DOTTED
 70
   64
  3
-              --              -
 72
   65
 73
    2
 40
0.0481999999999999
 49
0.0068999999999999
 49
-0.0413
  0
LTYPE
  2
DOUBLE_DASH_CHAIN
 70
   64
  3
---------  ----  ----  ---------
 72
   65
 73
    6
 40
1.2402999999999995
 49
0.6613999999999998
 49
-0.0826999999999998
 49
0.1653999999999999
 49
-0.0826999999999998
 49
0.1653999999999999
 49
-0.0826999999999998
  0
LTYPE
  2
DOUBLE_DASH_DOT
 70
   64
  3
------   -----------   -   -----
 72
   65
 73
    6
 40
0.6699999999999996
 49
0.2399999999999999
 49
-0.0599999999999999
 49
0.2399999999999999
 49
-0.0599999999999999
 49
0.01
 49
-0.0599999999999999
  0
LTYPE
  2
DOUBLE_DASH_DOUBLE_DOT
 70
   64
  3
-----   ---------   -   -   ----
 72
   65
 73
    8
 40
0.7399999999999995
 49
0.2399999999999999
 49
-0.0599999999999999
 49
0.2399999999999999
 49
-0.0599999999999999
 49
0.01
 49
-0.0599999999999999
 49
0.01
 49
-0.0599999999999999
  0
LTYPE
  2
LONG_DASH_DOTTED
 70
   64
  3
-------------   -   ------------
 72
   65
 73
    4
 40
0.6099999999999997
 49
0.4799999999999999
 49
-0.0599999999999999
 49
0.01
 49
-0.0599999999999999
  0
LTYPE
  2
LONG_DASH_DOUBLE_DOT
 70
   64
  3
-----------   -   -   ----------
 72
   65
 73
    6
 40
0.3344999999999994
 49
0.2361999999999999
 49
-0.0294999999999999
 49
0.0048999999999999
 49
-0.0294999999999999
 49
0.0048999999999999
 49
-0.0294999999999999
  0
LTYPE
  2
LONG_DASH_TRIPLE_DOT
 70
   64
  3
---------   -   -   -   --------
 72
   65
 73
    8
 40
0.7499999999999996
 49
0.4799999999999999
 49
-0.0599999999999999
 49
0.01
 49
-0.0599999999999999
 49
0.01
 49
-0.0599999999999999
 49
0.01
 49
-0.0599999999999999
  0
LTYPE
  2
BORDER
 70
   64
  3
----     --------     -     ----
 72
   65
 73
    6
 40
44.459999999999994
 49
12.699999999999999
 49
-6.3499999999999988
 49
12.699999999999999
 49
-6.3499999999999988
 49
0.01
 49
-6.3499999999999988
  0
LTYPE
  2
BORDER2
 70
   64
  3
----     --------     -     ----
 72
   65
 73
    6
 40
22.234999999999999
 49
6.3499999999999988
 49
-3.1749999999999989
 49
6.3499999999999988
 49
-3.1749999999999989
 49
0.01
 49
-3.1749999999999989
  0
LTYPE
  2
BORDERX2
 70
   64
  3
----     --------     -     ----
 72
   65
 73
    6
 40
88.909999999999997
 49
25.399999999999999
 49
-12.699999999999999
 49
25.399999999999999
 49
-12.699999999999999
 49
0.01
 49
-12.699999999999999
  0
ENDTAB
  0
TABLE
  2
STYLE
  5
3
100
AcDbSymbolTable
 70
     1
  0
STYLE
  5
10
100
AcDbSymbolTableRecord
100
AcDbTextStyleTableRecord
  2
STANDARD
 70
     0
 40
0.0
 41
1.0
 50
0.0
 71
     0
 42
0.2
  3
txt
  4
bigfont.shx
  0
STYLE
  5
26
100
AcDbSymbolTableRecord
100
AcDbTextStyleTableRecord
  2
TATEGAKI
 70
    68
 40
0.0
 41
1.0
 50
0.0
 71
     0
 42
1.0
  3
txt
  4
bigfont.shx
  0
ENDTAB
  0
TABLE
  2
LAYER
 70
    5
  0
LAYER
  2
_0-1_Bend_Centerline__ISO_
 70
   64
 62
    7
  6
CONTINUOUS
  0
LAYER
  2
_0-2_Visible__ISO_
 70
   64
 62
    7
  6
CONTINUOUS
  0
LAYER
  2
_0-4_2mm
 70
   64
 62
    7
  6
CONTINUOUS
  0
LAYER
  2
_0-5_0_5mm
 70
   64
 62
    7
  6
CONTINUOUS
  0
LAYER
  2
ADD_LINE
 70
   64
 62
    7
  6
CONTINUOUS
  0
ENDTAB
  0
ENDSEC
  0
SECTION
  2
BLOCKS
  0
ENDSEC
  0
SECTION
  2
ENTITIES
  0
CIRCLE
  8
_0-2_Visible__ISO_
  6
CONTINUOUS
 62
    7
 10
48.164078075242017
 20
74.25
 40
1.5
  0
LINE
  8
_0-2_Visible__ISO_
  6
CONTINUOUS
 62
    7
 10
49.615497904432345
 20
64.750000000000043
 11
43.615497904432345
 21
70.75
  0
LINE
  8
_0-2_Visible__ISO_
  6
CONTINUOUS
 62
    7
 10
43.615497904432374
 20
77.75
 11
49.615497904432345
 21
83.75
  0
LINE
  8
_0-2_Visible__ISO_
  6
CONTINUOUS
 62
    7
 10
43.615497904432374
 20
77.75
 11
43.615497904432345
 21
70.75
  0
LINE
  8
_0-2_Visible__ISO_
  6
CONTINUOUS
 62
    7
 10
166.63450209556771
 20
70.749999999999901
 11
160.6345020955676
 21
64.749999999999901
  0
LINE
  8
_0-2_Visible__ISO_
  6
CONTINUOUS
 62
    7
 10
160.63450209556771
 20
83.749999999999901
 11
166.63450209556771
 21
77.749999999999901
  0
CIRCLE
  8
_0-2_Visible__ISO_
  6
CONTINUOUS
 62
    7
 10
161.63450209556771
 20
74.249999999999901
 40
1.5
  0
LINE
  8
_0-2_Visible__ISO_
  6
CONTINUOUS
 62
    7
 10
129.2293633649428
 20
66.249999999999972
 11
129.2293633649428
 21
82.249999999999901
  0
LINE
  8
_0-2_Visible__ISO_
  6
CONTINUOUS
 62
    7
 10
145.2293633649428
 20
66.249999999999929
 11
129.2293633649428
 21
66.249999999999972
  0
LINE
  8
_0-2_Visible__ISO_
  6
CONTINUOUS
 62
    7
 10
145.2293633649428
 20
82.249999999999901
 11
145.2293633649428
 21
66.249999999999929
  0
LINE
  8
_0-2_Visible__ISO_
  6
CONTINUOUS
 62
    7
 10
129.2293633649428
 20
82.249999999999901
 11
145.2293633649428
 21
82.249999999999901
  0
LINE
  8
_0-2_Visible__ISO_
  6
CONTINUOUS
 62
    7
 10
144.2293633649428
 20
67.249999999999901
 11
144.2293633649428
 21
81.249999999999901
  0
LINE
  8
_0-2_Visible__ISO_
  6
CONTINUOUS
 62
    7
 10
130.2293633649428
 20
67.249999999999901
 11
144.2293633649428
 21
67.249999999999901
  0
LINE
  8
_0-2_Visible__ISO_
  6
CONTINUOUS
 62
    7
 10
130.2293633649428
 20
81.249999999999901
 11
130.2293633649428
 21
67.249999999999901
  0
LINE
  8
_0-2_Visible__ISO_
  6
CONTINUOUS
 62
    7
 10
144.2293633649428
 20
81.249999999999901
 11
130.2293633649428
 21
81.249999999999901
  0
LINE
  8
_0-2_Visible__ISO_
  6
CONTINUOUS
 62
    7
 10
108.50199111843082
 20
66.249999999999972
 11
108.50199111843082
 21
82.25
  0
LINE
  8
_0-2_Visible__ISO_
  6
CONTINUOUS
 62
    7
 10
124.50199111843082
 20
66.249999999999972
 11
108.50199111843082
 21
66.249999999999972
  0
LINE
  8
_0-2_Visible__ISO_
  6
CONTINUOUS
 62
    7
 10
124.50199111843082
 20
82.249999999999901
 11
124.50199111843082
 21
66.249999999999972
  0
LINE
  8
_0-2_Visible__ISO_
  6
CONTINUOUS
 62
    7
 10
108.50199111843082
 20
82.25
 11
124.50199111843082
 21
82.249999999999901
  0
LINE
  8
_0-2_Visible__ISO_
  6
CONTINUOUS
 62
    7
 10
123.50199111843082
 20
67.249999999999901
 11
123.50199111843082
 21
81.249999999999901
  0
LINE
  8
_0-2_Visible__ISO_
  6
CONTINUOUS
 62
    7
 10
109.50199111843082
 20
67.25
 11
123.50199111843082
 21
67.249999999999901
  0
LINE
  8
_0-2_Visible__ISO_
  6
CONTINUOUS
 62
    7
 10
109.50199111843082
 20
81.249999999999901
 11
109.50199111843082
 21
67.25
  0
LINE
  8
_0-2_Visible__ISO_
  6
CONTINUOUS
 62
    7
 10
123.50199111843082
 20
81.249999999999901
 11
109.50199111843082
 21
81.249999999999901
  0
LINE
  8
_0-2_Visible__ISO_
  6
CONTINUOUS
 62
    7
 10
87.011313876744012
 20
66.250000000000014
 11
87.011313876744012
 21
82.25
  0
LINE
  8
_0-2_Visible__ISO_
  6
CONTINUOUS
 62
    7
 10
103.011313876744
 20
66.249999999999972
 11
87.011313876744012
 21
66.250000000000014
  0
LINE
  8
_0-2_Visible__ISO_
  6
CONTINUOUS
 62
    7
 10
103.011313876744
 20
82.25
 11
103.011313876744
 21
66.249999999999972
  0
LINE
  8
_0-2_Visible__ISO_
  6
CONTINUOUS
 62
    7
 10
87.011313876744012
 20
82.25
 11
103.011313876744
 21
82.25
  0
LINE
  8
_0-2_Visible__ISO_
  6
CONTINUOUS
 62
    7
 10
102.011313876744
 20
67.25
 11
102.011313876744
 21
81.25
  0
LINE
  8
_0-2_Visible__ISO_
  6
CONTINUOUS
 62
    7
 10
88.011313876744012
 20
67.25
 11
102.011313876744
 21
67.25
  0
LINE
  8
_0-2_Visible__ISO_
  6
CONTINUOUS
 62
    7
 10
88.011313876744111
 20
81.25
 11
88.011313876744012
 21
67.25
  0
LINE
  8
_0-2_Visible__ISO_
  6
CONTINUOUS
 62
    7
 10
102.011313876744
 20
81.25
 11
88.011313876744111
 21
81.25
  0
LINE
  8
_0-2_Visible__ISO_
  6
CONTINUOUS
 62
    7
 10
65.520636635057215
 20
66.250000000000043
 11
65.520636635057315
 21
82.25
  0
LINE
  8
_0-2_Visible__ISO_
  6
CONTINUOUS
 62
    7
 10
81.520636635057215
 20
66.250000000000014
 11
65.520636635057215
 21
66.250000000000043
  0
LINE
  8
_0-2_Visible__ISO_
  6
CONTINUOUS
 62
    7
 10
81.520636635057315
 20
82.25
 11
81.520636635057215
 21
66.250000000000014
  0
LINE
  8
_0-2_Visible__ISO_
  6
CONTINUOUS
 62
    7
 10
65.520636635057315
 20
82.25
 11
81.520636635057315
 21
82.25
  0
LINE
  8
_0-2_Visible__ISO_
  6
CONTINUOUS
 62
    7
 10
80.520636635057315
 20
67.25
 11
80.520636635057315
 21
81.25
  0
LINE
  8
_0-2_Visible__ISO_
  6
CONTINUOUS
 62
    7
 10
66.520636635057315
 20
67.25
 11
80.520636635057315
 21
67.25
  0
LINE
  8
_0-2_Visible__ISO_
  6
CONTINUOUS
 62
    7
 10
66.520636635057315
 20
81.25
 11
66.520636635057315
 21
67.25
  0
LINE
  8
_0-2_Visible__ISO_
  6
CONTINUOUS
 62
    7
 10
80.520636635057315
 20
81.25
 11
66.520636635057315
 21
81.25
  0
LINE
  8
_0-2_Visible__ISO_
  6
CONTINUOUS
 62
    7
 10
166.63450209556771
 20
70.749999999999901
 11
166.63450209556771
 21
77.749999999999901
  0
LINE
  8
_0-2_Visible__ISO_
  6
CONTINUOUS
 62
    7
 10
160.6345020955676
 20
64.749999999999901
 11
49.615497904432345
 21
64.750000000000043
  0
LINE
  8
_0-2_Visible__ISO_
  6
CONTINUOUS
 62
    7
 10
160.63450209556771
 20
83.749999999999901
 11
49.615497904432345
 21
83.75
  0
LINE
  8
_0-1_Bend_Centerline__ISO_
  6
CHAIN
 62
    7
 10
105.88830499517482
 20
83.75
 11
105.88830499517482
 21
64.749999999999972
  0
LINE
  8
_0-1_Bend_Centerline__ISO_
  6
CHAIN
 62
    7
 10
84.134322758313218
 20
83.75
 11
84.134322758313218
 21
64.750000000000014
  0
LINE
  8
_0-1_Bend_Centerline__ISO_
  6
CHAIN
 62
    7
 10
60.456508242001178
 20
64.750000000000043
 11
60.45650824200122
 21
83.75
  0
LINE
  8
_0-1_Bend_Centerline__ISO_
  6
CHAIN
 62
    7
 10
149.79349175799882
 20
64.749999999999901
 11
149.79349175799882
 21
83.749999999999901
  0
LINE
  8
_0-1_Bend_Centerline__ISO_
  6
CHAIN
 62
    7
 10
127.11567724168683
 20
83.749999999999901
 11
127.11567724168683
 21
64.749999999999972
  0
LINE
  8
_0-4_2mm
  6
CONTINUOUS
 62
    7
 10
42.615497904432345
 20
70.335786437626908
 11
42.615497904432374
 21
78.164213562373092
  0
LINE
  8
_0-4_2mm
  6
CONTINUOUS
 62
    7
 10
42.615497904432374
 20
78.164213562373092
 11
49.201284342059246
 21
84.75
  0
LINE
  8
_0-4_2mm
  6
CONTINUOUS
 62
    7
 10
49.201284342059246
 20
84.75
 11
161.04871565794082
 21
84.749999999999901
  0
LINE
  8
_0-4_2mm
  6
CONTINUOUS
 62
    7
 10
161.04871565794082
 20
84.749999999999901
 11
167.63450209556771
 21
78.164213562372993
  0
LINE
  8
_0-4_2mm
  6
CONTINUOUS
 62
    7
 10
167.63450209556771
 20
78.164213562372993
 11
167.63450209556771
 21
70.335786437626808
  0
LINE
  8
_0-4_2mm
  6
CONTINUOUS
 62
    7
 10
167.63450209556771
 20
70.335786437626808
 11
161.04871565794068
 21
63.749999999999901
  0
LINE
  8
_0-4_2mm
  6
CONTINUOUS
 62
    7
 10
49.201284342059253
 20
63.750000000000043
 11
42.615497904432345
 21
70.335786437626908
  0
LINE
  8
_0-4_2mm
  6
CONTINUOUS
 62
    7
 10
161.04871565794068
 20
63.749999999999901
 11
49.201284342059253
 21
63.750000000000043
  0
LINE
  8
_0-4_2mm
  6
CONTINUOUS
 62
    7
 10
79.520636635057315
 20
68.25
 11
67.520636635057315
 21
68.25
  0
LINE
  8
_0-4_2mm
  6
CONTINUOUS
 62
    7
 10
67.520636635057315
 20
68.25
 11
67.520636635057315
 21
80.25
  0
LINE
  8
_0-4_2mm
  6
CONTINUOUS
 62
    7
 10
79.520636635057315
 20
80.25
 11
79.520636635057315
 21
68.25
  0
LINE
  8
_0-4_2mm
  6
CONTINUOUS
 62
    7
 10
67.520636635057315
 20
80.25
 11
79.520636635057315
 21
80.25
  0
LINE
  8
_0-4_2mm
  6
CONTINUOUS
 62
    7
 10
89.011313876744026
 20
68.25
 11
89.011313876744111
 21
80.25
  0
LINE
  8
_0-4_2mm
  6
CONTINUOUS
 62
    7
 10
89.011313876744111
 20
80.25
 11
101.011313876744
 21
80.25
  0
LINE
  8
_0-4_2mm
  6
CONTINUOUS
 62
    7
 10
101.011313876744
 20
68.25
 11
89.011313876744026
 21
68.25
  0
LINE
  8
_0-4_2mm
  6
CONTINUOUS
 62
    7
 10
101.011313876744
 20
80.25
 11
101.011313876744
 21
68.25
  0
LINE
  8
_0-4_2mm
  6
CONTINUOUS
 62
    7
 10
110.50199111843082
 20
80.249999999999901
 11
122.50199111843082
 21
80.249999999999901
  0
LINE
  8
_0-4_2mm
  6
CONTINUOUS
 62
    7
 10
122.50199111843082
 20
80.249999999999901
 11
122.50199111843082
 21
68.249999999999915
  0
LINE
  8
_0-4_2mm
  6
CONTINUOUS
 62
    7
 10
110.50199111843082
 20
68.25
 11
110.50199111843082
 21
80.249999999999901
  0
LINE
  8
_0-4_2mm
  6
CONTINUOUS
 62
    7
 10
122.50199111843082
 20
68.249999999999915
 11
110.50199111843082
 21
68.25
  0
LINE
  8
_0-4_2mm
  6
CONTINUOUS
 62
    7
 10
131.2293633649428
 20
80.249999999999901
 11
143.2293633649428
 21
80.249999999999901
  0
LINE
  8
_0-4_2mm
  6
CONTINUOUS
 62
    7
 10
143.2293633649428
 20
80.249999999999901
 11
143.2293633649428
 21
68.249999999999901
  0
LINE
  8
_0-4_2mm
  6
CONTINUOUS
 62
    7
 10
131.2293633649428
 20
68.249999999999901
 11
131.2293633649428
 21
80.249999999999901
  0
LINE
  8
_0-4_2mm
  6
CONTINUOUS
 62
    7
 10
143.2293633649428
 20
68.249999999999901
 11
131.2293633649428
 21
68.249999999999901
  0
LINE
  8
_0-5_0_5mm
  6
CONTINUOUS
 62
    7
 10
60.45650824200122
 20
83.75
 11
60.456508242001178
 21
64.750000000000043
  0
LINE
  8
_0-5_0_5mm
  6
CONTINUOUS
 62
    7
 10
84.134322758313218
 20
83.749999999999972
 11
84.134322758313218
 21
64.750000000000014
  0
LINE
  8
_0-5_0_5mm
  6
CONTINUOUS
 62
    7
 10
105.88830499517482
 20
64.749999999999972
 11
105.88830499517482
 21
83.75
  0
LINE
  8
_0-5_0_5mm
  6
CONTINUOUS
 62
    7
 10
127.11567724168683
 20
83.749999999999901
 11
127.11567724168683
 21
64.749999999999943
  0
LINE
  8
_0-5_0_5mm
  6
CONTINUOUS
 62
    7
 10
66.520636635057315
 20
67.25
 11
66.520636635057315
 21
81.25
  0
LINE
  8
_0-5_0_5mm
  6
CONTINUOUS
 62
    7
 10
66.520636635057315
 20
81.25
 11
80.520636635057315
 21
81.25
  0
LINE
  8
_0-5_0_5mm
  6
CONTINUOUS
 62
    7
 10
80.520636635057315
 20
81.25
 11
80.520636635057315
 21
67.25
  0
LINE
  8
_0-5_0_5mm
  6
CONTINUOUS
 62
    7
 10
80.520636635057315
 20
67.25
 11
66.520636635057315
 21
67.25
  0
LINE
  8
_0-5_0_5mm
  6
CONTINUOUS
 62
    7
 10
88.011313876744111
 20
67.25
 11
88.011313876744111
 21
81.25
  0
LINE
  8
_0-5_0_5mm
  6
CONTINUOUS
 62
    7
 10
88.011313876744111
 20
81.25
 11
102.01131387674411
 21
81.25
  0
LINE
  8
_0-5_0_5mm
  6
CONTINUOUS
 62
    7
 10
102.01131387674411
 20
81.25
 11
102.01131387674411
 21
67.25
  0
LINE
  8
_0-5_0_5mm
  6
CONTINUOUS
 62
    7
 10
102.01131387674411
 20
67.25
 11
88.011313876744111
 21
67.25
  0
LINE
  8
_0-5_0_5mm
  6
CONTINUOUS
 62
    7
 10
109.50199111843082
 20
67.249999999999901
 11
109.50199111843082
 21
81.249999999999901
  0
LINE
  8
_0-5_0_5mm
  6
CONTINUOUS
 62
    7
 10
109.50199111843082
 20
81.249999999999901
 11
123.50199111843082
 21
81.249999999999901
  0
LINE
  8
_0-5_0_5mm
  6
CONTINUOUS
 62
    7
 10
123.50199111843082
 20
81.249999999999901
 11
123.50199111843082
 21
67.249999999999901
  0
LINE
  8
_0-5_0_5mm
  6
CONTINUOUS
 62
    7
 10
123.50199111843082
 20
67.249999999999901
 11
109.50199111843082
 21
67.249999999999901
  0
LINE
  8
_0-5_0_5mm
  6
CONTINUOUS
 62
    7
 10
130.2293633649428
 20
67.249999999999901
 11
130.2293633649428
 21
81.249999999999901
  0
LINE
  8
_0-5_0_5mm
  6
CONTINUOUS
 62
    7
 10
130.2293633649428
 20
81.249999999999901
 11
144.2293633649428
 21
81.249999999999901
  0
LINE
  8
_0-5_0_5mm
  6
CONTINUOUS
 62
    7
 10
144.2293633649428
 20
81.249999999999901
 11
144.2293633649428
 21
67.249999999999901
  0
LINE
  8
_0-5_0_5mm
  6
CONTINUOUS
 62
    7
 10
144.2293633649428
 20
67.249999999999901
 11
130.2293633649428
 21
67.249999999999901
  0
CIRCLE
  8
_0-4_2mm
  6
CONTINUOUS
 62
    7
 10
48.164078075242017
 20
74.25
 40
0.5
  0
CIRCLE
  8
_0-4_2mm
  6
CONTINUOUS
 62
    7
 10
161.63450209556771
 20
74.249999999999901
 40
0.5
  0
LINE
  8
_0-5_0_5mm
  6
CONTINUOUS
 62
    7
 10
149.79349175799882
 20
83.749999999999901
 11
149.79349175799882
 21
64.749999999999915
  0
LINE
  8
_0-4_2mm
  6
CONTINUOUS
 62
    7
 10
67.227743416243868
 20
67.957106781186553
 11
67.520636635057315
 21
68.25
  0
LINE
  8
_0-4_2mm
  6
CONTINUOUS
 62
    7
 10
79.520636635057315
 20
68.25
 11
79.813529853870762
 21
67.957106781186553
  0
LINE
  8
_0-4_2mm
  6
CONTINUOUS
 62
    7
 10
79.813529853870762
 20
80.542893218813447
 11
79.520636635057315
 21
80.25
  0
LINE
  8
_0-4_2mm
  6
CONTINUOUS
 62
    7
 10
67.227743416243868
 20
80.542893218813447
 11
67.520636635057315
 21
80.25
  0
LINE
  8
_0-4_2mm
  6
CONTINUOUS
 62
    7
 10
88.718420657930665
 20
80.542893218813447
 11
89.011313876744111
 21
80.25
  0
LINE
  8
_0-4_2mm
  6
CONTINUOUS
 62
    7
 10
101.30420709555756
 20
80.542893218813447
 11
101.01131387674411
 21
80.25
  0
LINE
  8
_0-4_2mm
  6
CONTINUOUS
 62
    7
 10
101.01131387674411
 20
68.25
 11
101.30420709555756
 21
67.957106781186553
  0
LINE
  8
_0-4_2mm
  6
CONTINUOUS
 62
    7
 10
88.718420657930665
 20
67.957106781186553
 11
89.011313876744111
 21
68.25
  0
LINE
  8
_0-4_2mm
  6
CONTINUOUS
 62
    7
 10
110.20909789961738
 20
80.542893218813347
 11
110.50199111843082
 21
80.249999999999901
  0
LINE
  8
_0-4_2mm
  6
CONTINUOUS
 62
    7
 10
122.79488433724427
 20
80.542893218813347
 11
122.50199111843082
 21
80.249999999999901
  0
LINE
  8
_0-4_2mm
  6
CONTINUOUS
 62
    7
 10
122.50199111843082
 20
68.249999999999901
 11
122.79488433724427
 21
67.957106781186454
  0
LINE
  8
_0-4_2mm
  6
CONTINUOUS
 62
    7
 10
110.20909789961738
 20
67.95710678118644
 11
110.50199111843082
 21
68.249999999999901
  0
LINE
  8
_0-4_2mm
  6
CONTINUOUS
 62
    7
 10
130.93647014612935
 20
80.542893218813347
 11
131.2293633649428
 21
80.249999999999901
  0
LINE
  8
_0-4_2mm
  6
CONTINUOUS
 62
    7
 10
143.52225658375625
 20
80.542893218813347
 11
143.2293633649428
 21
80.249999999999901
  0
LINE
  8
_0-4_2mm
  6
CONTINUOUS
 62
    7
 10
143.2293633649428
 20
68.249999999999901
 11
143.52225658375625
 21
67.957106781186454
  0
LINE
  8
_0-4_2mm
  6
CONTINUOUS
 62
    7
 10
130.93647014612935
 20
67.95710678118644
 11
131.2293633649428
 21
68.249999999999901
  0
ENDSEC
  0
EOF
