  0
SECTION
  2
HEADER
  9
$ACADVER
  1
AC1009
  9
$INSBASE
 10
0
 20
0
 30
0
  9
$EXTMIN
 10
0
 20
0
  9
$EXTMAX
 10
210.25
 20
148.5
  9
$LIMMIN
 10
0
 20
0
  9
$LIMMAX
 10
210.25
 20
148.5
  9
$LTSCALE
 40
0.25
  0
ENDSEC
  0
SECTION
  2
TABLES
  0
TABLE
  2
LTYPE
 70
     9
  0
LTYPE
  2
CONTINUOUS
 70
    64
  3
実線
 72
    65
 73
     0
 40
0.0
  0
LTYPE
  2
DASHED1
 70
    64
  3
--  --  --  --  --  --  --  --  
 72
    65
 73
     2
 40
2.5
 49
1.25
 49
-1.25
  0
LTYPE
  2
DASHED2
 70
    64
  3
----    ----    ----    ----    
 72
    65
 73
     2
 40
5.0
 49
2.5
 49
-2.5
  0
LTYPE
  2
DASHED3
 70
    64
  3
------  ------  ------  ------  
 72
    65
 73
     2
 40
5.0
 49
3.75
 49
-1.25
  0
LTYPE
  2
CENTER1
 70
    64
  3
----- - ----- - ----- - ----- - 
 72
    65
 73
     4
 40
10.0
 49
6.25
 49
-1.25
 49
1.25
 49
-1.25
  0
LTYPE
  2
CENTER2
 70
    64
  3
----------  --  ----------  --  
 72
    65
 73
     4
 40
20.0
 49
12.5
 49
-2.5
 49
2.5
 49
-2.5
  0
LTYPE
  2
PHANTOM1
 70
    64
  3
--- - - --- - - --- - - --- - - 
 72
    65
 73
     6
 40
10.0
 49
3.25
 49
-1.25
 49
1.25
 49
-1.25
 49
1.25
 49
-1.25
  0
LTYPE
  2
PHANTOM2
 70
    64
  3
--------  -  -  --------  -  -  
 72
    65
 73
     6
 40
20.0
 49
10.0
 49
-2.5
 49
1.25
 49
-2.5
 49
1.25
 49
-2.5
  0
LTYPE
  2
DOT
 70
    64
  3
-   -   -   -   -   -   -   -   
 72
    65
 73
     2
 40
2.5
 49
0.625
 49
-1.875
  0
LTYPE
  2
DUMMY
 70
    64
  3
ダミー
 72
    65
 73
     0
 40
0.0
  0
LTYPE
  2
RAND1
 70
    64
  3
ランダム線1
 72
    65
 73
     4
 40
10.0
 49
1.0
 49
-2.0
 49
3.0
 49
-4.0
  0
LTYPE
  2
RAND2
 70
    64
  3
ランダム線2
 72
    65
 73
     4
 40
14.0
 49
2.0
 49
-3.0
 49
4.0
 49
-5.0
  0
LTYPE
  2
RAND3
 70
    64
  3
ランダム線3
 72
    65
 73
     4
 40
18.0
 49
3.0
 49
-4.0
 49
5.0
 49
-6.0
  0
LTYPE
  2
RAND4
 70
    64
  3
ランダム線4
 72
    65
 73
     4
 40
22.0
 49
4.0
 49
-5.0
 49
6.0
 49
-7.0
  0
LTYPE
  2
RAND5
 70
    64
  3
ランダム線5
 72
    65
 73
     4
 40
26.0
 49
5.0
 49
-6.0
 49
7.0
 49
-8.0
  0
LTYPE
  2
LONG1
 70
    64
  3
----------  --  ----------  --  
 72
    65
 73
     4
 40
40.0
 49
32.5
 49
-2.5
 49
2.5
 49
-2.5
  0
LTYPE
  2
LONG2
 70
    64
  3
--------  -  -  --------  -  -  
 72
    65
 73
     6
 40
40.0
 49
30.0
 49
-2.5
 49
1.25
 49
-2.5
 49
1.25
 49
-2.5
  0
LTYPE
  2
LONG3
 70
    64
  3
+++++++++++++++..+++++++++++++++
 72
    65
 73
     2
 40
40.0
 49
37.5
 49
-2.5
  0
LTYPE
  2
LONG4
 70
    64
  3
+++++++++++++++..+++++++++++++++
 72
    65
 73
     2
 40
80.0
 49
75.0
 49
-5.0
  0
LTYPE
  2
LONG5
 70
    64
  3
----------  --  ----------  --  
 72
    65
 73
     4
 40
60.0
 49
37.5
 49
-7.5
 49
7.5
 49
-7.5
  0
LTYPE
  2
dashed
 70
   64
  3
-------   -------------   ------
 72
   65
 73
    2
 40
7.5
 49
6
 49
-1.5
  0
LTYPE
  2
dashed_spaced
 70
   64
  3
----        --------        ----
 72
   65
 73
    2
 40
12
 49
6
 49
-6
  0
LTYPE
  2
long_dashed_dotted
 70
   64
  3
------------- --- --------------
 72
   65
 73
    4
 40
15.25
 49
12
 49
-1.5
 49
0.25
 49
-1.5
  0
LTYPE
  2
long_dashed_double-dotted
 70
   64
  3
----------- --- --- ------------
 72
   65
 73
    6
 40
17
 49
12
 49
-1.5
 49
0.25
 49
-1.5
 49
0.25
 49
-1.5
  0
LTYPE
  2
long_dashed_triplicate-dotted
 70
   64
  3
--------- --- --- --- ----------
 72
   65
 73
    8
 40
18.75
 49
12
 49
-1.5
 49
0.25
 49
-1.5
 49
0.25
 49
-1.5
 49
0.25
 49
-1.5
  0
LTYPE
  2
dotted
 70
   64
  3
   -       -       -       -    
 72
   65
 73
    2
 40
1.75
 49
0.25
 49
-1.5
  0
LTYPE
  2
chain
 70
   64
  3
-------------- -- --------------
 72
   65
 73
    4
 40
18.5
 49
12
 49
-1.5
 49
3.5
 49
-1.5
  0
LTYPE
  2
chain_double_dash
 70
   64
  3
------------ -- -- -------------
 72
   65
 73
    6
 40
23.5
 49
12
 49
-1.5
 49
3.5
 49
-1.5
 49
3.5
 49
-1.5
  0
LTYPE
  2
dashed_dotted
 70
   64
  3
-----------     -     ----------
 72
   65
 73
    4
 40
9.25
 49
6
 49
-1.5
 49
0.25
 49
-1.5
  0
LTYPE
  2
double-dashed_dotted
 70
   64
  3
------   -----------   -   -----
 72
   65
 73
    6
 40
16.75
 49
6
 49
-1.5
 49
6
 49
-1.5
 49
0.25
 49
-1.5
  0
LTYPE
  2
dashed_double-dotted
 70
   64
  3
---------    -    -    ---------
 72
   65
 73
    6
 40
11
 49
6
 49
-1.5
 49
0.25
 49
-1.5
 49
0.25
 49
-1.5
  0
LTYPE
  2
double-dashed_double-dotted
 70
   64
  3
-----   ---------   -   -   ----
 72
   65
 73
    8
 40
18.5
 49
6
 49
-1.5
 49
6
 49
-1.5
 49
0.25
 49
-1.5
 49
0.25
 49
-1.5
  0
LTYPE
  2
dashed_triplicate-dotted
 70
   64
  3
-------    -    -    -    ------
 72
   65
 73
    8
 40
12.75
 49
6
 49
-1.5
 49
0.25
 49
-1.5
 49
0.25
 49
-1.5
 49
0.25
 49
-1.5
  0
LTYPE
  2
double-dashed_triplicate-dotted
 70
   64
  3
-----  ---------  -  -  -  -----
 72
   65
 73
   10
 40
20.25
 49
6
 49
-1.5
 49
6
 49
-1.5
 49
0.25
 49
-1.5
 49
0.25
 49
-1.5
 49
0.25
 49
-1.5
  0
LTYPE
  2
undefined
 70
   64
  3
--------------------------------
 72
   65
 73
    0
 40
0
  0
LTYPE
  2
CHAIN
 70
   64
  3
-----------   -----   ----------
 72
   65
 73
    4
 40
0.3542999999999999
 49
0.2361999999999999
 49
-0.0294999999999999
 49
0.0591
 49
-0.0294999999999999
  0
LTYPE
  2
DASH_DOT
 70
   64
  3
-----------     -     ----------
 72
   65
 73
    4
 40
0.37
 49
0.2399999999999999
 49
-0.0599999999999999
 49
0.01
 49
-0.0599999999999999
  0
LTYPE
  2
DASH_DOUBLE_DOT
 70
   64
  3
---------    -    -    ---------
 72
   65
 73
    6
 40
0.4397999999999999
 49
0.2399999999999999
 49
-0.0599999999999999
 49
0.0097999999999999
 49
-0.0599999999999999
 49
0.01
 49
-0.0599999999999999
  0
LTYPE
  2
DASH_TRIPLE_DOT
 70
   64
  3
-------    -    -    -    ------
 72
   65
 73
    8
 40
0.51
 49
0.2399999999999999
 49
-0.0599999999999999
 49
0.01
 49
-0.0599999999999999
 49
0.01
 49
-0.0599999999999999
 49
0.01
 49
-0.0599999999999999
  0
LTYPE
  2
DASHED
 70
   64
  3
-------   -------------   ------
 72
   65
 73
    2
 40
0.2066999999999999
 49
0.1653999999999999
 49
-0.0413
  0
LTYPE
  2
DASHED_SPACE
 70
   64
  3
----        --------        ----
 72
   65
 73
    2
 40
0.0826
 49
0.0413
 49
-0.0413
  0
LTYPE
  2
DOTTED
 70
   64
  3
-              --              -
 72
   65
 73
    2
 40
0.0482
 49
0.0068999999999999
 49
-0.0413
  0
LTYPE
  2
DOUBLE_DASH_CHAIN
 70
   64
  3
---------  ----  ----  ---------
 72
   65
 73
    6
 40
1.2403
 49
0.6613999999999999
 49
-0.0826999999999999
 49
0.1653999999999999
 49
-0.0826999999999999
 49
0.1653999999999999
 49
-0.0826999999999999
  0
LTYPE
  2
DOUBLE_DASH_DOT
 70
   64
  3
------   -----------   -   -----
 72
   65
 73
    6
 40
0.6700000000000001
 49
0.2399999999999999
 49
-0.0599999999999999
 49
0.2399999999999999
 49
-0.0599999999999999
 49
0.01
 49
-0.0599999999999999
  0
LTYPE
  2
DOUBLE_DASH_DOUBLE_DOT
 70
   64
  3
-----   ---------   -   -   ----
 72
   65
 73
    8
 40
0.7400000000000002
 49
0.2399999999999999
 49
-0.0599999999999999
 49
0.2399999999999999
 49
-0.0599999999999999
 49
0.01
 49
-0.0599999999999999
 49
0.01
 49
-0.0599999999999999
  0
LTYPE
  2
LONG_DASH_DOTTED
 70
   64
  3
-------------   -   ------------
 72
   65
 73
    4
 40
0.6100000000000001
 49
0.4799999999999999
 49
-0.0599999999999999
 49
0.01
 49
-0.0599999999999999
  0
LTYPE
  2
LONG_DASH_DOUBLE_DOT
 70
   64
  3
-----------   -   -   ----------
 72
   65
 73
    6
 40
0.3345
 49
0.2361999999999999
 49
-0.0294999999999999
 49
0.0048999999999999
 49
-0.0294999999999999
 49
0.0048999999999999
 49
-0.0294999999999999
  0
LTYPE
  2
LONG_DASH_TRIPLE_DOT
 70
   64
  3
---------   -   -   -   --------
 72
   65
 73
    8
 40
0.7500000000000002
 49
0.4799999999999999
 49
-0.0599999999999999
 49
0.01
 49
-0.0599999999999999
 49
0.01
 49
-0.0599999999999999
 49
0.01
 49
-0.0599999999999999
  0
LTYPE
  2
BORDER
 70
   64
  3
----     --------     -     ----
 72
   65
 73
    6
 40
44.459999999999994
 49
12.699999999999999
 49
-6.3499999999999988
 49
12.699999999999999
 49
-6.3499999999999988
 49
0.01
 49
-6.3499999999999988
  0
LTYPE
  2
BORDER2
 70
   64
  3
----     --------     -     ----
 72
   65
 73
    6
 40
22.234999999999999
 49
6.3499999999999988
 49
-3.1749999999999989
 49
6.3499999999999988
 49
-3.1749999999999989
 49
0.01
 49
-3.1749999999999989
  0
LTYPE
  2
BORDERX2
 70
   64
  3
----     --------     -     ----
 72
   65
 73
    6
 40
88.909999999999997
 49
25.399999999999999
 49
-12.699999999999999
 49
25.399999999999999
 49
-12.699999999999999
 49
0.01
 49
-12.699999999999999
  0
ENDTAB
  0
TABLE
  2
STYLE
  5
3
100
AcDbSymbolTable
 70
     1
  0
STYLE
  5
10
100
AcDbSymbolTableRecord
100
AcDbTextStyleTableRecord
  2
STANDARD
 70
     0
 40
0.0
 41
1.0
 50
0.0
 71
     0
 42
0.2
  3
txt
  4
bigfont.shx
  0
STYLE
  5
26
100
AcDbSymbolTableRecord
100
AcDbTextStyleTableRecord
  2
TATEGAKI
 70
    68
 40
0.0
 41
1.0
 50
0.0
 71
     0
 42
1.0
  3
txt
  4
bigfont.shx
  0
ENDTAB
  0
TABLE
  2
LAYER
 70
    5
  0
LAYER
  2
_0-1_Bend_Centerline__ISO_
 70
   64
 62
    7
  6
CONTINUOUS
  0
LAYER
  2
_0-2_Visible__ISO_
 70
   64
 62
    7
  6
CONTINUOUS
  0
LAYER
  2
_0-4_2mm
 70
   64
 62
    7
  6
CONTINUOUS
  0
LAYER
  2
_0-5_0_5mm
 70
   64
 62
    7
  6
CONTINUOUS
  0
LAYER
  2
ADD_LINE
 70
   64
 62
    7
  6
CONTINUOUS
  0
ENDTAB
  0
ENDSEC
  0
SECTION
  2
BLOCKS
  0
ENDSEC
  0
SECTION
  2
ENTITIES
  0
ARC
  8
_0-2_Visible__ISO_
  6
CONTINUOUS
 62
    7
 10
160.6488934211693
 20
120.24999999999999
 40
3.9999999999999991
 50
0
 51
90
  0
LINE
  8
_0-2_Visible__ISO_
  6
CONTINUOUS
 62
    7
 10
164.6488934211693
 20
120.24999999999999
 11
164.6488934211693
 21
114.5707929124771
  0
LINE
  8
_0-2_Visible__ISO_
  6
CONTINUOUS
 62
    7
 10
45.601106578830709
 20
114.57079291247699
 11
45.601106578830723
 21
120.2499999999999
  0
LINE
  8
_0-2_Visible__ISO_
  6
CONTINUOUS
 62
    7
 10
45.601106578830723
 20
52.973424978068024
 11
45.601106578830723
 21
91.087214877026696
  0
LINE
  8
_0-2_Visible__ISO_
  6
CONTINUOUS
 62
    7
 10
164.6488934211693
 20
91.087214877026796
 11
164.6488934211693
 21
52.973424978068053
  0
ARC
  8
_0-2_Visible__ISO_
  6
CONTINUOUS
 62
    7
 10
49.601106578830752
 20
120.2499999999999
 40
4.0000000000000213
 50
90.000000000000256
 51
180
  0
LINE
  8
_0-2_Visible__ISO_
  6
CONTINUOUS
 62
    7
 10
49.601106578830738
 20
124.2499999999999
 11
160.6488934211693
 21
124.24999999999999
  0
LINE
  8
_0-2_Visible__ISO_
  6
CONTINUOUS
 62
    7
 10
146.57100281866482
 20
24.249999999999979
 11
63.678997181335205
 21
24.249999999999979
  0
CIRCLE
  8
_0-2_Visible__ISO_
  6
CONTINUOUS
 62
    7
 10
160.64889342116922
 20
120.24999999999999
 40
1.5
  0
CIRCLE
  8
_0-2_Visible__ISO_
  6
CONTINUOUS
 62
    7
 10
160.6488934211693
 20
84.25
 40
1.5
  0
CIRCLE
  8
_0-2_Visible__ISO_
  6
CONTINUOUS
 62
    7
 10
49.601106578830738
 20
84.249999999999901
 40
1.5
  0
CIRCLE
  8
_0-2_Visible__ISO_
  6
CONTINUOUS
 62
    7
 10
49.601106578830738
 20
120.2499999999999
 40
1.5
  0
LINE
  8
_0-2_Visible__ISO_
  6
CONTINUOUS
 62
    7
 10
116.21265020874341
 20
46.618058547745534
 11
92.235726121892213
 21
47.931080655517434
  0
LINE
  8
_0-2_Visible__ISO_
  6
CONTINUOUS
 62
    7
 10
87.304423629495318
 20
51.034389391938348
 11
80.283637893380714
 21
63.821315627090812
  0
LINE
  8
_0-2_Visible__ISO_
  6
CONTINUOUS
 62
    7
 10
79.543020267345213
 20
66.709030475276293
 11
79.543020267345213
 21
102.0721867051512
  0
LINE
  8
_0-2_Visible__ISO_
  6
CONTINUOUS
 62
    7
 10
85.73101568261491
 20
108.0692407922708
 11
119.37965573110262
 21
107.0144245496153
  0
LINE
  8
_0-2_Visible__ISO_
  6
CONTINUOUS
 62
    7
 10
125.18268390043932
 20
100.6892905809281
 11
122.53175367491752
 21
52.281002250784283
  0
ARC
  8
_0-2_Visible__ISO_
  6
CONTINUOUS
 62
    7
 10
92.563806003459817
 20
53.922104240123844
 40
5.9999999999999742
 50
208.76941388198551
 51
266.8655046105066
  0
ARC
  8
_0-2_Visible__ISO_
  6
CONTINUOUS
 62
    7
 10
85.543020267345113
 20
66.709030475276293
 40
5.9999999999998446
 50
180
 51
208.76941388198591
  0
ARC
  8
_0-2_Visible__ISO_
  6
CONTINUOUS
 62
    7
 10
85.543020267345213
 20
102.0721867051512
 40
6.0000000000000027
 50
88.204482155522385
 51
180
  0
ARC
  8
_0-2_Visible__ISO_
  6
CONTINUOUS
 62
    7
 10
119.19166031583282
 20
101.01737046249569
 40
6.0000000000000009
 50
356.86550461050655
 51
88.204482155522413
  0
ARC
  8
_0-2_Visible__ISO_
  6
CONTINUOUS
 62
    7
 10
116.54073009031111
 20
52.609082132351944
 40
5.999999999999992
 50
266.86550461050655
 51
356.86550461050672
  0
CIRCLE
  8
_0-2_Visible__ISO_
  6
CONTINUOUS
 62
    7
 10
124.12499999999991
 20
119.24999999999999
 40
1.5
  0
CIRCLE
  8
_0-2_Visible__ISO_
  6
CONTINUOUS
 62
    7
 10
76.125000000000014
 20
29.249999999999979
 40
1.5
  0
CIRCLE
  8
_0-2_Visible__ISO_
  6
CONTINUOUS
 62
    7
 10
124.125
 20
29.250000000000007
 40
1.5
  0
CIRCLE
  8
_0-2_Visible__ISO_
  6
CONTINUOUS
 62
    7
 10
76.124999999999915
 20
119.24999999999999
 40
1.5
  0
CIRCLE
  8
_0-2_Visible__ISO_
  6
CONTINUOUS
 62
    7
 10
132.125
 20
31.250000000000014
 40
3
  0
LINE
  8
_0-2_Visible__ISO_
  6
CONTINUOUS
 62
    7
 10
45.601106578830709
 20
114.57079291247699
 11
52.943055122573085
 21
104.62011937129911
  0
LINE
  8
_0-2_Visible__ISO_
  6
CONTINUOUS
 62
    7
 10
52.943055122573085
 20
104.62011937129911
 11
52.943055122573085
 21
100.49059336753218
  0
LINE
  8
_0-2_Visible__ISO_
  6
CONTINUOUS
 62
    7
 10
52.943055122573085
 20
100.49059336753218
 11
45.601106578830723
 21
91.087214877026696
  0
LINE
  8
_0-2_Visible__ISO_
  6
CONTINUOUS
 62
    7
 10
45.601106578830723
 20
52.973424978068024
 11
63.678997181335205
 21
24.249999999999979
  0
LINE
  8
_0-2_Visible__ISO_
  6
CONTINUOUS
 62
    7
 10
146.57100281866482
 20
24.249999999999979
 11
164.6488934211693
 21
52.973424978068053
  0
LINE
  8
_0-2_Visible__ISO_
  6
CONTINUOUS
 62
    7
 10
164.6488934211693
 20
91.087214877026796
 11
157.3069448774269
 21
100.49059336753218
  0
LINE
  8
_0-2_Visible__ISO_
  6
CONTINUOUS
 62
    7
 10
157.3069448774269
 20
100.49059336753218
 11
157.3069448774269
 21
104.62011937129911
  0
LINE
  8
_0-2_Visible__ISO_
  6
CONTINUOUS
 62
    7
 10
157.3069448774269
 20
104.62011937129911
 11
164.6488934211693
 21
114.5707929124771
  0
LINE
  8
_0-1_Bend_Centerline__ISO_
  6
CHAIN
 62
    7
 10
68.863053289415305
 20
124.2499999999999
 11
68.863053289415305
 21
24.249999999999979
  0
LINE
  8
_0-1_Bend_Centerline__ISO_
  6
CHAIN
 62
    7
 10
141.38694671058471
 20
24.250000000000007
 11
141.38694671058462
 21
124.24999999999999
  0
LINE
  8
_0-4_2mm
  6
CONTINUOUS
 62
    7
 10
165.6488934211693
 20
120.24999999999999
 11
165.6488934211693
 21
114.24180481994753
  0
LINE
  8
_0-4_2mm
  6
CONTINUOUS
 62
    7
 10
165.6488934211693
 20
114.24180481994753
 11
158.3069448774269
 21
104.29113127876954
  0
LINE
  8
_0-4_2mm
  6
CONTINUOUS
 62
    7
 10
158.3069448774269
 20
104.29113127876954
 11
158.3069448774269
 21
100.83474455995879
  0
LINE
  8
_0-4_2mm
  6
CONTINUOUS
 62
    7
 10
158.3069448774269
 20
100.83474455995879
 11
165.6488934211693
 21
91.431366069453404
  0
LINE
  8
_0-4_2mm
  6
CONTINUOUS
 62
    7
 10
165.6488934211693
 20
91.431366069453404
 11
165.6488934211693
 21
52.684927764252947
  0
LINE
  8
_0-4_2mm
  6
CONTINUOUS
 62
    7
 10
165.6488934211693
 20
52.684927764252947
 11
147.12319864691827
 21
23.249999999999979
  0
LINE
  8
_0-4_2mm
  6
CONTINUOUS
 62
    7
 10
147.12319864691827
 20
23.249999999999979
 11
63.126801353081746
 21
23.249999999999979
  0
LINE
  8
_0-4_2mm
  6
CONTINUOUS
 62
    7
 10
63.126801353081746
 20
23.249999999999979
 11
44.601106578830723
 21
52.684927764252919
  0
LINE
  8
_0-4_2mm
  6
CONTINUOUS
 62
    7
 10
44.601106578830723
 20
52.684927764252919
 11
44.601106578830723
 21
91.43136606945329
  0
LINE
  8
_0-4_2mm
  6
CONTINUOUS
 62
    7
 10
44.601106578830723
 20
91.43136606945329
 11
51.943055122573085
 21
100.83474455995878
  0
LINE
  8
_0-4_2mm
  6
CONTINUOUS
 62
    7
 10
51.943055122573085
 20
100.83474455995878
 11
51.943055122573085
 21
104.29113127876954
  0
LINE
  8
_0-4_2mm
  6
CONTINUOUS
 62
    7
 10
51.943055122573085
 20
104.29113127876954
 11
44.601106578830709
 21
114.24180481994742
  0
LINE
  8
_0-4_2mm
  6
CONTINUOUS
 62
    7
 10
44.601106578830709
 20
114.24180481994742
 11
44.601106578830723
 21
120.2499999999999
  0
LINE
  8
_0-4_2mm
  6
CONTINUOUS
 62
    7
 10
49.601106578830738
 20
125.2499999999999
 11
160.6488934211693
 21
125.24999999999999
  0
ARC
  8
_0-4_2mm
  6
CONTINUOUS
 62
    7
 10
49.601106578830752
 20
120.2499999999999
 40
5.0000000000000213
 50
90.000000000000256
 51
180
  0
ARC
  8
_0-4_2mm
  6
CONTINUOUS
 62
    7
 10
160.6488934211693
 20
120.24999999999999
 40
4.9999999999999991
 50
0
 51
90
  0
LINE
  8
_0-4_2mm
  6
CONTINUOUS
 62
    7
 10
116.2673301890047
 20
47.616562478513274
 11
92.290406102153483
 21
48.929584586285173
  0
LINE
  8
_0-4_2mm
  6
CONTINUOUS
 62
    7
 10
88.180987358489404
 20
51.515675199969266
 11
81.1602016223748
 21
64.30260143512173
  0
LINE
  8
_0-4_2mm
  6
CONTINUOUS
 62
    7
 10
80.543020267345213
 20
66.709030475276293
 11
80.543020267345213
 21
102.0721867051512
  0
LINE
  8
_0-4_2mm
  6
CONTINUOUS
 62
    7
 10
85.699683113403296
 20
107.06973177775087
 11
119.34832316189099
 21
106.01491553509537
  0
LINE
  8
_0-4_2mm
  6
CONTINUOUS
 62
    7
 10
124.18417996967158
 20
100.74397056118937
 11
121.53324974414978
 21
52.33568223104556
  0
ARC
  8
_0-4_2mm
  6
CONTINUOUS
 62
    7
 10
92.563806003459817
 20
53.922104240123844
 40
4.9999999999999742
 50
208.76941388198551
 51
266.8655046105066
  0
ARC
  8
_0-4_2mm
  6
CONTINUOUS
 62
    7
 10
85.543020267345113
 20
66.709030475276293
 40
4.9999999999998446
 50
180
 51
208.76941388198591
  0
ARC
  8
_0-4_2mm
  6
CONTINUOUS
 62
    7
 10
85.543020267345213
 20
102.0721867051512
 40
5.0000000000000027
 50
88.204482155522385
 51
180
  0
ARC
  8
_0-4_2mm
  6
CONTINUOUS
 62
    7
 10
119.19166031583282
 20
101.01737046249569
 40
5.0000000000000009
 50
356.86550461050655
 51
88.204482155522413
  0
ARC
  8
_0-4_2mm
  6
CONTINUOUS
 62
    7
 10
116.54073009031111
 20
52.609082132351944
 40
4.999999999999992
 50
266.86550461050655
 51
356.86550461050672
  0
CIRCLE
  8
_0-4_2mm
  6
CONTINUOUS
 62
    7
 10
124.12499999999991
 20
119.24999999999999
 40
0.5
  0
CIRCLE
  8
_0-4_2mm
  6
CONTINUOUS
 62
    7
 10
76.124999999999915
 20
119.24999999999999
 40
0.5
  0
CIRCLE
  8
_0-4_2mm
  6
CONTINUOUS
 62
    7
 10
49.601106578830738
 20
120.2499999999999
 40
0.5
  0
CIRCLE
  8
_0-4_2mm
  6
CONTINUOUS
 62
    7
 10
160.64889342116922
 20
120.24999999999999
 40
0.5
  0
CIRCLE
  8
_0-4_2mm
  6
CONTINUOUS
 62
    7
 10
160.6488934211693
 20
84.25
 40
0.5
  0
CIRCLE
  8
_0-4_2mm
  6
CONTINUOUS
 62
    7
 10
132.125
 20
31.250000000000014
 40
2
  0
CIRCLE
  8
_0-4_2mm
  6
CONTINUOUS
 62
    7
 10
124.125
 20
29.250000000000007
 40
0.5
  0
CIRCLE
  8
_0-4_2mm
  6
CONTINUOUS
 62
    7
 10
76.125000000000014
 20
29.249999999999979
 40
0.5
  0
CIRCLE
  8
_0-4_2mm
  6
CONTINUOUS
 62
    7
 10
49.601106578830738
 20
84.249999999999901
 40
0.5
  0
LINE
  8
_0-5_0_5mm
  6
CONTINUOUS
 62
    7
 10
68.863053289415305
 20
124.2499999999999
 11
68.863053289415305
 21
24.249999999999979
  0
LINE
  8
_0-5_0_5mm
  6
CONTINUOUS
 62
    7
 10
141.38694671058462
 20
124.24999999999997
 11
141.38694671058471
 21
24.250000000000007
  0
ENDSEC
  0
EOF
