  0
SECTION
  2
HEADER
  9
$ACADVER
  1
AC1009
  9
$INSBASE
 10
0
 20
0
 30
0
  9
$EXTMIN
 10
0
 20
0
  9
$EXTMAX
 10
210.25
 20
148.5
  9
$LIMMIN
 10
0
 20
0
  9
$LIMMAX
 10
210.25
 20
148.5
  9
$LTSCALE
 40
0.25
  0
ENDSEC
  0
SECTION
  2
TABLES
  0
TABLE
  2
LTYPE
 70
     9
  0
LTYPE
  2
CONTINUOUS
 70
    64
  3
実線
 72
    65
 73
     0
 40
0.0
  0
LTYPE
  2
DASHED1
 70
    64
  3
--  --  --  --  --  --  --  --  
 72
    65
 73
     2
 40
2.5
 49
1.25
 49
-1.25
  0
LTYPE
  2
DASHED2
 70
    64
  3
----    ----    ----    ----    
 72
    65
 73
     2
 40
5.0
 49
2.5
 49
-2.5
  0
LTYPE
  2
DASHED3
 70
    64
  3
------  ------  ------  ------  
 72
    65
 73
     2
 40
5.0
 49
3.75
 49
-1.25
  0
LTYPE
  2
CENTER1
 70
    64
  3
----- - ----- - ----- - ----- - 
 72
    65
 73
     4
 40
10.0
 49
6.25
 49
-1.25
 49
1.25
 49
-1.25
  0
LTYPE
  2
CENTER2
 70
    64
  3
----------  --  ----------  --  
 72
    65
 73
     4
 40
20.0
 49
12.5
 49
-2.5
 49
2.5
 49
-2.5
  0
LTYPE
  2
PHANTOM1
 70
    64
  3
--- - - --- - - --- - - --- - - 
 72
    65
 73
     6
 40
10.0
 49
3.25
 49
-1.25
 49
1.25
 49
-1.25
 49
1.25
 49
-1.25
  0
LTYPE
  2
PHANTOM2
 70
    64
  3
--------  -  -  --------  -  -  
 72
    65
 73
     6
 40
20.0
 49
10.0
 49
-2.5
 49
1.25
 49
-2.5
 49
1.25
 49
-2.5
  0
LTYPE
  2
DOT
 70
    64
  3
-   -   -   -   -   -   -   -   
 72
    65
 73
     2
 40
2.5
 49
0.625
 49
-1.875
  0
LTYPE
  2
DUMMY
 70
    64
  3
ダミー
 72
    65
 73
     0
 40
0.0
  0
LTYPE
  2
RAND1
 70
    64
  3
ランダム線1
 72
    65
 73
     4
 40
10.0
 49
1.0
 49
-2.0
 49
3.0
 49
-4.0
  0
LTYPE
  2
RAND2
 70
    64
  3
ランダム線2
 72
    65
 73
     4
 40
14.0
 49
2.0
 49
-3.0
 49
4.0
 49
-5.0
  0
LTYPE
  2
RAND3
 70
    64
  3
ランダム線3
 72
    65
 73
     4
 40
18.0
 49
3.0
 49
-4.0
 49
5.0
 49
-6.0
  0
LTYPE
  2
RAND4
 70
    64
  3
ランダム線4
 72
    65
 73
     4
 40
22.0
 49
4.0
 49
-5.0
 49
6.0
 49
-7.0
  0
LTYPE
  2
RAND5
 70
    64
  3
ランダム線5
 72
    65
 73
     4
 40
26.0
 49
5.0
 49
-6.0
 49
7.0
 49
-8.0
  0
LTYPE
  2
LONG1
 70
    64
  3
----------  --  ----------  --  
 72
    65
 73
     4
 40
40.0
 49
32.5
 49
-2.5
 49
2.5
 49
-2.5
  0
LTYPE
  2
LONG2
 70
    64
  3
--------  -  -  --------  -  -  
 72
    65
 73
     6
 40
40.0
 49
30.0
 49
-2.5
 49
1.25
 49
-2.5
 49
1.25
 49
-2.5
  0
LTYPE
  2
LONG3
 70
    64
  3
+++++++++++++++..+++++++++++++++
 72
    65
 73
     2
 40
40.0
 49
37.5
 49
-2.5
  0
LTYPE
  2
LONG4
 70
    64
  3
+++++++++++++++..+++++++++++++++
 72
    65
 73
     2
 40
80.0
 49
75.0
 49
-5.0
  0
LTYPE
  2
LONG5
 70
    64
  3
----------  --  ----------  --  
 72
    65
 73
     4
 40
60.0
 49
37.5
 49
-7.5
 49
7.5
 49
-7.5
  0
LTYPE
  2
dashed
 70
   64
  3
-------   -------------   ------
 72
   65
 73
    2
 40
7.5
 49
6
 49
-1.5
  0
LTYPE
  2
dashed_spaced
 70
   64
  3
----        --------        ----
 72
   65
 73
    2
 40
12
 49
6
 49
-6
  0
LTYPE
  2
long_dashed_dotted
 70
   64
  3
------------- --- --------------
 72
   65
 73
    4
 40
15.25
 49
12
 49
-1.5
 49
0.25
 49
-1.5
  0
LTYPE
  2
long_dashed_double-dotted
 70
   64
  3
----------- --- --- ------------
 72
   65
 73
    6
 40
17
 49
12
 49
-1.5
 49
0.25
 49
-1.5
 49
0.25
 49
-1.5
  0
LTYPE
  2
long_dashed_triplicate-dotted
 70
   64
  3
--------- --- --- --- ----------
 72
   65
 73
    8
 40
18.75
 49
12
 49
-1.5
 49
0.25
 49
-1.5
 49
0.25
 49
-1.5
 49
0.25
 49
-1.5
  0
LTYPE
  2
dotted
 70
   64
  3
   -       -       -       -    
 72
   65
 73
    2
 40
1.75
 49
0.25
 49
-1.5
  0
LTYPE
  2
chain
 70
   64
  3
-------------- -- --------------
 72
   65
 73
    4
 40
18.5
 49
12
 49
-1.5
 49
3.5
 49
-1.5
  0
LTYPE
  2
chain_double_dash
 70
   64
  3
------------ -- -- -------------
 72
   65
 73
    6
 40
23.5
 49
12
 49
-1.5
 49
3.5
 49
-1.5
 49
3.5
 49
-1.5
  0
LTYPE
  2
dashed_dotted
 70
   64
  3
-----------     -     ----------
 72
   65
 73
    4
 40
9.25
 49
6
 49
-1.5
 49
0.25
 49
-1.5
  0
LTYPE
  2
double-dashed_dotted
 70
   64
  3
------   -----------   -   -----
 72
   65
 73
    6
 40
16.75
 49
6
 49
-1.5
 49
6
 49
-1.5
 49
0.25
 49
-1.5
  0
LTYPE
  2
dashed_double-dotted
 70
   64
  3
---------    -    -    ---------
 72
   65
 73
    6
 40
11
 49
6
 49
-1.5
 49
0.25
 49
-1.5
 49
0.25
 49
-1.5
  0
LTYPE
  2
double-dashed_double-dotted
 70
   64
  3
-----   ---------   -   -   ----
 72
   65
 73
    8
 40
18.5
 49
6
 49
-1.5
 49
6
 49
-1.5
 49
0.25
 49
-1.5
 49
0.25
 49
-1.5
  0
LTYPE
  2
dashed_triplicate-dotted
 70
   64
  3
-------    -    -    -    ------
 72
   65
 73
    8
 40
12.75
 49
6
 49
-1.5
 49
0.25
 49
-1.5
 49
0.25
 49
-1.5
 49
0.25
 49
-1.5
  0
LTYPE
  2
double-dashed_triplicate-dotted
 70
   64
  3
-----  ---------  -  -  -  -----
 72
   65
 73
   10
 40
20.25
 49
6
 49
-1.5
 49
6
 49
-1.5
 49
0.25
 49
-1.5
 49
0.25
 49
-1.5
 49
0.25
 49
-1.5
  0
LTYPE
  2
undefined
 70
   64
  3
--------------------------------
 72
   65
 73
    0
 40
0
  0
LTYPE
  2
CHAIN
 70
   64
  3
-----------   -----   ----------
 72
   65
 73
    4
 40
0.3542999999999999
 49
0.2361999999999999
 49
-0.0294999999999999
 49
0.0591
 49
-0.0294999999999999
  0
LTYPE
  2
DASH_DOT
 70
   64
  3
-----------     -     ----------
 72
   65
 73
    4
 40
0.37
 49
0.2399999999999999
 49
-0.0599999999999999
 49
0.01
 49
-0.0599999999999999
  0
LTYPE
  2
DASH_DOUBLE_DOT
 70
   64
  3
---------    -    -    ---------
 72
   65
 73
    6
 40
0.4397999999999999
 49
0.2399999999999999
 49
-0.0599999999999999
 49
0.0097999999999999
 49
-0.0599999999999999
 49
0.01
 49
-0.0599999999999999
  0
LTYPE
  2
DASH_TRIPLE_DOT
 70
   64
  3
-------    -    -    -    ------
 72
   65
 73
    8
 40
0.51
 49
0.2399999999999999
 49
-0.0599999999999999
 49
0.01
 49
-0.0599999999999999
 49
0.01
 49
-0.0599999999999999
 49
0.01
 49
-0.0599999999999999
  0
LTYPE
  2
DASHED
 70
   64
  3
-------   -------------   ------
 72
   65
 73
    2
 40
0.2066999999999999
 49
0.1653999999999999
 49
-0.0413
  0
LTYPE
  2
DASHED_SPACE
 70
   64
  3
----        --------        ----
 72
   65
 73
    2
 40
0.0826
 49
0.0413
 49
-0.0413
  0
LTYPE
  2
DOTTED
 70
   64
  3
-              --              -
 72
   65
 73
    2
 40
0.0482
 49
0.0068999999999999
 49
-0.0413
  0
LTYPE
  2
DOUBLE_DASH_CHAIN
 70
   64
  3
---------  ----  ----  ---------
 72
   65
 73
    6
 40
1.2403
 49
0.6613999999999999
 49
-0.0826999999999999
 49
0.1653999999999999
 49
-0.0826999999999999
 49
0.1653999999999999
 49
-0.0826999999999999
  0
LTYPE
  2
DOUBLE_DASH_DOT
 70
   64
  3
------   -----------   -   -----
 72
   65
 73
    6
 40
0.6700000000000001
 49
0.2399999999999999
 49
-0.0599999999999999
 49
0.2399999999999999
 49
-0.0599999999999999
 49
0.01
 49
-0.0599999999999999
  0
LTYPE
  2
DOUBLE_DASH_DOUBLE_DOT
 70
   64
  3
-----   ---------   -   -   ----
 72
   65
 73
    8
 40
0.7400000000000002
 49
0.2399999999999999
 49
-0.0599999999999999
 49
0.2399999999999999
 49
-0.0599999999999999
 49
0.01
 49
-0.0599999999999999
 49
0.01
 49
-0.0599999999999999
  0
LTYPE
  2
LONG_DASH_DOTTED
 70
   64
  3
-------------   -   ------------
 72
   65
 73
    4
 40
0.6100000000000001
 49
0.4799999999999999
 49
-0.0599999999999999
 49
0.01
 49
-0.0599999999999999
  0
LTYPE
  2
LONG_DASH_DOUBLE_DOT
 70
   64
  3
-----------   -   -   ----------
 72
   65
 73
    6
 40
0.3345
 49
0.2361999999999999
 49
-0.0294999999999999
 49
0.0048999999999999
 49
-0.0294999999999999
 49
0.0048999999999999
 49
-0.0294999999999999
  0
LTYPE
  2
LONG_DASH_TRIPLE_DOT
 70
   64
  3
---------   -   -   -   --------
 72
   65
 73
    8
 40
0.7500000000000002
 49
0.4799999999999999
 49
-0.0599999999999999
 49
0.01
 49
-0.0599999999999999
 49
0.01
 49
-0.0599999999999999
 49
0.01
 49
-0.0599999999999999
  0
LTYPE
  2
BORDER
 70
   64
  3
----     --------     -     ----
 72
   65
 73
    6
 40
44.459999999999994
 49
12.699999999999999
 49
-6.3499999999999988
 49
12.699999999999999
 49
-6.3499999999999988
 49
0.01
 49
-6.3499999999999988
  0
LTYPE
  2
BORDER2
 70
   64
  3
----     --------     -     ----
 72
   65
 73
    6
 40
22.234999999999999
 49
6.3499999999999988
 49
-3.1749999999999989
 49
6.3499999999999988
 49
-3.1749999999999989
 49
0.01
 49
-3.1749999999999989
  0
LTYPE
  2
BORDERX2
 70
   64
  3
----     --------     -     ----
 72
   65
 73
    6
 40
88.909999999999997
 49
25.399999999999999
 49
-12.699999999999999
 49
25.399999999999999
 49
-12.699999999999999
 49
0.01
 49
-12.699999999999999
  0
ENDTAB
  0
TABLE
  2
STYLE
  5
3
100
AcDbSymbolTable
 70
     1
  0
STYLE
  5
10
100
AcDbSymbolTableRecord
100
AcDbTextStyleTableRecord
  2
STANDARD
 70
     0
 40
0.0
 41
1.0
 50
0.0
 71
     0
 42
0.2
  3
txt
  4
bigfont.shx
  0
STYLE
  5
26
100
AcDbSymbolTableRecord
100
AcDbTextStyleTableRecord
  2
TATEGAKI
 70
    68
 40
0.0
 41
1.0
 50
0.0
 71
     0
 42
1.0
  3
txt
  4
bigfont.shx
  0
ENDTAB
  0
TABLE
  2
LAYER
 70
    3
  0
LAYER
  2
_0-1_Visible__ISO_
 70
   64
 62
    7
  6
CONTINUOUS
  0
LAYER
  2
_0-4_2mm
 70
   64
 62
    7
  6
CONTINUOUS
  0
LAYER
  2
ADD_LINE
 70
   64
 62
    7
  6
CONTINUOUS
  0
ENDTAB
  0
ENDSEC
  0
SECTION
  2
BLOCKS
  0
ENDSEC
  0
SECTION
  2
ENTITIES
  0
CIRCLE
  8
_0-1_Visible__ISO_
  6
CONTINUOUS
 62
    7
 10
136.19942867387721
 20
41.797056375022876
 40
1.5
  0
CIRCLE
  8
_0-1_Visible__ISO_
  6
CONTINUOUS
 62
    7
 10
150.58383002489532
 20
46.831596847879212
 40
1.5
  0
CIRCLE
  8
_0-1_Visible__ISO_
  6
CONTINUOUS
 62
    7
 10
137.99747884275442
 20
82.792600225424493
 40
1.5
  0
ARC
  8
_0-1_Visible__ISO_
  6
CONTINUOUS
 62
    7
 10
80.48132829354401
 20
55.760379627958542
 40
1.9999999999999989
 50
158.46465493645019
 51
323.82446513374651
  0
ARC
  8
_0-1_Visible__ISO_
  6
CONTINUOUS
 62
    7
 10
87.665264259038807
 20
65.584782633757484
 40
2
 50
323.82446513374651
 51
21.136399031123084
  0
ARC
  8
_0-1_Visible__ISO_
  6
CONTINUOUS
 62
    7
 10
86.986172546269913
 20
67.341366532692803
 40
1.9999999999999969
 50
21.1363990311226
 51
83.162257944647109
  0
ARC
  8
_0-1_Visible__ISO_
  6
CONTINUOUS
 62
    7
 10
85.138868803050016
 20
67.562878428994196
 40
1.999999999999998
 50
83.162257944647195
 51
158.46465493644999
  0
ARC
  8
_0-1_Visible__ISO_
  6
CONTINUOUS
 62
    7
 10
68.486964079041613
 20
81.723510058713998
 40
2
 50
204.68975526029939
 51
4.3598061483310504
  0
ARC
  8
_0-1_Visible__ISO_
  6
CONTINUOUS
 62
    7
 10
60.162360538339016
 20
90.254879043916702
 40
1.999999999999023
 50
24.689755260297101
 51
31.086380872364892
  0
ARC
  8
_0-1_Visible__ISO_
  6
CONTINUOUS
 62
    7
 10
91.45643185899111
 20
105.36165560308011
 40
2.0000000000000009
 50
256.60265934367169
 51
310.31554216293
  0
ARC
  8
_0-1_Visible__ISO_
  6
CONTINUOUS
 62
    7
 10
101.04565140927502
 20
108.25242737793398
 40
2
 50
40.315542162930022
 51
130.31554216293
  0
ARC
  8
_0-1_Visible__ISO_
  6
CONTINUOUS
 62
    7
 10
107.08179871209791
 20
101.13875954911519
 40
1.999999999999998
 50
319.71265145451952
 51
40.315542162929653
  0
ARC
  8
_0-1_Visible__ISO_
  6
CONTINUOUS
 62
    7
 10
99.1047556190546
 20
91.728341603630497
 40
2
 50
236.82996640571264
 51
319.7126514545198
  0
ARC
  8
_0-1_Visible__ISO_
  6
CONTINUOUS
 62
    7
 10
84.263950598952405
 20
101.4288103722573
 40
2.0000000000000062
 50
166.6026593436718
 51
236.82996640571221
  0
ARC
  8
_0-1_Visible__ISO_
  6
CONTINUOUS
 62
    7
 10
84.609729184446408
 20
102.8805358372045
 40
2
 50
76.602659343671206
 51
166.60265934367123
  0
ARC
  8
_0-1_Visible__ISO_
  6
CONTINUOUS
 62
    7
 10
60.974990728878325
 20
96.654029130641405
 40
1.999999999999998
 50
130.31554216292997
 51
211.08638087236329
  0
ARC
  8
_0-1_Visible__ISO_
  6
CONTINUOUS
 62
    7
 10
63.798630174906108
 20
99.049966646480485
 40
1.999999999999988
 50
46.463159760491862
 51
130.31554216293071
  0
ARC
  8
_0-1_Visible__ISO_
  6
CONTINUOUS
 62
    7
 10
67.428983677683007
 20
95.600450763710384
 40
1.9999999999999929
 50
4.3598061483311641
 51
46.463159760491862
  0
ARC
  8
_0-1_Visible__ISO_
  6
CONTINUOUS
 62
    7
 10
124.98538049510751
 20
51.119663905086995
 40
2
 50
257.3376094768542
 51
310.60503583048921
  0
ARC
  8
_0-1_Visible__ISO_
  6
CONTINUOUS
 62
    7
 10
121.38856851543281
 20
51.927759971433801
 40
2
 50
136.9487716022704
 51
257.3376094768538
  0
ARC
  8
_0-1_Visible__ISO_
  6
CONTINUOUS
 62
    7
 10
123.62073543809711
 20
54.317179146347939
 40
1.9999999999999989
 50
29.718175945761949
 51
136.94877160227043
  0
ARC
  8
_0-1_Visible__ISO_
  6
CONTINUOUS
 62
    7
 10
125.2945999478292
 20
51.384744177085565
 40
2.0000000000000071
 50
310.60503583048961
 51
29.718175945761669
  0
ARC
  8
_0-1_Visible__ISO_
  6
CONTINUOUS
 62
    7
 10
94.494582590147104
 20
39.215788153419055
 40
1.9999999999999909
 50
63.789081263835975
 51
115.61254902046251
  0
ARC
  8
_0-1_Visible__ISO_
  6
CONTINUOUS
 62
    7
 10
88.07290934441761
 20
40.573187239617582
 40
2
 50
220.60503583048947
 51
295.61254902046244
  0
ARC
  8
_0-1_Visible__ISO_
  6
CONTINUOUS
 62
    7
 10
85.126634363753112
 20
44.01005385447246
 40
1.9999999999999969
 50
142.9204141255583
 51
220.60503583048941
  0
ARC
  8
_0-1_Visible__ISO_
  6
CONTINUOUS
 62
    7
 10
97.120988993024298
 20
59.881183988000529
 40
1.999999999999998
 50
46.948771602270803
 51
142.92041412555861
  0
ARC
  8
_0-1_Visible__ISO_
  6
CONTINUOUS
 62
    7
 10
99.148380804404098
 20
57.9872187147012
 40
2.000000000000131
 50
32.186686645526294
 51
46.948771602269922
  0
ARC
  8
_0-1_Visible__ISO_
  6
CONTINUOUS
 62
    7
 10
105.8035769840009
 20
47.413498578181233
 40
2
 50
322.9204141255583
 51
32.186686645525803
  0
ARC
  8
_0-1_Visible__ISO_
  6
CONTINUOUS
 62
    7
 10
100.6773935880951
 20
40.630447194474144
 40
1.999999999999988
 50
243.78908126383601
 51
322.92041412555869
  0
ARC
  8
_0-1_Visible__ISO_
  6
CONTINUOUS
 62
    7
 10
81.031436880668608
 20
122.24999999999999
 40
1.999999999999984
 50
15.218403195324198
 51
90
  0
ARC
  8
_0-1_Visible__ISO_
  6
CONTINUOUS
 62
    7
 10
136.62478990029561
 20
92.768745803997504
 40
1.9999999999999969
 50
19.29004621918909
 51
157.7765643495193
  0
ARC
  8
_0-1_Visible__ISO_
  6
CONTINUOUS
 62
    7
 10
132.53888043398922
 20
93.344095354605301
 40
1.999999999999998
 50
214.22037733334548
 51
337.77656434951928
  0
ARC
  8
_0-1_Visible__ISO_
  6
CONTINUOUS
 62
    7
 10
128.84231179250801
 20
98.779271876020587
 40
2.0000000000000151
 50
148.99138410479432
 51
214.22037733334543
  0
ARC
  8
_0-1_Visible__ISO_
  6
CONTINUOUS
 62
    7
 10
130.16741987582643
 20
100.9838710678769
 40
1.999999999999996
 50
58.991384104793781
 51
148.99138410479381
  0
ARC
  8
_0-1_Visible__ISO_
  6
CONTINUOUS
 62
    7
 10
132.6352198172938
 20
104.1675174697168
 40
1.9999999999999969
 50
238.99138410479259
 51
19.29004621918828
  0
ARC
  8
_0-1_Visible__ISO_
  6
CONTINUOUS
 62
    7
 10
108.84024277087101
 20
122.24999999999999
 40
2.0000000000000022
 50
90
 51
153.78908126383624
  0
ARC
  8
_0-1_Visible__ISO_
  6
CONTINUOUS
 62
    7
 10
102.12917032273452
 20
117.67425363317001
 40
2.0000000000000151
 50
246.25924815656367
 51
333.78908126383578
  0
ARC
  8
_0-1_Visible__ISO_
  6
CONTINUOUS
 62
    7
 10
93.116966746560806
 20
117.26819517297001
 40
1.9999999999999929
 50
66.259248156563558
 51
136.10545571775401
  0
ARC
  8
_0-1_Visible__ISO_
  6
CONTINUOUS
 62
    7
 10
87.377680696969804
 20
117.0722895633311
 40
2.0000000000000369
 50
270.00000000000051
 51
316.10545571775361
  0
ARC
  8
_0-1_Visible__ISO_
  6
CONTINUOUS
 62
    7
 10
86.585344491198114
 20
117.07228956333098
 40
1.999999999999986
 50
195.21840319532461
 51
270.00000000000051
  0
ARC
  8
_0-1_Visible__ISO_
  6
CONTINUOUS
 62
    7
 10
77.681465630259709
 20
87.481452615345802
 40
1.9999999999999769
 50
15.97857342991302
 51
36.06875493108538
  0
ARC
  8
_0-1_Visible__ISO_
  6
CONTINUOUS
 62
    7
 10
75.400780991259111
 20
97.406627258661601
 40
2.0000000000000089
 50
143.82446513374677
 51
216.06875493108549
  0
ARC
  8
_0-1_Visible__ISO_
  6
CONTINUOUS
 62
    7
 10
76.217952414398709
 20
98.524151332415286
 40
2.0000000000000231
 50
90.000000000000483
 51
143.82446513374657
  0
ARC
  8
_0-1_Visible__ISO_
  6
CONTINUOUS
 62
    7
 10
77.130636502422306
 20
98.524151332415286
 40
2.0000000000000009
 50
28.087841540182978
 51
90
  0
ARC
  8
_0-1_Visible__ISO_
  6
CONTINUOUS
 62
    7
 10
85.458237131188014
 20
91.415703999407995
 40
1.9999999999999929
 50
208.08784154018301
 51
226.32254160418319
  0
ARC
  8
_0-1_Visible__ISO_
  6
CONTINUOUS
 62
    7
 10
89.158844519328213
 20
82.351435227930992
 40
2
 50
326.82996640571258
 51
46.322541604183172
  0
ARC
  8
_0-1_Visible__ISO_
  6
CONTINUOUS
 62
    7
 10
86.471360403175211
 20
78.239837251197798
 40
2
 50
270
 51
326.82996640571258
  0
ARC
  8
_0-1_Visible__ISO_
  6
CONTINUOUS
 62
    7
 10
85.403643590527409
 20
78.239837251197798
 40
1.9999999999999969
 50
236.8299664057119
 51
270
  0
ARC
  8
_0-1_Visible__ISO_
  6
CONTINUOUS
 62
    7
 10
84.277741916878213
 20
78.975765929391798
 40
1.9999999999999989
 50
195.97857342991333
 51
236.82996640571272
  0
LINE
  8
_0-1_Visible__ISO_
  6
CONTINUOUS
 62
    7
 10
78.620945691844113
 20
56.494529868231126
 11
83.278486201350105
 21
68.297028669266794
  0
LINE
  8
_0-1_Visible__ISO_
  6
CONTINUOUS
 62
    7
 10
89.279689110037708
 20
64.404260545663789
 11
82.095753144542911
 21
54.579857539864832
  0
LINE
  8
_0-1_Visible__ISO_
  6
CONTINUOUS
 62
    7
 10
88.851621839766608
 20
68.062545382488693
 11
89.530713552535417
 21
66.305961483553304
  0
LINE
  8
_0-1_Visible__ISO_
  6
CONTINUOUS
 62
    7
 10
85.376984866890709
 20
69.548653023489095
 11
87.224288610110605
 21
69.327141127187602
  0
LINE
  8
_0-1_Visible__ISO_
  6
CONTINUOUS
 62
    7
 10
66.669798320059712
 20
80.888100815059403
 11
61.979526297320106
 21
91.0902882875708
  0
LINE
  8
_0-1_Visible__ISO_
  6
CONTINUOUS
 62
    7
 10
69.423196330560913
 20
95.75248988729949
 11
70.481176731919518
 21
81.875549182303104
  0
LINE
  8
_0-1_Visible__ISO_
  6
CONTINUOUS
 62
    7
 10
92.75042513615891
 20
103.83666989867349
 11
99.75165813210711
 21
109.7774130823406
  0
LINE
  8
_0-1_Visible__ISO_
  6
CONTINUOUS
 62
    7
 10
102.5706371136815
 20
109.5464206551019
 11
108.60678441650452
 21
102.43275282628299
  0
LINE
  8
_0-1_Visible__ISO_
  6
CONTINUOUS
 62
    7
 10
108.60742096900461
 20
99.845516830507691
 11
100.6303778759613
 21
90.435098885023095
  0
LINE
  8
_0-1_Visible__ISO_
  6
CONTINUOUS
 62
    7
 10
98.01050459810952
 20
90.054240440868696
 11
83.16969957800741
 21
99.754709209495402
  0
LINE
  8
_0-1_Visible__ISO_
  6
CONTINUOUS
 62
    7
 10
82.318377331794508
 20
101.8922158773177
 11
82.664155917288511
 21
103.3439413422649
  0
LINE
  8
_0-1_Visible__ISO_
  6
CONTINUOUS
 62
    7
 10
85.073134689506816
 20
104.82610910436249
 11
90.993026353930716
 21
103.4160823359221
  0
LINE
  8
_0-1_Visible__ISO_
  6
CONTINUOUS
 62
    7
 10
61.875140217674243
 20
91.2875386054627
 11
59.262211049542231
 21
95.621369569094909
  0
LINE
  8
_0-1_Visible__ISO_
  6
CONTINUOUS
 62
    7
 10
59.680997451710439
 20
98.179014835047909
 11
62.504636897738223
 21
100.5749523508871
  0
LINE
  8
_0-1_Visible__ISO_
  6
CONTINUOUS
 62
    7
 10
65.176271849114372
 20
100.4998298874397
 11
68.806625351891313
 21
97.050314004669602
  0
LINE
  8
_0-1_Visible__ISO_
  6
CONTINUOUS
 62
    7
 10
126.59628184481161
 20
49.866315963745137
 11
126.28706239209001
 21
49.601235691746581
  0
LINE
  8
_0-1_Visible__ISO_
  6
CONTINUOUS
 62
    7
 10
124.5469688807369
 20
49.168306619404831
 11
120.95015690106212
 21
49.976402685751623
  0
LINE
  8
_0-1_Visible__ISO_
  6
CONTINUOUS
 62
    7
 10
119.9270812519035
 20
53.293063959028402
 11
122.15924817456792
 21
55.682483133942554
  0
LINE
  8
_0-1_Visible__ISO_
  6
CONTINUOUS
 62
    7
 10
125.35768403076
 20
55.308647545464339
 11
127.03154854049211
 21
52.376212576201951
  0
LINE
  8
_0-1_Visible__ISO_
  6
CONTINUOUS
 62
    7
 10
93.630016071442498
 20
41.019263890637333
 11
88.937475863122117
 21
38.769711502399289
  0
LINE
  8
_0-1_Visible__ISO_
  6
CONTINUOUS
 62
    7
 10
86.554481131077111
 20
39.271505342635152
 11
83.608206150412713
 21
42.708371957490016
  0
LINE
  8
_0-1_Visible__ISO_
  6
CONTINUOUS
 62
    7
 10
83.531036768943707
 20
45.21590140513473
 11
95.525391398214822
 21
61.087031538662799
  0
LINE
  8
_0-1_Visible__ISO_
  6
CONTINUOUS
 62
    7
 10
98.486292980618913
 20
61.342671251529808
 11
100.5136847919988
 21
59.448705978230564
  0
LINE
  8
_0-1_Visible__ISO_
  6
CONTINUOUS
 62
    7
 10
100.84101473122541
 20
59.052577992022194
 11
107.4962109108221
 21
48.478857855502142
  0
LINE
  8
_0-1_Visible__ISO_
  6
CONTINUOUS
 62
    7
 10
107.39917457881032
 20
46.207651027518963
 11
102.2729911829046
 21
39.424599643811874
  0
LINE
  8
_0-1_Visible__ISO_
  6
CONTINUOUS
 62
    7
 10
99.794039921267711
 20
38.836098761392492
 11
95.377936256974522
 21
41.010136586500707
  0
LINE
  8
_0-1_Visible__ISO_
  6
CONTINUOUS
 62
    7
 10
81.411922634808306
 20
24.250000000000007
 11
85.732773125838406
 21
30.860494934614039
  0
LINE
  8
_0-1_Visible__ISO_
  6
CONTINUOUS
 62
    7
 10
85.732773125838406
 20
30.860494934614039
 11
94.976307283128506
 21
31.54041328487736
  0
LINE
  8
_0-1_Visible__ISO_
  6
CONTINUOUS
 62
    7
 10
94.976307283128506
 20
31.54041328487736
 11
100.4038734301966
 21
34.142329058941058
  0
LINE
  8
_0-1_Visible__ISO_
  6
CONTINUOUS
 62
    7
 10
100.4038734301966
 20
34.142329058941058
 11
108.23206276583582
 21
24.25
  0
LINE
  8
_0-1_Visible__ISO_
  6
CONTINUOUS
 62
    7
 10
134.77335798144702
 20
93.525184730725002
 11
134.39031235283781
 21
92.587656427877803
  0
LINE
  8
_0-1_Visible__ISO_
  6
CONTINUOUS
 62
    7
 10
130.88511920170743
 20
92.219340365017899
 11
127.18855056022622
 21
97.6545168864332
  0
LINE
  8
_0-1_Visible__ISO_
  6
CONTINUOUS
 62
    7
 10
127.12813210894882
 20
99.809605808526399
 11
128.4532401922672
 21
102.0142050003828
  0
LINE
  8
_0-1_Visible__ISO_
  6
CONTINUOUS
 62
    7
 10
131.19775380833221
 20
102.6980507514361
 11
131.60488588478802
 21
102.4533377861576
  0
LINE
  8
_0-1_Visible__ISO_
  6
CONTINUOUS
 62
    7
 10
107.04589433778932
 20
123.1333536668274
 11
103.9235187558161
 21
116.79089996634271
  0
LINE
  8
_0-1_Visible__ISO_
  6
CONTINUOUS
 62
    7
 10
101.3239724357914
 20
115.84350068346261
 11
93.922164633503797
 21
119.0989481226775
  0
LINE
  8
_0-1_Visible__ISO_
  6
CONTINUOUS
 62
    7
 10
91.675732477959514
 20
118.65486160113839
 11
88.818914965571111
 21
115.68562313516269
  0
LINE
  8
_0-1_Visible__ISO_
  6
CONTINUOUS
 62
    7
 10
87.377680696969804
 20
115.0722895633311
 11
86.585344491198114
 21
115.0722895633311
  0
LINE
  8
_0-1_Visible__ISO_
  6
CONTINUOUS
 62
    7
 10
84.655480030223615
 20
116.54729131355531
 11
82.961301341643107
 21
122.77499824977569
  0
LINE
  8
_0-1_Visible__ISO_
  6
CONTINUOUS
 62
    7
 10
79.298087769847314
 20
88.658963913718395
 11
73.784158851671506
 21
96.229115960289008
  0
LINE
  8
_0-1_Visible__ISO_
  6
CONTINUOUS
 62
    7
 10
73.78635614026021
 20
98.587149346755396
 11
74.603527563399709
 21
99.704673420508996
  0
LINE
  8
_0-1_Visible__ISO_
  6
CONTINUOUS
 62
    7
 10
76.217952414398709
 20
100.52415133241529
 11
77.130636502422306
 21
100.52415133241529
  0
LINE
  8
_0-1_Visible__ISO_
  6
CONTINUOUS
 62
    7
 10
78.895090097032309
 20
99.465800689908704
 11
83.69378353657801
 21
90.474054641914492
  0
LINE
  8
_0-1_Visible__ISO_
  6
CONTINUOUS
 62
    7
 10
84.077041282961616
 20
89.969226198388597
 11
90.54004036755471
 21
83.797913028950504
  0
LINE
  8
_0-1_Visible__ISO_
  6
CONTINUOUS
 62
    7
 10
90.832945682090113
 20
81.257184206985897
 11
88.145461565937012
 21
77.145586230252704
  0
LINE
  8
_0-1_Visible__ISO_
  6
CONTINUOUS
 62
    7
 10
86.471360403175211
 20
76.239837251197798
 11
85.403643590527409
 21
76.239837251197798
  0
LINE
  8
_0-1_Visible__ISO_
  6
CONTINUOUS
 62
    7
 10
84.309392569582315
 20
76.565736088435898
 11
83.183490895933105
 21
77.301664766629898
  0
LINE
  8
_0-1_Visible__ISO_
  6
CONTINUOUS
 62
    7
 10
82.355012502434107
 20
78.425210211202199
 11
79.604195044703815
 21
88.032008333535501
  0
CIRCLE
  8
_0-1_Visible__ISO_
  6
CONTINUOUS
 62
    7
 10
62.725312941736505
 20
117.24999999999999
 40
3
  0
CIRCLE
  8
_0-1_Visible__ISO_
  6
CONTINUOUS
 62
    7
 10
118.72531294173641
 20
29.25
 40
1.5
  0
CIRCLE
  8
_0-1_Visible__ISO_
  6
CONTINUOUS
 62
    7
 10
118.72531294173641
 20
119.24999999999999
 40
1.5
  0
CIRCLE
  8
_0-1_Visible__ISO_
  6
CONTINUOUS
 62
    7
 10
70.725312941736505
 20
119.24999999999999
 40
1.5
  0
CIRCLE
  8
_0-1_Visible__ISO_
  6
CONTINUOUS
 62
    7
 10
70.725312941736505
 20
29.250000000000007
 40
1.5
  0
LINE
  8
_0-1_Visible__ISO_
  6
CONTINUOUS
 62
    7
 10
55.72531294173649
 20
124.24999999999999
 11
81.031436880668608
 21
124.24999999999999
  0
LINE
  8
_0-1_Visible__ISO_
  6
CONTINUOUS
 62
    7
 10
55.725312941736476
 20
24.250000000000007
 11
55.72531294173649
 21
124.24999999999999
  0
LINE
  8
_0-1_Visible__ISO_
  6
CONTINUOUS
 62
    7
 10
81.411922634808306
 20
24.250000000000007
 11
55.725312941736476
 21
24.250000000000007
  0
LINE
  8
_0-1_Visible__ISO_
  6
CONTINUOUS
 62
    7
 10
123.90865911534451
 20
24.25
 11
108.23206276583582
 21
24.25
  0
LINE
  8
_0-1_Visible__ISO_
  6
CONTINUOUS
 62
    7
 10
151.8528882356149
 20
41.66838352925231
 11
127.23686029269581
 21
25.257698233972924
  0
LINE
  8
_0-1_Visible__ISO_
  6
CONTINUOUS
 62
    7
 10
138.51250661302763
 20
93.429446653453795
 11
154.18783719645961
 21
48.642787843648023
  0
LINE
  8
_0-1_Visible__ISO_
  6
CONTINUOUS
 62
    7
 10
129.13157704980742
 20
120.23210254836859
 11
134.5229365300259
 21
104.82821831917299
  0
LINE
  8
_0-1_Visible__ISO_
  6
CONTINUOUS
 62
    7
 10
108.84024277087101
 20
124.24999999999999
 11
123.46842691161132
 21
124.24999999999999
  0
ARC
  8
_0-1_Visible__ISO_
  6
CONTINUOUS
 62
    7
 10
123.90865911534451
 20
30.249999999999915
 40
5.9999999999999272
 50
269.99999999999977
 51
303.69006752597988
  0
ARC
  8
_0-1_Visible__ISO_
  6
CONTINUOUS
 62
    7
 10
148.52468705826351
 20
46.660685295279379
 40
6.000000000000008
 50
303.69006752597983
 51
19.290046219188497
  0
ARC
  8
_0-1_Visible__ISO_
  6
CONTINUOUS
 62
    7
 10
123.46842691161132
 20
118.24999999999999
 40
5.9999999999999867
 50
19.290046219188682
 51
90
  0
LINE
  8
_0-4_2mm
  6
CONTINUOUS
 62
    7
 10
54.725312941736476
 20
23.250000000000007
 11
54.72531294173649
 21
125.24999999999997
  0
LINE
  8
_0-4_2mm
  6
CONTINUOUS
 62
    7
 10
125.59686992667392
 20
125.24999999999999
 11
54.72531294173649
 21
125.24999999999999
  0
ARC
  8
_0-4_2mm
  6
CONTINUOUS
 62
    7
 10
125.59686992667392
 20
121.24999999999999
 40
4
 50
19.290046219188664
 51
90
  0
LINE
  8
_0-4_2mm
  6
CONTINUOUS
 62
    7
 10
155.90043342546403
 20
46.776744346552107
 11
129.37230335213798
 21
122.57140169891241
  0
ARC
  8
_0-4_2mm
  6
CONTINUOUS
 62
    7
 10
152.12499999999997
 20
45.455342647639682
 40
4
 50
303.69006752597977
 51
19.290046219188703
  0
LINE
  8
_0-4_2mm
  6
CONTINUOUS
 62
    7
 10
127.03578681344136
 20
23.921798822648633
 11
154.34380078490088
 21
42.127141470288301
  0
LINE
  8
_0-4_2mm
  6
CONTINUOUS
 62
    7
 10
124.81698602854044
 20
23.250000000000007
 11
54.725312941736476
 21
23.250000000000007
  0
ARC
  8
_0-4_2mm
  6
CONTINUOUS
 62
    7
 10
124.81698602854044
 20
27.250000000000007
 40
4
 50
270
 51
303.69006752597977
  0
CIRCLE
  8
_0-4_2mm
  6
CONTINUOUS
 62
    7
 10
62.725312941736505
 20
117.24999999999999
 40
2
  0
CIRCLE
  8
_0-4_2mm
  6
CONTINUOUS
 62
    7
 10
70.725312941736505
 20
119.24999999999999
 40
0.5
  0
CIRCLE
  8
_0-4_2mm
  6
CONTINUOUS
 62
    7
 10
118.72531294173641
 20
119.24999999999999
 40
0.5
  0
CIRCLE
  8
_0-4_2mm
  6
CONTINUOUS
 62
    7
 10
137.99747884275442
 20
82.792600225424493
 40
0.5
  0
CIRCLE
  8
_0-4_2mm
  6
CONTINUOUS
 62
    7
 10
136.19942867387721
 20
41.797056375022876
 40
0.5
  0
CIRCLE
  8
_0-4_2mm
  6
CONTINUOUS
 62
    7
 10
150.58383002489532
 20
46.831596847879212
 40
0.5
  0
CIRCLE
  8
_0-4_2mm
  6
CONTINUOUS
 62
    7
 10
118.72531294173641
 20
29.25
 40
0.5
  0
CIRCLE
  8
_0-4_2mm
  6
CONTINUOUS
 62
    7
 10
70.725312941736505
 20
29.250000000000007
 40
0.5
  0
ENDSEC
  0
EOF
