  0
SECTION
  2
HEADER
  9
$ACADVER
  1
AC1009
  9
$INSBASE
 10
0
 20
0
 30
0
  9
$EXTMIN
 10
0
 20
0
  9
$EXTMAX
 10
210.25
 20
148.5
  9
$LIMMIN
 10
0
 20
0
  9
$LIMMAX
 10
210.25
 20
148.5
  9
$LTSCALE
 40
0.25
  0
ENDSEC
  0
SECTION
  2
TABLES
  0
TABLE
  2
LTYPE
 70
     9
  0
LTYPE
  2
CONTINUOUS
 70
    64
  3
実線
 72
    65
 73
     0
 40
0.0
  0
LTYPE
  2
DASHED1
 70
    64
  3
--  --  --  --  --  --  --  --  
 72
    65
 73
     2
 40
2.5
 49
1.25
 49
-1.25
  0
LTYPE
  2
DASHED2
 70
    64
  3
----    ----    ----    ----    
 72
    65
 73
     2
 40
5.0
 49
2.5
 49
-2.5
  0
LTYPE
  2
DASHED3
 70
    64
  3
------  ------  ------  ------  
 72
    65
 73
     2
 40
5.0
 49
3.75
 49
-1.25
  0
LTYPE
  2
CENTER1
 70
    64
  3
----- - ----- - ----- - ----- - 
 72
    65
 73
     4
 40
10.0
 49
6.25
 49
-1.25
 49
1.25
 49
-1.25
  0
LTYPE
  2
CENTER2
 70
    64
  3
----------  --  ----------  --  
 72
    65
 73
     4
 40
20.0
 49
12.5
 49
-2.5
 49
2.5
 49
-2.5
  0
LTYPE
  2
PHANTOM1
 70
    64
  3
--- - - --- - - --- - - --- - - 
 72
    65
 73
     6
 40
10.0
 49
3.25
 49
-1.25
 49
1.25
 49
-1.25
 49
1.25
 49
-1.25
  0
LTYPE
  2
PHANTOM2
 70
    64
  3
--------  -  -  --------  -  -  
 72
    65
 73
     6
 40
20.0
 49
10.0
 49
-2.5
 49
1.25
 49
-2.5
 49
1.25
 49
-2.5
  0
LTYPE
  2
DOT
 70
    64
  3
-   -   -   -   -   -   -   -   
 72
    65
 73
     2
 40
2.5
 49
0.625
 49
-1.875
  0
LTYPE
  2
DUMMY
 70
    64
  3
ダミー
 72
    65
 73
     0
 40
0.0
  0
LTYPE
  2
RAND1
 70
    64
  3
ランダム線1
 72
    65
 73
     4
 40
10.0
 49
1.0
 49
-2.0
 49
3.0
 49
-4.0
  0
LTYPE
  2
RAND2
 70
    64
  3
ランダム線2
 72
    65
 73
     4
 40
14.0
 49
2.0
 49
-3.0
 49
4.0
 49
-5.0
  0
LTYPE
  2
RAND3
 70
    64
  3
ランダム線3
 72
    65
 73
     4
 40
18.0
 49
3.0
 49
-4.0
 49
5.0
 49
-6.0
  0
LTYPE
  2
RAND4
 70
    64
  3
ランダム線4
 72
    65
 73
     4
 40
22.0
 49
4.0
 49
-5.0
 49
6.0
 49
-7.0
  0
LTYPE
  2
RAND5
 70
    64
  3
ランダム線5
 72
    65
 73
     4
 40
26.0
 49
5.0
 49
-6.0
 49
7.0
 49
-8.0
  0
LTYPE
  2
LONG1
 70
    64
  3
----------  --  ----------  --  
 72
    65
 73
     4
 40
40.0
 49
32.5
 49
-2.5
 49
2.5
 49
-2.5
  0
LTYPE
  2
LONG2
 70
    64
  3
--------  -  -  --------  -  -  
 72
    65
 73
     6
 40
40.0
 49
30.0
 49
-2.5
 49
1.25
 49
-2.5
 49
1.25
 49
-2.5
  0
LTYPE
  2
LONG3
 70
    64
  3
+++++++++++++++..+++++++++++++++
 72
    65
 73
     2
 40
40.0
 49
37.5
 49
-2.5
  0
LTYPE
  2
LONG4
 70
    64
  3
+++++++++++++++..+++++++++++++++
 72
    65
 73
     2
 40
80.0
 49
75.0
 49
-5.0
  0
LTYPE
  2
LONG5
 70
    64
  3
----------  --  ----------  --  
 72
    65
 73
     4
 40
60.0
 49
37.5
 49
-7.5
 49
7.5
 49
-7.5
  0
LTYPE
  2
dashed
 70
   64
  3
-------   -------------   ------
 72
   65
 73
    2
 40
7.5
 49
6
 49
-1.5
  0
LTYPE
  2
dashed_spaced
 70
   64
  3
----        --------        ----
 72
   65
 73
    2
 40
12
 49
6
 49
-6
  0
LTYPE
  2
long_dashed_dotted
 70
   64
  3
------------- --- --------------
 72
   65
 73
    4
 40
15.25
 49
12
 49
-1.5
 49
0.25
 49
-1.5
  0
LTYPE
  2
long_dashed_double-dotted
 70
   64
  3
----------- --- --- ------------
 72
   65
 73
    6
 40
17
 49
12
 49
-1.5
 49
0.25
 49
-1.5
 49
0.25
 49
-1.5
  0
LTYPE
  2
long_dashed_triplicate-dotted
 70
   64
  3
--------- --- --- --- ----------
 72
   65
 73
    8
 40
18.75
 49
12
 49
-1.5
 49
0.25
 49
-1.5
 49
0.25
 49
-1.5
 49
0.25
 49
-1.5
  0
LTYPE
  2
dotted
 70
   64
  3
   -       -       -       -    
 72
   65
 73
    2
 40
1.75
 49
0.25
 49
-1.5
  0
LTYPE
  2
chain
 70
   64
  3
-------------- -- --------------
 72
   65
 73
    4
 40
18.5
 49
12
 49
-1.5
 49
3.5
 49
-1.5
  0
LTYPE
  2
chain_double_dash
 70
   64
  3
------------ -- -- -------------
 72
   65
 73
    6
 40
23.5
 49
12
 49
-1.5
 49
3.5
 49
-1.5
 49
3.5
 49
-1.5
  0
LTYPE
  2
dashed_dotted
 70
   64
  3
-----------     -     ----------
 72
   65
 73
    4
 40
9.25
 49
6
 49
-1.5
 49
0.25
 49
-1.5
  0
LTYPE
  2
double-dashed_dotted
 70
   64
  3
------   -----------   -   -----
 72
   65
 73
    6
 40
16.75
 49
6
 49
-1.5
 49
6
 49
-1.5
 49
0.25
 49
-1.5
  0
LTYPE
  2
dashed_double-dotted
 70
   64
  3
---------    -    -    ---------
 72
   65
 73
    6
 40
11
 49
6
 49
-1.5
 49
0.25
 49
-1.5
 49
0.25
 49
-1.5
  0
LTYPE
  2
double-dashed_double-dotted
 70
   64
  3
-----   ---------   -   -   ----
 72
   65
 73
    8
 40
18.5
 49
6
 49
-1.5
 49
6
 49
-1.5
 49
0.25
 49
-1.5
 49
0.25
 49
-1.5
  0
LTYPE
  2
dashed_triplicate-dotted
 70
   64
  3
-------    -    -    -    ------
 72
   65
 73
    8
 40
12.75
 49
6
 49
-1.5
 49
0.25
 49
-1.5
 49
0.25
 49
-1.5
 49
0.25
 49
-1.5
  0
LTYPE
  2
double-dashed_triplicate-dotted
 70
   64
  3
-----  ---------  -  -  -  -----
 72
   65
 73
   10
 40
20.25
 49
6
 49
-1.5
 49
6
 49
-1.5
 49
0.25
 49
-1.5
 49
0.25
 49
-1.5
 49
0.25
 49
-1.5
  0
LTYPE
  2
undefined
 70
   64
  3
--------------------------------
 72
   65
 73
    0
 40
0
  0
LTYPE
  2
CHAIN
 70
   64
  3
-----------   -----   ----------
 72
   65
 73
    4
 40
0.3542999999999999
 49
0.2361999999999999
 49
-0.0294999999999999
 49
0.0591
 49
-0.0294999999999999
  0
LTYPE
  2
DASH_DOT
 70
   64
  3
-----------     -     ----------
 72
   65
 73
    4
 40
0.37
 49
0.2399999999999999
 49
-0.0599999999999999
 49
0.01
 49
-0.0599999999999999
  0
LTYPE
  2
DASH_DOUBLE_DOT
 70
   64
  3
---------    -    -    ---------
 72
   65
 73
    6
 40
0.4397999999999999
 49
0.2399999999999999
 49
-0.0599999999999999
 49
0.0097999999999999
 49
-0.0599999999999999
 49
0.01
 49
-0.0599999999999999
  0
LTYPE
  2
DASH_TRIPLE_DOT
 70
   64
  3
-------    -    -    -    ------
 72
   65
 73
    8
 40
0.51
 49
0.2399999999999999
 49
-0.0599999999999999
 49
0.01
 49
-0.0599999999999999
 49
0.01
 49
-0.0599999999999999
 49
0.01
 49
-0.0599999999999999
  0
LTYPE
  2
DASHED
 70
   64
  3
-------   -------------   ------
 72
   65
 73
    2
 40
0.2066999999999999
 49
0.1653999999999999
 49
-0.0413
  0
LTYPE
  2
DASHED_SPACE
 70
   64
  3
----        --------        ----
 72
   65
 73
    2
 40
0.0826
 49
0.0413
 49
-0.0413
  0
LTYPE
  2
DOTTED
 70
   64
  3
-              --              -
 72
   65
 73
    2
 40
0.0482
 49
0.0068999999999999
 49
-0.0413
  0
LTYPE
  2
DOUBLE_DASH_CHAIN
 70
   64
  3
---------  ----  ----  ---------
 72
   65
 73
    6
 40
1.2403
 49
0.6613999999999999
 49
-0.0826999999999999
 49
0.1653999999999999
 49
-0.0826999999999999
 49
0.1653999999999999
 49
-0.0826999999999999
  0
LTYPE
  2
DOUBLE_DASH_DOT
 70
   64
  3
------   -----------   -   -----
 72
   65
 73
    6
 40
0.6700000000000001
 49
0.2399999999999999
 49
-0.0599999999999999
 49
0.2399999999999999
 49
-0.0599999999999999
 49
0.01
 49
-0.0599999999999999
  0
LTYPE
  2
DOUBLE_DASH_DOUBLE_DOT
 70
   64
  3
-----   ---------   -   -   ----
 72
   65
 73
    8
 40
0.7400000000000002
 49
0.2399999999999999
 49
-0.0599999999999999
 49
0.2399999999999999
 49
-0.0599999999999999
 49
0.01
 49
-0.0599999999999999
 49
0.01
 49
-0.0599999999999999
  0
LTYPE
  2
LONG_DASH_DOTTED
 70
   64
  3
-------------   -   ------------
 72
   65
 73
    4
 40
0.6100000000000001
 49
0.4799999999999999
 49
-0.0599999999999999
 49
0.01
 49
-0.0599999999999999
  0
LTYPE
  2
LONG_DASH_DOUBLE_DOT
 70
   64
  3
-----------   -   -   ----------
 72
   65
 73
    6
 40
0.3345
 49
0.2361999999999999
 49
-0.0294999999999999
 49
0.0048999999999999
 49
-0.0294999999999999
 49
0.0048999999999999
 49
-0.0294999999999999
  0
LTYPE
  2
LONG_DASH_TRIPLE_DOT
 70
   64
  3
---------   -   -   -   --------
 72
   65
 73
    8
 40
0.7500000000000002
 49
0.4799999999999999
 49
-0.0599999999999999
 49
0.01
 49
-0.0599999999999999
 49
0.01
 49
-0.0599999999999999
 49
0.01
 49
-0.0599999999999999
  0
LTYPE
  2
BORDER
 70
   64
  3
----     --------     -     ----
 72
   65
 73
    6
 40
44.459999999999994
 49
12.699999999999999
 49
-6.3499999999999988
 49
12.699999999999999
 49
-6.3499999999999988
 49
0.01
 49
-6.3499999999999988
  0
LTYPE
  2
BORDER2
 70
   64
  3
----     --------     -     ----
 72
   65
 73
    6
 40
22.234999999999999
 49
6.3499999999999988
 49
-3.1749999999999989
 49
6.3499999999999988
 49
-3.1749999999999989
 49
0.01
 49
-3.1749999999999989
  0
LTYPE
  2
BORDERX2
 70
   64
  3
----     --------     -     ----
 72
   65
 73
    6
 40
88.909999999999997
 49
25.399999999999999
 49
-12.699999999999999
 49
25.399999999999999
 49
-12.699999999999999
 49
0.01
 49
-12.699999999999999
  0
ENDTAB
  0
TABLE
  2
STYLE
  5
3
100
AcDbSymbolTable
 70
     1
  0
STYLE
  5
10
100
AcDbSymbolTableRecord
100
AcDbTextStyleTableRecord
  2
STANDARD
 70
     0
 40
0.0
 41
1.0
 50
0.0
 71
     0
 42
0.2
  3
txt
  4
bigfont.shx
  0
STYLE
  5
26
100
AcDbSymbolTableRecord
100
AcDbTextStyleTableRecord
  2
TATEGAKI
 70
    68
 40
0.0
 41
1.0
 50
0.0
 71
     0
 42
1.0
  3
txt
  4
bigfont.shx
  0
ENDTAB
  0
TABLE
  2
LAYER
 70
    5
  0
LAYER
  2
_0-1_Bend_Centerline__ISO_
 70
   64
 62
    7
  6
CONTINUOUS
  0
LAYER
  2
_0-2_Visible__ISO_
 70
   64
 62
    7
  6
CONTINUOUS
  0
LAYER
  2
_0-4_2mm
 70
   64
 62
    7
  6
CONTINUOUS
  0
LAYER
  2
_0-5_0_5mm
 70
   64
 62
    7
  6
CONTINUOUS
  0
LAYER
  2
ADD_LINE
 70
   64
 62
    7
  6
CONTINUOUS
  0
ENDTAB
  0
ENDSEC
  0
SECTION
  2
BLOCKS
  0
ENDSEC
  0
SECTION
  2
ENTITIES
  0
LINE
  8
_0-2_Visible__ISO_
  6
CONTINUOUS
 62
    7
 10
122.125
 20
58.749999999999986
 11
88.125000000000014
 21
58.750000000000014
  0
ARC
  8
_0-2_Visible__ISO_
  6
CONTINUOUS
 62
    7
 10
152.7753936372315
 20
92.25
 40
4.000000000000016
 50
270
 51
320.19442890773468
  0
ARC
  8
_0-2_Visible__ISO_
  6
CONTINUOUS
 62
    7
 10
57.727606794892949
 20
92.25
 40
4.000000000000016
 50
270
 51
320.19442890773468
  0
ARC
  8
_0-2_Visible__ISO_
  6
CONTINUOUS
 62
    7
 10
37.601106578830709
 20
91.104101966249601
 40
2.9999999999999831
 50
180
 51
243.43494882292251
  0
ARC
  8
_0-2_Visible__ISO_
  6
CONTINUOUS
 62
    7
 10
37.601106578830738
 20
91.25
 40
3.0000000000000071
 50
90
 51
180
  0
ARC
  8
_0-2_Visible__ISO_
  6
CONTINUOUS
 62
    7
 10
172.6488934211693
 20
91.104101966249701
 40
3.000000000000024
 50
296.5650511770786
 51
0
  0
ARC
  8
_0-2_Visible__ISO_
  6
CONTINUOUS
 62
    7
 10
172.6488934211693
 20
91.25
 40
3.00000000000002
 50
0
 51
89.999999999999346
  0
LINE
  8
_0-2_Visible__ISO_
  6
CONTINUOUS
 62
    7
 10
34.601106578830738
 20
91.104101966249701
 11
34.601106578830738
 21
91.25
  0
LINE
  8
_0-2_Visible__ISO_
  6
CONTINUOUS
 62
    7
 10
37.601106578830723
 20
94.25
 11
48.727606794892978
 21
94.25
  0
LINE
  8
_0-2_Visible__ISO_
  6
CONTINUOUS
 62
    7
 10
74.601106578830709
 20
69.25
 11
36.259465792330857
 21
88.420820393249898
  0
LINE
  8
_0-2_Visible__ISO_
  6
CONTINUOUS
 62
    7
 10
83.125000000000014
 20
69.25
 11
74.601106578830709
 21
69.25
  0
LINE
  8
_0-2_Visible__ISO_
  6
CONTINUOUS
 62
    7
 10
175.6488934211693
 20
91.25
 11
175.6488934211693
 21
91.104101966249601
  0
LINE
  8
_0-2_Visible__ISO_
  6
CONTINUOUS
 62
    7
 10
161.52239320510711
 20
94.25
 11
172.6488934211693
 21
94.25
  0
LINE
  8
_0-2_Visible__ISO_
  6
CONTINUOUS
 62
    7
 10
173.99053420766921
 20
88.420820393249898
 11
135.6488934211693
 21
69.25
  0
LINE
  8
_0-2_Visible__ISO_
  6
CONTINUOUS
 62
    7
 10
135.6488934211693
 20
69.25
 11
127.125
 21
69.25
  0
ARC
  8
_0-2_Visible__ISO_
  6
CONTINUOUS
 62
    7
 10
161.52239320510711
 20
90.25
 40
4.0000000000000018
 50
90
 51
140.1944289077349
  0
ARC
  8
_0-2_Visible__ISO_
  6
CONTINUOUS
 62
    7
 10
152.52239320510711
 20
92.25
 40
3.999999999999992
 50
219.8055710922655
 51
270.00000000000051
  0
ARC
  8
_0-2_Visible__ISO_
  6
CONTINUOUS
 62
    7
 10
143.7753936372315
 20
90.25
 40
4.0000000000000027
 50
39.805571092265133
 51
90
  0
ARC
  8
_0-2_Visible__ISO_
  6
CONTINUOUS
 62
    7
 10
66.474606362768512
 20
90.25
 40
3.9999999999999831
 50
89.999999999999744
 51
140.19442890773493
  0
ARC
  8
_0-2_Visible__ISO_
  6
CONTINUOUS
 62
    7
 10
48.727606794892978
 20
90.25
 40
3.9999999999999938
 50
39.805571092264941
 51
90
  0
ARC
  8
_0-2_Visible__ISO_
  6
CONTINUOUS
 62
    7
 10
57.474606362768526
 20
92.25
 40
4.0000000000000071
 50
219.8055710922651
 51
269.99999999999977
  0
LINE
  8
_0-2_Visible__ISO_
  6
CONTINUOUS
 62
    7
 10
152.7753936372315
 20
88.25
 11
152.52239320510711
 21
88.25
  0
LINE
  8
_0-2_Visible__ISO_
  6
CONTINUOUS
 62
    7
 10
149.4495080867176
 20
89.689262401341992
 11
146.84827875562101
 21
92.810737598657894
  0
LINE
  8
_0-2_Visible__ISO_
  6
CONTINUOUS
 62
    7
 10
63.401721244379033
 20
92.810737598657894
 11
60.800491913282485
 21
89.689262401341992
  0
LINE
  8
_0-2_Visible__ISO_
  6
CONTINUOUS
 62
    7
 10
54.401721244379019
 20
89.689262401341992
 11
51.800491913282485
 21
92.810737598657894
  0
LINE
  8
_0-2_Visible__ISO_
  6
CONTINUOUS
 62
    7
 10
57.727606794892978
 20
88.25
 11
57.474606362768498
 21
88.25
  0
LINE
  8
_0-2_Visible__ISO_
  6
CONTINUOUS
 62
    7
 10
158.44950808671751
 20
92.810737598657894
 11
155.84827875562101
 21
89.689262401341992
  0
ARC
  8
_0-2_Visible__ISO_
  6
CONTINUOUS
 62
    7
 10
88.125000000000014
 20
70.25
 40
1.5000000000000051
 50
90
 51
270
  0
LINE
  8
_0-2_Visible__ISO_
  6
CONTINUOUS
 62
    7
 10
88.125000000000014
 20
71.75
 11
122.125
 21
71.75
  0
ARC
  8
_0-2_Visible__ISO_
  6
CONTINUOUS
 62
    7
 10
122.125
 20
70.25
 40
1.4999999999999989
 50
270
 51
90
  0
LINE
  8
_0-2_Visible__ISO_
  6
CONTINUOUS
 62
    7
 10
122.125
 20
68.75
 11
88.125000000000014
 21
68.749999999999901
  0
ARC
  8
_0-2_Visible__ISO_
  6
CONTINUOUS
 62
    7
 10
88.125000000000014
 20
60.249999999999986
 40
1.499999999999998
 50
90
 51
270
  0
LINE
  8
_0-2_Visible__ISO_
  6
CONTINUOUS
 62
    7
 10
88.125000000000014
 20
61.749999999999986
 11
122.125
 21
61.749999999999986
  0
ARC
  8
_0-2_Visible__ISO_
  6
CONTINUOUS
 62
    7
 10
122.125
 20
60.249999999999986
 40
1.5
 50
270
 51
90
  0
CIRCLE
  8
_0-2_Visible__ISO_
  6
CONTINUOUS
 62
    7
 10
38.601106578830738
 20
91.722135954999601
 40
1.5
  0
CIRCLE
  8
_0-2_Visible__ISO_
  6
CONTINUOUS
 62
    7
 10
171.6488934211693
 20
91.722135954999601
 40
1.5
  0
CIRCLE
  8
_0-2_Visible__ISO_
  6
CONTINUOUS
 62
    7
 10
64.830088396248755
 20
85.315848978789901
 40
1.5
  0
CIRCLE
  8
_0-2_Visible__ISO_
  6
CONTINUOUS
 62
    7
 10
145.4199116037513
 20
85.315848978789901
 40
1.5
  0
LINE
  8
_0-2_Visible__ISO_
  6
CONTINUOUS
 62
    7
 10
127.125
 20
67.25
 11
127.125
 21
69.25
  0
LINE
  8
_0-2_Visible__ISO_
  6
CONTINUOUS
 62
    7
 10
130.125
 20
67.25
 11
127.125
 21
67.25
  0
LINE
  8
_0-2_Visible__ISO_
  6
CONTINUOUS
 62
    7
 10
130.125
 20
67.25
 11
130.125
 21
54.249999999999986
  0
LINE
  8
_0-2_Visible__ISO_
  6
CONTINUOUS
 62
    7
 10
80.125000000000014
 20
54.249999999999986
 11
80.125000000000014
 21
67.25
  0
LINE
  8
_0-2_Visible__ISO_
  6
CONTINUOUS
 62
    7
 10
130.125
 20
54.249999999999986
 11
80.125000000000014
 21
54.249999999999986
  0
LINE
  8
_0-2_Visible__ISO_
  6
CONTINUOUS
 62
    7
 10
127.125
 20
94.25
 11
143.7753936372315
 21
94.25
  0
LINE
  8
_0-2_Visible__ISO_
  6
CONTINUOUS
 62
    7
 10
119.125
 20
86.25
 11
127.125
 21
94.25
  0
LINE
  8
_0-2_Visible__ISO_
  6
CONTINUOUS
 62
    7
 10
91.125000000000014
 20
86.25
 11
119.125
 21
86.25
  0
LINE
  8
_0-2_Visible__ISO_
  6
CONTINUOUS
 62
    7
 10
83.125000000000014
 20
94.25
 11
91.125000000000014
 21
86.25
  0
LINE
  8
_0-2_Visible__ISO_
  6
CONTINUOUS
 62
    7
 10
66.474606362768512
 20
94.25
 11
83.125000000000014
 21
94.25
  0
LINE
  8
_0-2_Visible__ISO_
  6
CONTINUOUS
 62
    7
 10
83.125000000000014
 20
69.25
 11
83.125000000000014
 21
67.25
  0
LINE
  8
_0-2_Visible__ISO_
  6
CONTINUOUS
 62
    7
 10
83.125000000000014
 20
67.25
 11
80.125000000000014
 21
67.25
  0
LINE
  8
_0-1_Bend_Centerline__ISO_
  6
CHAIN
 62
    7
 10
130.38694671058471
 20
94.25
 11
130.38694671058471
 21
69.25
  0
LINE
  8
_0-1_Bend_Centerline__ISO_
  6
CHAIN
 62
    7
 10
79.863053289415305
 20
69.25
 11
79.863053289415404
 21
94.25
  0
LINE
  8
_0-4_2mm
  6
CONTINUOUS
 62
    7
 10
33.601106578830738
 20
91.104101966249701
 11
33.601106578830738
 21
91.25
  0
LINE
  8
_0-4_2mm
  6
CONTINUOUS
 62
    7
 10
37.601106578830723
 20
95.25
 11
48.727606794892978
 21
95.25
  0
LINE
  8
_0-4_2mm
  6
CONTINUOUS
 62
    7
 10
174.43774780316917
 20
87.526393202249977
 11
135.88496139866911
 21
68.25
  0
LINE
  8
_0-4_2mm
  6
CONTINUOUS
 62
    7
 10
131.125
 20
68.25
 11
131.125
 21
53.249999999999986
  0
LINE
  8
_0-4_2mm
  6
CONTINUOUS
 62
    7
 10
131.125
 20
53.249999999999986
 11
79.125000000000014
 21
53.249999999999986
  0
LINE
  8
_0-4_2mm
  6
CONTINUOUS
 62
    7
 10
79.125000000000014
 20
53.249999999999986
 11
79.125000000000014
 21
68.25
  0
LINE
  8
_0-4_2mm
  6
CONTINUOUS
 62
    7
 10
74.365038601330923
 20
68.25
 11
35.812252196830912
 21
87.526393202249977
  0
LINE
  8
_0-4_2mm
  6
CONTINUOUS
 62
    7
 10
66.474606362768512
 20
95.25
 11
83.539213562373106
 21
95.25
  0
LINE
  8
_0-4_2mm
  6
CONTINUOUS
 62
    7
 10
83.539213562373106
 20
95.25
 11
91.539213562373106
 21
87.25
  0
LINE
  8
_0-4_2mm
  6
CONTINUOUS
 62
    7
 10
91.539213562373106
 20
87.25
 11
118.71078643762691
 21
87.25
  0
LINE
  8
_0-4_2mm
  6
CONTINUOUS
 62
    7
 10
118.71078643762691
 20
87.25
 11
126.71078643762691
 21
95.25
  0
LINE
  8
_0-4_2mm
  6
CONTINUOUS
 62
    7
 10
126.71078643762691
 20
95.25
 11
143.7753936372315
 21
95.25
  0
LINE
  8
_0-4_2mm
  6
CONTINUOUS
 62
    7
 10
176.6488934211693
 20
91.25
 11
176.6488934211693
 21
91.104101966249601
  0
LINE
  8
_0-4_2mm
  6
CONTINUOUS
 62
    7
 10
161.52239320510711
 20
95.25
 11
172.6488934211693
 21
95.25
  0
ARC
  8
_0-4_2mm
  6
CONTINUOUS
 62
    7
 10
37.601106578830709
 20
91.104101966249601
 40
3.9999999999999831
 50
180
 51
243.43494882292251
  0
ARC
  8
_0-4_2mm
  6
CONTINUOUS
 62
    7
 10
37.601106578830738
 20
91.25
 40
4.0000000000000071
 50
90
 51
180
  0
ARC
  8
_0-4_2mm
  6
CONTINUOUS
 62
    7
 10
172.6488934211693
 20
91.104101966249701
 40
4.000000000000024
 50
296.5650511770786
 51
0
  0
ARC
  8
_0-4_2mm
  6
CONTINUOUS
 62
    7
 10
172.6488934211693
 20
91.25
 40
4.0000000000000195
 50
0
 51
89.999999999999346
  0
ARC
  8
_0-4_2mm
  6
CONTINUOUS
 62
    7
 10
161.52239320510711
 20
90.25
 40
5.0000000000000018
 50
90
 51
140.1944289077349
  0
ARC
  8
_0-4_2mm
  6
CONTINUOUS
 62
    7
 10
143.7753936372315
 20
90.25
 40
5.0000000000000027
 50
39.805571092265133
 51
90
  0
ARC
  8
_0-4_2mm
  6
CONTINUOUS
 62
    7
 10
66.474606362768512
 20
90.25
 40
4.9999999999999831
 50
89.999999999999744
 51
140.19442890773493
  0
ARC
  8
_0-4_2mm
  6
CONTINUOUS
 62
    7
 10
48.727606794892978
 20
90.25
 40
4.9999999999999938
 50
39.805571092264941
 51
90
  0
LINE
  8
_0-4_2mm
  6
CONTINUOUS
 62
    7
 10
152.7753936372315
 20
89.25
 11
152.52239320510711
 21
89.25
  0
LINE
  8
_0-4_2mm
  6
CONTINUOUS
 62
    7
 10
150.21772936631498
 20
90.329446801006469
 11
147.61650003521839
 21
93.450921998322372
  0
LINE
  8
_0-4_2mm
  6
CONTINUOUS
 62
    7
 10
157.68128680712013
 20
93.450921998322357
 11
155.08005747602363
 21
90.329446801006469
  0
ARC
  8
_0-4_2mm
  6
CONTINUOUS
 62
    7
 10
152.7753936372315
 20
92.25
 40
3.000000000000016
 50
270
 51
320.19442890773468
  0
ARC
  8
_0-4_2mm
  6
CONTINUOUS
 62
    7
 10
152.52239320510711
 20
92.25
 40
2.999999999999992
 50
219.8055710922655
 51
270.00000000000051
  0
LINE
  8
_0-4_2mm
  6
CONTINUOUS
 62
    7
 10
62.633499964781649
 20
93.450921998322372
 11
60.032270633685101
 21
90.329446801006469
  0
LINE
  8
_0-4_2mm
  6
CONTINUOUS
 62
    7
 10
55.169942523976403
 20
90.329446801006469
 11
52.568713192879869
 21
93.450921998322372
  0
LINE
  8
_0-4_2mm
  6
CONTINUOUS
 62
    7
 10
57.727606794892978
 20
89.25
 11
57.474606362768498
 21
89.25
  0
ARC
  8
_0-4_2mm
  6
CONTINUOUS
 62
    7
 10
57.727606794892949
 20
92.25
 40
3.000000000000016
 50
270
 51
320.19442890773468
  0
ARC
  8
_0-4_2mm
  6
CONTINUOUS
 62
    7
 10
57.474606362768526
 20
92.25
 40
3.0000000000000071
 50
219.8055710922651
 51
269.99999999999977
  0
LINE
  8
_0-4_2mm
  6
CONTINUOUS
 62
    7
 10
79.125000000000014
 20
68.25
 11
74.365038601330923
 21
68.25
  0
LINE
  8
_0-4_2mm
  6
CONTINUOUS
 62
    7
 10
135.88496139866911
 20
68.25
 11
131.125
 21
68.25
  0
CIRCLE
  8
_0-4_2mm
  6
CONTINUOUS
 62
    7
 10
64.830088396248755
 20
85.315848978789901
 40
0.5
  0
CIRCLE
  8
_0-4_2mm
  6
CONTINUOUS
 62
    7
 10
38.601106578830738
 20
91.722135954999601
 40
0.5
  0
CIRCLE
  8
_0-4_2mm
  6
CONTINUOUS
 62
    7
 10
145.4199116037513
 20
85.315848978789901
 40
0.5
  0
CIRCLE
  8
_0-4_2mm
  6
CONTINUOUS
 62
    7
 10
171.6488934211693
 20
91.722135954999601
 40
0.5
  0
LINE
  8
_0-4_2mm
  6
CONTINUOUS
 62
    7
 10
122.125
 20
59.749999999999986
 11
88.125000000000014
 21
59.750000000000014
  0
LINE
  8
_0-4_2mm
  6
CONTINUOUS
 62
    7
 10
88.125000000000014
 20
70.75
 11
122.125
 21
70.75
  0
LINE
  8
_0-4_2mm
  6
CONTINUOUS
 62
    7
 10
122.125
 20
69.75
 11
88.125000000000014
 21
69.749999999999901
  0
LINE
  8
_0-4_2mm
  6
CONTINUOUS
 62
    7
 10
88.125000000000014
 20
60.749999999999986
 11
122.125
 21
60.749999999999986
  0
ARC
  8
_0-4_2mm
  6
CONTINUOUS
 62
    7
 10
88.125000000000014
 20
70.25
 40
0.5000000000000051
 50
90
 51
270
  0
ARC
  8
_0-4_2mm
  6
CONTINUOUS
 62
    7
 10
122.125
 20
70.25
 40
0.4999999999999988
 50
270
 51
90
  0
ARC
  8
_0-4_2mm
  6
CONTINUOUS
 62
    7
 10
88.125000000000014
 20
60.249999999999986
 40
0.499999999999998
 50
90
 51
270
  0
ARC
  8
_0-4_2mm
  6
CONTINUOUS
 62
    7
 10
122.125
 20
60.249999999999986
 40
0.5
 50
270
 51
90
  0
LINE
  8
_0-5_0_5mm
  6
CONTINUOUS
 62
    7
 10
79.863053289415404
 20
94.25
 11
79.863053289415305
 21
69.25
  0
LINE
  8
_0-5_0_5mm
  6
CONTINUOUS
 62
    7
 10
130.38694671058471
 20
69.25
 11
130.38694671058471
 21
94.25
  0
ENDSEC
  0
EOF
