  0
SECTION
  2
HEADER
  9
$ACADVER
  1
AC1009
  9
$INSBASE
 10
0
 20
0
 30
0
  9
$EXTMIN
 10
0
 20
0
  9
$EXTMAX
 10
210.25
 20
148.5
  9
$LIMMIN
 10
0
 20
0
  9
$LIMMAX
 10
210.25
 20
148.5
  9
$LTSCALE
 40
0.25
  0
ENDSEC
  0
SECTION
  2
TABLES
  0
TABLE
  2
LTYPE
 70
     9
  0
LTYPE
  2
CONTINUOUS
 70
    64
  3
実線
 72
    65
 73
     0
 40
0.0
  0
LTYPE
  2
DASHED1
 70
    64
  3
--  --  --  --  --  --  --  --  
 72
    65
 73
     2
 40
2.5
 49
1.25
 49
-1.25
  0
LTYPE
  2
DASHED2
 70
    64
  3
----    ----    ----    ----    
 72
    65
 73
     2
 40
5.0
 49
2.5
 49
-2.5
  0
LTYPE
  2
DASHED3
 70
    64
  3
------  ------  ------  ------  
 72
    65
 73
     2
 40
5.0
 49
3.75
 49
-1.25
  0
LTYPE
  2
CENTER1
 70
    64
  3
----- - ----- - ----- - ----- - 
 72
    65
 73
     4
 40
10.0
 49
6.25
 49
-1.25
 49
1.25
 49
-1.25
  0
LTYPE
  2
CENTER2
 70
    64
  3
----------  --  ----------  --  
 72
    65
 73
     4
 40
20.0
 49
12.5
 49
-2.5
 49
2.5
 49
-2.5
  0
LTYPE
  2
PHANTOM1
 70
    64
  3
--- - - --- - - --- - - --- - - 
 72
    65
 73
     6
 40
10.0
 49
3.25
 49
-1.25
 49
1.25
 49
-1.25
 49
1.25
 49
-1.25
  0
LTYPE
  2
PHANTOM2
 70
    64
  3
--------  -  -  --------  -  -  
 72
    65
 73
     6
 40
20.0
 49
10.0
 49
-2.5
 49
1.25
 49
-2.5
 49
1.25
 49
-2.5
  0
LTYPE
  2
DOT
 70
    64
  3
-   -   -   -   -   -   -   -   
 72
    65
 73
     2
 40
2.5
 49
0.625
 49
-1.875
  0
LTYPE
  2
DUMMY
 70
    64
  3
ダミー
 72
    65
 73
     0
 40
0.0
  0
LTYPE
  2
RAND1
 70
    64
  3
ランダム線1
 72
    65
 73
     4
 40
10.0
 49
1.0
 49
-2.0
 49
3.0
 49
-4.0
  0
LTYPE
  2
RAND2
 70
    64
  3
ランダム線2
 72
    65
 73
     4
 40
14.0
 49
2.0
 49
-3.0
 49
4.0
 49
-5.0
  0
LTYPE
  2
RAND3
 70
    64
  3
ランダム線3
 72
    65
 73
     4
 40
18.0
 49
3.0
 49
-4.0
 49
5.0
 49
-6.0
  0
LTYPE
  2
RAND4
 70
    64
  3
ランダム線4
 72
    65
 73
     4
 40
22.0
 49
4.0
 49
-5.0
 49
6.0
 49
-7.0
  0
LTYPE
  2
RAND5
 70
    64
  3
ランダム線5
 72
    65
 73
     4
 40
26.0
 49
5.0
 49
-6.0
 49
7.0
 49
-8.0
  0
LTYPE
  2
LONG1
 70
    64
  3
----------  --  ----------  --  
 72
    65
 73
     4
 40
40.0
 49
32.5
 49
-2.5
 49
2.5
 49
-2.5
  0
LTYPE
  2
LONG2
 70
    64
  3
--------  -  -  --------  -  -  
 72
    65
 73
     6
 40
40.0
 49
30.0
 49
-2.5
 49
1.25
 49
-2.5
 49
1.25
 49
-2.5
  0
LTYPE
  2
LONG3
 70
    64
  3
+++++++++++++++..+++++++++++++++
 72
    65
 73
     2
 40
40.0
 49
37.5
 49
-2.5
  0
LTYPE
  2
LONG4
 70
    64
  3
+++++++++++++++..+++++++++++++++
 72
    65
 73
     2
 40
80.0
 49
75.0
 49
-5.0
  0
LTYPE
  2
LONG5
 70
    64
  3
----------  --  ----------  --  
 72
    65
 73
     4
 40
60.0
 49
37.5
 49
-7.5
 49
7.5
 49
-7.5
  0
LTYPE
  2
dashed
 70
   64
  3
-------   -------------   ------
 72
   65
 73
    2
 40
7.5
 49
6
 49
-1.5
  0
LTYPE
  2
dashed_spaced
 70
   64
  3
----        --------        ----
 72
   65
 73
    2
 40
12
 49
6
 49
-6
  0
LTYPE
  2
long_dashed_dotted
 70
   64
  3
------------- --- --------------
 72
   65
 73
    4
 40
15.25
 49
12
 49
-1.5
 49
0.25
 49
-1.5
  0
LTYPE
  2
long_dashed_double-dotted
 70
   64
  3
----------- --- --- ------------
 72
   65
 73
    6
 40
17
 49
12
 49
-1.5
 49
0.25
 49
-1.5
 49
0.25
 49
-1.5
  0
LTYPE
  2
long_dashed_triplicate-dotted
 70
   64
  3
--------- --- --- --- ----------
 72
   65
 73
    8
 40
18.75
 49
12
 49
-1.5
 49
0.25
 49
-1.5
 49
0.25
 49
-1.5
 49
0.25
 49
-1.5
  0
LTYPE
  2
dotted
 70
   64
  3
   -       -       -       -    
 72
   65
 73
    2
 40
1.75
 49
0.25
 49
-1.5
  0
LTYPE
  2
chain
 70
   64
  3
-------------- -- --------------
 72
   65
 73
    4
 40
18.5
 49
12
 49
-1.5
 49
3.5
 49
-1.5
  0
LTYPE
  2
chain_double_dash
 70
   64
  3
------------ -- -- -------------
 72
   65
 73
    6
 40
23.5
 49
12
 49
-1.5
 49
3.5
 49
-1.5
 49
3.5
 49
-1.5
  0
LTYPE
  2
dashed_dotted
 70
   64
  3
-----------     -     ----------
 72
   65
 73
    4
 40
9.25
 49
6
 49
-1.5
 49
0.25
 49
-1.5
  0
LTYPE
  2
double-dashed_dotted
 70
   64
  3
------   -----------   -   -----
 72
   65
 73
    6
 40
16.75
 49
6
 49
-1.5
 49
6
 49
-1.5
 49
0.25
 49
-1.5
  0
LTYPE
  2
dashed_double-dotted
 70
   64
  3
---------    -    -    ---------
 72
   65
 73
    6
 40
11
 49
6
 49
-1.5
 49
0.25
 49
-1.5
 49
0.25
 49
-1.5
  0
LTYPE
  2
double-dashed_double-dotted
 70
   64
  3
-----   ---------   -   -   ----
 72
   65
 73
    8
 40
18.5
 49
6
 49
-1.5
 49
6
 49
-1.5
 49
0.25
 49
-1.5
 49
0.25
 49
-1.5
  0
LTYPE
  2
dashed_triplicate-dotted
 70
   64
  3
-------    -    -    -    ------
 72
   65
 73
    8
 40
12.75
 49
6
 49
-1.5
 49
0.25
 49
-1.5
 49
0.25
 49
-1.5
 49
0.25
 49
-1.5
  0
LTYPE
  2
double-dashed_triplicate-dotted
 70
   64
  3
-----  ---------  -  -  -  -----
 72
   65
 73
   10
 40
20.25
 49
6
 49
-1.5
 49
6
 49
-1.5
 49
0.25
 49
-1.5
 49
0.25
 49
-1.5
 49
0.25
 49
-1.5
  0
LTYPE
  2
undefined
 70
   64
  3
--------------------------------
 72
   65
 73
    0
 40
0
  0
LTYPE
  2
CHAIN
 70
   64
  3
-----------   -----   ----------
 72
   65
 73
    4
 40
0.3542999999999999
 49
0.2361999999999999
 49
-0.0294999999999999
 49
0.0591
 49
-0.0294999999999999
  0
LTYPE
  2
DASH_DOT
 70
   64
  3
-----------     -     ----------
 72
   65
 73
    4
 40
0.37
 49
0.2399999999999999
 49
-0.0599999999999999
 49
0.01
 49
-0.0599999999999999
  0
LTYPE
  2
DASH_DOUBLE_DOT
 70
   64
  3
---------    -    -    ---------
 72
   65
 73
    6
 40
0.4397999999999999
 49
0.2399999999999999
 49
-0.0599999999999999
 49
0.0097999999999999
 49
-0.0599999999999999
 49
0.01
 49
-0.0599999999999999
  0
LTYPE
  2
DASH_TRIPLE_DOT
 70
   64
  3
-------    -    -    -    ------
 72
   65
 73
    8
 40
0.51
 49
0.2399999999999999
 49
-0.0599999999999999
 49
0.01
 49
-0.0599999999999999
 49
0.01
 49
-0.0599999999999999
 49
0.01
 49
-0.0599999999999999
  0
LTYPE
  2
DASHED
 70
   64
  3
-------   -------------   ------
 72
   65
 73
    2
 40
0.2066999999999999
 49
0.1653999999999999
 49
-0.0413
  0
LTYPE
  2
DASHED_SPACE
 70
   64
  3
----        --------        ----
 72
   65
 73
    2
 40
0.0826
 49
0.0413
 49
-0.0413
  0
LTYPE
  2
DOTTED
 70
   64
  3
-              --              -
 72
   65
 73
    2
 40
0.0482
 49
0.0068999999999999
 49
-0.0413
  0
LTYPE
  2
DOUBLE_DASH_CHAIN
 70
   64
  3
---------  ----  ----  ---------
 72
   65
 73
    6
 40
1.2403
 49
0.6613999999999999
 49
-0.0826999999999999
 49
0.1653999999999999
 49
-0.0826999999999999
 49
0.1653999999999999
 49
-0.0826999999999999
  0
LTYPE
  2
DOUBLE_DASH_DOT
 70
   64
  3
------   -----------   -   -----
 72
   65
 73
    6
 40
0.6700000000000001
 49
0.2399999999999999
 49
-0.0599999999999999
 49
0.2399999999999999
 49
-0.0599999999999999
 49
0.01
 49
-0.0599999999999999
  0
LTYPE
  2
DOUBLE_DASH_DOUBLE_DOT
 70
   64
  3
-----   ---------   -   -   ----
 72
   65
 73
    8
 40
0.7400000000000002
 49
0.2399999999999999
 49
-0.0599999999999999
 49
0.2399999999999999
 49
-0.0599999999999999
 49
0.01
 49
-0.0599999999999999
 49
0.01
 49
-0.0599999999999999
  0
LTYPE
  2
LONG_DASH_DOTTED
 70
   64
  3
-------------   -   ------------
 72
   65
 73
    4
 40
0.6100000000000001
 49
0.4799999999999999
 49
-0.0599999999999999
 49
0.01
 49
-0.0599999999999999
  0
LTYPE
  2
LONG_DASH_DOUBLE_DOT
 70
   64
  3
-----------   -   -   ----------
 72
   65
 73
    6
 40
0.3345
 49
0.2361999999999999
 49
-0.0294999999999999
 49
0.0048999999999999
 49
-0.0294999999999999
 49
0.0048999999999999
 49
-0.0294999999999999
  0
LTYPE
  2
LONG_DASH_TRIPLE_DOT
 70
   64
  3
---------   -   -   -   --------
 72
   65
 73
    8
 40
0.7500000000000002
 49
0.4799999999999999
 49
-0.0599999999999999
 49
0.01
 49
-0.0599999999999999
 49
0.01
 49
-0.0599999999999999
 49
0.01
 49
-0.0599999999999999
  0
LTYPE
  2
BORDER
 70
   64
  3
----     --------     -     ----
 72
   65
 73
    6
 40
44.459999999999994
 49
12.699999999999999
 49
-6.3499999999999988
 49
12.699999999999999
 49
-6.3499999999999988
 49
0.01
 49
-6.3499999999999988
  0
LTYPE
  2
BORDER2
 70
   64
  3
----     --------     -     ----
 72
   65
 73
    6
 40
22.234999999999999
 49
6.3499999999999988
 49
-3.1749999999999989
 49
6.3499999999999988
 49
-3.1749999999999989
 49
0.01
 49
-3.1749999999999989
  0
LTYPE
  2
BORDERX2
 70
   64
  3
----     --------     -     ----
 72
   65
 73
    6
 40
88.909999999999997
 49
25.399999999999999
 49
-12.699999999999999
 49
25.399999999999999
 49
-12.699999999999999
 49
0.01
 49
-12.699999999999999
  0
ENDTAB
  0
TABLE
  2
STYLE
  5
3
100
AcDbSymbolTable
 70
     1
  0
STYLE
  5
10
100
AcDbSymbolTableRecord
100
AcDbTextStyleTableRecord
  2
STANDARD
 70
     0
 40
0.0
 41
1.0
 50
0.0
 71
     0
 42
0.2
  3
txt
  4
bigfont.shx
  0
STYLE
  5
26
100
AcDbSymbolTableRecord
100
AcDbTextStyleTableRecord
  2
TATEGAKI
 70
    68
 40
0.0
 41
1.0
 50
0.0
 71
     0
 42
1.0
  3
txt
  4
bigfont.shx
  0
ENDTAB
  0
TABLE
  2
LAYER
 70
    3
  0
LAYER
  2
_0-1_Visible__ISO_
 70
   64
 62
    7
  6
CONTINUOUS
  0
LAYER
  2
_0-4_5mm
 70
   64
 62
    7
  6
CONTINUOUS
  0
LAYER
  2
ADD_LINE
 70
   64
 62
    7
  6
CONTINUOUS
  0
ENDTAB
  0
ENDSEC
  0
SECTION
  2
BLOCKS
  0
ENDSEC
  0
SECTION
  2
ENTITIES
  0
CIRCLE
  8
_0-1_Visible__ISO_
  6
CONTINUOUS
 62
    7
 10
84.125000000000014
 20
87.25
 40
1.5
  0
CIRCLE
  8
_0-1_Visible__ISO_
  6
CONTINUOUS
 62
    7
 10
127.125
 20
79.25
 40
1.5
  0
CIRCLE
  8
_0-1_Visible__ISO_
  6
CONTINUOUS
 62
    7
 10
127.125
 20
69.25
 40
1.5
  0
CIRCLE
  8
_0-1_Visible__ISO_
  6
CONTINUOUS
 62
    7
 10
84.125000000000014
 20
61.249999999999986
 40
1.5
  0
ARC
  8
_0-1_Visible__ISO_
  6
CONTINUOUS
 62
    7
 10
105.125
 20
74.25
 40
16
 50
247.18075578145829
 51
352.81924421854177
  0
ARC
  8
_0-1_Visible__ISO_
  6
CONTINUOUS
 62
    7
 10
105.125
 20
74.25
 40
15.999999999999989
 50
7.180755781458207
 51
112.8192442185417
  0
ARC
  8
_0-1_Visible__ISO_
  6
CONTINUOUS
 62
    7
 10
105.125
 20
74.25
 40
16.000000000000028
 50
127.1807557814582
 51
172.81924421854171
  0
ARC
  8
_0-1_Visible__ISO_
  6
CONTINUOUS
 62
    7
 10
105.125
 20
74.25
 40
16
 50
187.1807557814582
 51
232.8192442185418
  0
LINE
  8
_0-1_Visible__ISO_
  6
CONTINUOUS
 62
    7
 10
95.142949192431104
 20
60.960580837556734
 11
95.455695259237416
 21
61.502272915132451
  0
LINE
  8
_0-1_Visible__ISO_
  6
CONTINUOUS
 62
    7
 10
92.642949192431118
 20
56.630453818634564
 11
93.642949192431104
 21
58.362504626203432
  0
LINE
  8
_0-1_Visible__ISO_
  6
CONTINUOUS
 62
    7
 10
88.625000000000014
 20
76.25
 11
89.250492133612411
 21
76.25
  0
LINE
  8
_0-1_Visible__ISO_
  6
CONTINUOUS
 62
    7
 10
83.125000000000014
 20
76.25
 11
85.625000000000014
 21
76.25
  0
LINE
  8
_0-1_Visible__ISO_
  6
CONTINUOUS
 62
    7
 10
121.625
 20
72.25
 11
120.99950786638752
 21
72.25
  0
LINE
  8
_0-1_Visible__ISO_
  6
CONTINUOUS
 62
    7
 10
126.625
 20
72.25
 11
124.625
 21
72.25
  0
LINE
  8
_0-1_Visible__ISO_
  6
CONTINUOUS
 62
    7
 10
98.607050807568925
 20
89.539419162443195
 11
98.919796874375123
 21
88.997727084867492
  0
LINE
  8
_0-1_Visible__ISO_
  6
CONTINUOUS
 62
    7
 10
95.857050807568925
 20
94.302558883257589
 11
97.107050807568925
 21
92.137495373796597
  0
LINE
  8
_0-1_Visible__ISO_
  6
CONTINUOUS
 62
    7
 10
88.625000000000014
 20
79.25
 11
88.625000000000014
 21
76.25
  0
LINE
  8
_0-1_Visible__ISO_
  6
CONTINUOUS
 62
    7
 10
85.625000000000014
 20
76.25
 11
85.625000000000014
 21
79.25
  0
LINE
  8
_0-1_Visible__ISO_
  6
CONTINUOUS
 62
    7
 10
88.625000000000014
 20
72.25
 11
88.625000000000014
 21
69.25
  0
LINE
  8
_0-1_Visible__ISO_
  6
CONTINUOUS
 62
    7
 10
85.625000000000014
 20
79.25
 11
88.625000000000014
 21
79.25
  0
LINE
  8
_0-1_Visible__ISO_
  6
CONTINUOUS
 62
    7
 10
85.625000000000014
 20
69.25
 11
85.625000000000014
 21
72.25
  0
LINE
  8
_0-1_Visible__ISO_
  6
CONTINUOUS
 62
    7
 10
88.625000000000014
 20
69.25
 11
85.625000000000014
 21
69.25
  0
LINE
  8
_0-1_Visible__ISO_
  6
CONTINUOUS
 62
    7
 10
97.107050807568925
 20
92.137495373796597
 11
99.705127018922212
 21
93.637495373796497
  0
LINE
  8
_0-1_Visible__ISO_
  6
CONTINUOUS
 62
    7
 10
91.044872981077816
 20
88.637495373796497
 11
93.642949192431104
 21
90.137495373796597
  0
LINE
  8
_0-1_Visible__ISO_
  6
CONTINUOUS
 62
    7
 10
101.20512701892221
 20
91.039419162443195
 11
98.607050807568925
 21
89.539419162443195
  0
LINE
  8
_0-1_Visible__ISO_
  6
CONTINUOUS
 62
    7
 10
99.705127018922212
 20
93.637495373796497
 11
101.20512701892221
 21
91.039419162443195
  0
LINE
  8
_0-1_Visible__ISO_
  6
CONTINUOUS
 62
    7
 10
92.544872981077816
 20
86.039419162443195
 11
91.044872981077816
 21
88.637495373796497
  0
LINE
  8
_0-1_Visible__ISO_
  6
CONTINUOUS
 62
    7
 10
95.142949192431104
 20
87.539419162443195
 11
92.544872981077816
 21
86.039419162443195
  0
LINE
  8
_0-1_Visible__ISO_
  6
CONTINUOUS
 62
    7
 10
99.705127018922212
 20
54.862504626203432
 11
97.107050807568925
 21
56.362504626203432
  0
LINE
  8
_0-1_Visible__ISO_
  6
CONTINUOUS
 62
    7
 10
98.607050807568925
 20
58.960580837556748
 11
101.20512701892221
 21
57.460580837556748
  0
LINE
  8
_0-1_Visible__ISO_
  6
CONTINUOUS
 62
    7
 10
91.044872981077816
 20
59.862504626203432
 11
92.544872981077816
 21
62.460580837556748
  0
LINE
  8
_0-1_Visible__ISO_
  6
CONTINUOUS
 62
    7
 10
93.642949192431104
 20
58.362504626203432
 11
91.044872981077816
 21
59.862504626203432
  0
LINE
  8
_0-1_Visible__ISO_
  6
CONTINUOUS
 62
    7
 10
101.20512701892221
 20
57.460580837556748
 11
99.705127018922212
 21
54.862504626203432
  0
LINE
  8
_0-1_Visible__ISO_
  6
CONTINUOUS
 62
    7
 10
92.544872981077816
 20
62.460580837556748
 11
95.142949192431104
 21
60.960580837556734
  0
LINE
  8
_0-1_Visible__ISO_
  6
CONTINUOUS
 62
    7
 10
121.625
 20
69.25
 11
121.625
 21
72.25
  0
LINE
  8
_0-1_Visible__ISO_
  6
CONTINUOUS
 62
    7
 10
124.625
 20
72.25
 11
124.625
 21
69.25
  0
LINE
  8
_0-1_Visible__ISO_
  6
CONTINUOUS
 62
    7
 10
121.625
 20
79.25
 11
124.625
 21
79.25
  0
LINE
  8
_0-1_Visible__ISO_
  6
CONTINUOUS
 62
    7
 10
121.625
 20
76.25
 11
121.625
 21
79.25
  0
LINE
  8
_0-1_Visible__ISO_
  6
CONTINUOUS
 62
    7
 10
124.625
 20
69.25
 11
121.625
 21
69.25
  0
LINE
  8
_0-1_Visible__ISO_
  6
CONTINUOUS
 62
    7
 10
124.625
 20
79.25
 11
124.625
 21
76.25
  0
LINE
  8
_0-1_Visible__ISO_
  6
CONTINUOUS
 62
    7
 10
93.642949192431104
 20
90.137495373796597
 11
92.392949192431118
 21
92.302558883257603
  0
LINE
  8
_0-1_Visible__ISO_
  6
CONTINUOUS
 62
    7
 10
95.455695259237416
 20
86.997727084867492
 11
95.142949192431104
 21
87.539419162443195
  0
LINE
  8
_0-1_Visible__ISO_
  6
CONTINUOUS
 62
    7
 10
97.107050807568925
 20
56.362504626203432
 11
96.107050807568925
 21
54.630453818634535
  0
LINE
  8
_0-1_Visible__ISO_
  6
CONTINUOUS
 62
    7
 10
98.919796874375123
 20
59.502272915132451
 11
98.607050807568925
 21
58.960580837556748
  0
LINE
  8
_0-1_Visible__ISO_
  6
CONTINUOUS
 62
    7
 10
89.250492133612411
 20
72.25
 11
88.625000000000014
 21
72.25
  0
LINE
  8
_0-1_Visible__ISO_
  6
CONTINUOUS
 62
    7
 10
85.625000000000014
 20
72.25
 11
83.125000000000014
 21
72.25
  0
LINE
  8
_0-1_Visible__ISO_
  6
CONTINUOUS
 62
    7
 10
83.125000000000014
 20
72.25
 11
83.125000000000014
 21
76.25
  0
LINE
  8
_0-1_Visible__ISO_
  6
CONTINUOUS
 62
    7
 10
92.392949192431118
 20
92.302558883257603
 11
95.857050807568925
 21
94.302558883257589
  0
LINE
  8
_0-1_Visible__ISO_
  6
CONTINUOUS
 62
    7
 10
120.99950786638752
 20
76.25
 11
121.625
 21
76.25
  0
LINE
  8
_0-1_Visible__ISO_
  6
CONTINUOUS
 62
    7
 10
124.625
 20
76.25
 11
126.625
 21
76.25
  0
LINE
  8
_0-1_Visible__ISO_
  6
CONTINUOUS
 62
    7
 10
126.625
 20
76.25
 11
126.625
 21
72.25
  0
LINE
  8
_0-1_Visible__ISO_
  6
CONTINUOUS
 62
    7
 10
96.107050807568925
 20
54.630453818634535
 11
92.642949192431118
 21
56.630453818634564
  0
LINE
  8
_0-1_Visible__ISO_
  6
CONTINUOUS
 62
    7
 10
88.125000000000014
 20
51.249999999999986
 11
108.125
 21
51.249999999999986
  0
LINE
  8
_0-1_Visible__ISO_
  6
CONTINUOUS
 62
    7
 10
108.125
 20
51.249999999999986
 11
130.125
 21
68.25
  0
LINE
  8
_0-1_Visible__ISO_
  6
CONTINUOUS
 62
    7
 10
130.125
 20
68.25
 11
130.125
 21
80.25
  0
LINE
  8
_0-1_Visible__ISO_
  6
CONTINUOUS
 62
    7
 10
130.125
 20
80.25
 11
108.125
 21
97.249999999999986
  0
LINE
  8
_0-1_Visible__ISO_
  6
CONTINUOUS
 62
    7
 10
108.125
 20
97.249999999999986
 11
88.125000000000014
 21
97.249999999999986
  0
LINE
  8
_0-1_Visible__ISO_
  6
CONTINUOUS
 62
    7
 10
88.125000000000014
 20
97.249999999999986
 11
80.125000000000014
 21
91.25
  0
LINE
  8
_0-1_Visible__ISO_
  6
CONTINUOUS
 62
    7
 10
80.125000000000014
 20
91.25
 11
80.125000000000014
 21
57.249999999999972
  0
LINE
  8
_0-1_Visible__ISO_
  6
CONTINUOUS
 62
    7
 10
80.125000000000014
 20
57.249999999999972
 11
88.125000000000014
 21
51.249999999999986
  0
LINE
  8
_0-1_Visible__ISO_
  6
CONTINUOUS
 62
    7
 10
95.142949192431104
 20
60.960580837556734
 11
93.642949192431104
 21
58.362504626203432
  0
LINE
  8
_0-1_Visible__ISO_
  6
CONTINUOUS
 62
    7
 10
88.625000000000014
 20
76.25
 11
85.625000000000014
 21
76.25
  0
LINE
  8
_0-1_Visible__ISO_
  6
CONTINUOUS
 62
    7
 10
121.625
 20
72.25
 11
124.625
 21
72.25
  0
LINE
  8
_0-1_Visible__ISO_
  6
CONTINUOUS
 62
    7
 10
98.607050807568925
 20
89.539419162443195
 11
97.107050807568925
 21
92.137495373796597
  0
LINE
  8
_0-1_Visible__ISO_
  6
CONTINUOUS
 62
    7
 10
85.625000000000014
 20
72.25
 11
88.625000000000014
 21
72.25
  0
LINE
  8
_0-1_Visible__ISO_
  6
CONTINUOUS
 62
    7
 10
93.642949192431104
 20
90.137495373796597
 11
95.142949192431104
 21
87.539419162443195
  0
LINE
  8
_0-1_Visible__ISO_
  6
CONTINUOUS
 62
    7
 10
97.107050807568925
 20
56.362504626203432
 11
98.607050807568925
 21
58.960580837556748
  0
LINE
  8
_0-1_Visible__ISO_
  6
CONTINUOUS
 62
    7
 10
124.625
 20
76.25
 11
121.625
 21
76.25
  0
LINE
  8
_0-4_5mm
  6
CONTINUOUS
 62
    7
 10
79.125000000000014
 20
56.749999999999972
 11
87.791666666666686
 21
50.249999999999986
  0
LINE
  8
_0-4_5mm
  6
CONTINUOUS
 62
    7
 10
87.791666666666686
 20
50.249999999999986
 11
108.46634573817151
 21
50.249999999999986
  0
LINE
  8
_0-4_5mm
  6
CONTINUOUS
 62
    7
 10
108.46634573817151
 20
50.249999999999986
 11
131.125
 21
67.758960111412918
  0
LINE
  8
_0-4_5mm
  6
CONTINUOUS
 62
    7
 10
131.125
 20
67.758960111412918
 11
131.125
 21
80.741039888587082
  0
LINE
  8
_0-4_5mm
  6
CONTINUOUS
 62
    7
 10
131.125
 20
80.741039888587082
 11
108.46634573817151
 21
98.249999999999986
  0
LINE
  8
_0-4_5mm
  6
CONTINUOUS
 62
    7
 10
108.46634573817151
 20
98.249999999999986
 11
87.791666666666686
 21
98.249999999999986
  0
LINE
  8
_0-4_5mm
  6
CONTINUOUS
 62
    7
 10
79.125000000000014
 20
91.75
 11
79.125000000000014
 21
56.749999999999972
  0
LINE
  8
_0-4_5mm
  6
CONTINUOUS
 62
    7
 10
87.791666666666686
 20
98.249999999999986
 11
79.125000000000014
 21
91.75
  0
CIRCLE
  8
_0-4_5mm
  6
CONTINUOUS
 62
    7
 10
84.125000000000014
 20
87.25
 40
0.5
  0
CIRCLE
  8
_0-4_5mm
  6
CONTINUOUS
 62
    7
 10
84.125000000000014
 20
61.249999999999986
 40
0.5
  0
CIRCLE
  8
_0-4_5mm
  6
CONTINUOUS
 62
    7
 10
127.125
 20
69.25
 40
0.5
  0
CIRCLE
  8
_0-4_5mm
  6
CONTINUOUS
 62
    7
 10
127.125
 20
79.25
 40
0.5
  0
LINE
  8
_0-4_5mm
  6
CONTINUOUS
 62
    7
 10
95.241025403784477
 20
55.130453818634543
 11
98.507710630236602
 21
60.788518603184258
  0
LINE
  8
_0-4_5mm
  6
CONTINUOUS
 62
    7
 10
96.775659822667677
 20
61.788518603184279
 11
93.508974596215552
 21
56.130453818634564
  0
ARC
  8
_0-4_5mm
  6
CONTINUOUS
 62
    7
 10
105.125
 20
74.25
 40
15
 50
183.82255372927432
 51
236.17744627072565
  0
LINE
  8
_0-4_5mm
  6
CONTINUOUS
 62
    7
 10
90.158370452904236
 20
73.25
 11
83.125000000000014
 21
73.25
  0
LINE
  8
_0-4_5mm
  6
CONTINUOUS
 62
    7
 10
83.125000000000014
 20
75.25
 11
90.158370452904208
 21
75.25
  0
ARC
  8
_0-4_5mm
  6
CONTINUOUS
 62
    7
 10
105.125
 20
74.25
 40
15
 50
243.82255372927452
 51
356.17744627072568
  0
ARC
  8
_0-4_5mm
  6
CONTINUOUS
 62
    7
 10
105.125
 20
74.25
 40
15.000000000000028
 50
123.82255372927457
 51
176.17744627072568
  0
ARC
  8
_0-4_5mm
  6
CONTINUOUS
 62
    7
 10
105.125
 20
74.25
 40
14.999999999999989
 50
3.8225537292743468
 51
116.17744627072567
  0
LINE
  8
_0-4_5mm
  6
CONTINUOUS
 62
    7
 10
93.258974596215623
 20
92.802558883257632
 11
96.77565982266762
 21
86.711481396815714
  0
LINE
  8
_0-4_5mm
  6
CONTINUOUS
 62
    7
 10
98.507710630236559
 20
87.711481396815714
 11
94.991025403784562
 21
93.802558883257646
  0
LINE
  8
_0-4_5mm
  6
CONTINUOUS
 62
    7
 10
120.09162954709576
 20
73.25
 11
126.625
 21
73.25
  0
LINE
  8
_0-4_5mm
  6
CONTINUOUS
 62
    7
 10
126.625
 20
75.25
 11
120.09162954709575
 21
75.25
  0
LINE
  8
_0-4_5mm
  6
CONTINUOUS
 62
    7
 10
126.625
 20
75.25
 11
126.625
 21
73.25
  0
LINE
  8
_0-4_5mm
  6
CONTINUOUS
 62
    7
 10
95.241025403784477
 20
55.130453818634543
 11
93.508974596215552
 21
56.130453818634571
  0
LINE
  8
_0-4_5mm
  6
CONTINUOUS
 62
    7
 10
83.125000000000014
 20
75.25
 11
83.125000000000014
 21
73.25
  0
LINE
  8
_0-4_5mm
  6
CONTINUOUS
 62
    7
 10
94.991025403784562
 20
93.802558883257646
 11
93.258974596215623
 21
92.802558883257632
  0
LINE
  8
_0-4_5mm
  6
CONTINUOUS
 62
    7
 10
122.625
 20
69.25
 11
122.625
 21
79.25
  0
LINE
  8
_0-4_5mm
  6
CONTINUOUS
 62
    7
 10
123.625
 20
79.25
 11
123.625
 21
69.25
  0
LINE
  8
_0-4_5mm
  6
CONTINUOUS
 62
    7
 10
100.70512701892218
 20
91.905444566227672
 11
92.044872981077816
 21
86.905444566227629
  0
LINE
  8
_0-4_5mm
  6
CONTINUOUS
 62
    7
 10
91.544872981077845
 20
87.771469970012078
 11
100.20512701892207
 21
92.771469970012362
  0
LINE
  8
_0-4_5mm
  6
CONTINUOUS
 62
    7
 10
86.625000000000014
 20
69.25
 11
86.625000000000014
 21
79.25
  0
LINE
  8
_0-4_5mm
  6
CONTINUOUS
 62
    7
 10
87.625000000000014
 20
79.25
 11
87.625000000000014
 21
69.25
  0
LINE
  8
_0-4_5mm
  6
CONTINUOUS
 62
    7
 10
92.044872981077845
 20
61.594555433772356
 11
100.70512701892221
 21
56.594555433772314
  0
LINE
  8
_0-4_5mm
  6
CONTINUOUS
 62
    7
 10
100.20512701892221
 20
55.728530029987866
 11
91.544872981077845
 21
60.728530029987908
  0
LINE
  8
_0-4_5mm
  6
CONTINUOUS
 62
    7
 10
87.625000000000014
 20
79.25
 11
86.625000000000014
 21
79.25
  0
LINE
  8
_0-4_5mm
  6
CONTINUOUS
 62
    7
 10
86.625000000000014
 20
69.25
 11
87.625000000000014
 21
69.25
  0
LINE
  8
_0-4_5mm
  6
CONTINUOUS
 62
    7
 10
92.044872981077845
 20
61.594555433772349
 11
91.544872981077845
 21
60.728530029987908
  0
LINE
  8
_0-4_5mm
  6
CONTINUOUS
 62
    7
 10
100.70512701892221
 20
56.594555433772314
 11
100.20512701892221
 21
55.728530029987866
  0
LINE
  8
_0-4_5mm
  6
CONTINUOUS
 62
    7
 10
123.625
 20
69.25
 11
122.625
 21
69.25
  0
LINE
  8
_0-4_5mm
  6
CONTINUOUS
 62
    7
 10
123.625
 20
79.25
 11
122.625
 21
79.25
  0
LINE
  8
_0-4_5mm
  6
CONTINUOUS
 62
    7
 10
100.70512701892218
 20
91.905444566227672
 11
100.20512701892207
 21
92.771469970012362
  0
LINE
  8
_0-4_5mm
  6
CONTINUOUS
 62
    7
 10
91.544872981077816
 20
87.771469970012063
 11
92.044872981077816
 21
86.905444566227629
  0
ENDSEC
  0
EOF
